{"glyphs":{"0":{"ha":814,"x_min":64,"x_max":791,"o":"m 384 -26 q 144 94 223 -26 q 64 380 64 214 q 175 769 64 587 q 481 950 286 950 q 701 848 611 950 q 791 538 791 745 q 756 316 791 448 q 623 79 721 184 q 384 -26 524 -26 m 385 101 q 574 275 515 101 q 633 600 633 450 q 589 766 633 709 q 468 823 545 823 q 286 653 346 823 q 225 327 225 484 q 268 160 225 220 q 385 101 310 101 z "},"1":{"ha":814,"x_min":54,"x_max":776,"o":"m 751 0 l 54 0 l 79 144 l 347 144 l 446 734 q 327 670 407 696 q 184 645 246 645 q 162 646 176 645 l 186 787 q 532 960 429 808 l 640 960 l 503 144 l 776 144 l 751 0 z "},"2":{"ha":814,"x_min":7,"x_max":774,"o":"m 693 0 l 7 0 l 28 169 q 331 354 170 247 q 548 530 492 460 q 604 672 604 600 q 562 774 604 734 q 458 814 519 814 q 329 763 385 814 q 251 619 273 711 l 107 682 q 250 887 155 816 q 463 958 344 958 q 685 877 595 958 q 774 674 774 795 q 720 490 774 573 q 497 307 665 406 q 189 148 330 208 l 718 148 l 693 0 z "},"3":{"ha":814,"x_min":25,"x_max":769,"o":"m 172 269 q 239 156 184 199 q 372 112 294 112 q 507 158 454 112 q 559 273 559 203 q 530 362 559 327 q 465 402 501 397 q 297 408 428 408 l 319 540 q 359 538 341 538 q 549 583 495 538 q 604 690 604 627 q 560 780 604 747 q 454 814 517 814 q 251 677 317 814 l 111 742 q 458 948 234 948 q 682 878 595 948 q 769 703 769 808 q 713 559 769 621 q 563 481 658 498 q 684 400 644 460 q 725 267 725 340 q 632 65 725 152 q 368 -22 538 -22 q 140 48 229 -22 q 25 231 52 119 l 172 269 z "},"4":{"ha":814,"x_min":37,"x_max":767,"o":"m 565 0 l 406 0 l 441 210 l 37 210 l 61 359 l 555 956 l 725 956 l 623 349 l 767 349 l 743 210 l 600 210 l 565 0 m 469 349 l 536 741 q 546 778 541 770 q 477 684 507 720 l 197 346 q 261 349 234 349 l 469 349 z "},"5":{"ha":814,"x_min":52,"x_max":785,"o":"m 52 205 l 197 244 q 259 148 209 186 q 375 109 310 109 q 514 167 455 109 q 573 314 573 225 q 526 435 573 389 q 411 482 478 482 q 241 381 307 482 l 110 439 l 241 928 l 785 928 l 749 785 l 337 785 l 264 522 q 463 623 345 623 q 665 535 585 623 q 746 329 746 448 q 638 77 746 179 q 381 -25 531 -25 q 172 37 264 -25 q 52 205 81 100 z "},"6":{"ha":814,"x_min":75,"x_max":807,"o":"m 807 707 l 656 682 q 495 823 629 823 q 320 708 385 823 q 242 465 255 592 q 478 600 319 600 q 672 514 590 600 q 753 300 753 429 q 659 72 753 168 q 420 -24 564 -24 q 172 83 269 -24 q 75 377 75 190 q 189 767 75 584 q 501 950 302 950 q 709 882 631 950 q 807 707 787 814 m 414 101 q 541 156 488 101 q 595 292 595 210 q 541 418 595 370 q 421 466 488 466 q 294 411 345 466 q 242 281 242 357 q 287 159 242 216 q 414 101 332 101 z "},"7":{"ha":814,"x_min":130,"x_max":811,"o":"m 380 0 l 191 0 q 206 64 193 4 q 292 327 241 218 q 436 557 342 437 q 648 779 530 677 l 130 779 l 175 926 l 811 926 l 789 795 q 641 627 755 774 q 460 323 526 481 q 380 0 395 166 z "},"8":{"ha":814,"x_min":37,"x_max":787,"o":"m 265 465 q 128 673 128 538 q 221 864 128 779 q 479 949 314 949 q 701 886 615 949 q 787 722 787 823 q 592 496 787 564 q 709 406 667 465 q 751 278 751 346 q 649 66 751 154 q 384 -22 547 -22 q 123 46 208 -22 q 37 216 37 113 q 91 368 37 298 q 265 465 144 438 m 491 547 q 593 610 544 566 q 642 708 642 654 q 597 794 642 759 q 469 829 552 829 q 343 793 388 829 q 298 705 298 758 q 345 615 298 651 q 491 547 392 579 m 380 408 q 193 234 193 353 q 243 138 193 175 q 382 102 294 102 q 534 145 483 102 q 585 241 585 189 q 549 321 585 281 q 380 408 513 360 z "},"9":{"ha":814,"x_min":51,"x_max":777,"o":"m 191 212 q 350 104 241 104 q 525 210 457 104 q 614 479 593 316 q 378 330 535 330 q 182 410 260 330 q 104 616 104 490 q 199 853 104 756 q 445 951 293 951 q 680 848 583 951 q 777 557 777 746 q 659 158 777 338 q 342 -22 541 -22 q 153 34 230 -22 q 51 166 76 90 l 191 212 m 427 461 q 555 519 503 461 q 607 654 607 577 q 558 774 607 725 q 441 823 510 823 q 313 766 365 823 q 260 633 260 709 q 308 510 260 559 q 427 461 356 461 z "}," ":{"ha":347,"x_min":0,"x_max":0,"o":""},"!":{"ha":342,"x_min":31,"x_max":336,"o":"m 187 258 l 117 258 l 140 926 l 336 926 l 187 258 m 197 0 l 31 0 l 59 172 l 226 172 l 197 0 z "},"\"":{"ha":521,"x_min":131,"x_max":545,"o":"m 233 558 l 131 558 l 170 926 l 317 926 l 233 558 m 461 558 l 359 558 l 398 926 l 545 926 l 461 558 z "},"#":{"ha":814,"x_min":54,"x_max":804,"o":"m 804 674 l 776 543 l 640 543 l 609 401 l 745 401 l 715 271 l 579 271 l 519 0 l 393 0 l 454 271 l 320 271 l 260 0 l 132 0 l 193 272 l 54 272 l 82 401 l 224 401 l 255 543 l 115 543 l 143 674 l 284 674 l 340 926 l 466 926 l 410 674 l 542 674 l 599 926 l 724 926 l 668 674 l 804 674 m 513 543 l 381 543 l 349 401 l 482 401 l 513 543 z "},"$":{"ha":814,"x_min":36,"x_max":753,"o":"m 361 -104 l 271 -104 l 293 26 q 36 256 92 68 l 164 302 q 313 145 197 170 l 359 419 q 131 661 131 478 q 212 844 131 772 q 413 917 293 917 q 442 916 425 917 l 458 1014 l 548 1014 l 530 903 q 753 722 696 871 l 627 677 q 510 787 589 771 l 470 548 q 607 493 567 516 q 682 414 647 471 q 716 291 716 357 q 629 94 716 174 q 411 14 543 14 q 381 16 398 14 l 361 -104 m 422 797 q 307 762 345 797 q 269 680 269 727 q 384 567 269 596 l 422 797 m 401 132 q 421 132 414 132 q 532 171 488 132 q 576 266 576 210 q 444 394 576 370 l 401 132 z "},"%":{"ha":1039,"x_min":98,"x_max":982,"o":"m 98 656 q 161 853 98 762 q 327 945 224 945 q 460 886 405 945 q 515 722 515 828 q 452 522 515 616 q 283 429 389 429 q 152 491 206 429 q 98 656 98 554 m 214 625 q 237 547 214 571 q 287 523 259 523 q 342 542 319 523 q 382 618 365 562 q 399 741 399 675 q 323 849 399 849 q 241 779 268 849 q 214 625 214 709 m 253 0 l 149 0 l 826 926 l 928 926 l 253 0 m 566 209 q 633 416 566 329 q 794 503 701 503 q 928 438 873 503 q 982 273 982 374 q 917 73 982 161 q 753 -15 851 -15 q 618 46 670 -15 q 566 209 566 108 m 681 194 q 760 81 681 81 q 839 151 812 81 q 865 295 865 222 q 788 407 865 407 q 705 335 730 407 q 681 194 681 264 z "},"&":{"ha":962,"x_min":33,"x_max":967,"o":"m 874 -24 q 829 -26 847 -26 q 723 -6 760 -26 q 639 73 686 14 q 358 -33 523 -33 q 123 51 212 -33 q 33 256 33 134 q 302 550 33 467 q 245 724 245 638 q 309 884 245 814 q 479 953 373 953 q 659 891 591 953 q 726 739 726 830 q 507 503 726 572 l 671 271 q 840 565 798 413 l 967 530 q 747 174 892 306 q 865 109 785 109 q 897 110 876 109 l 874 -24 m 449 600 l 484 615 q 588 733 588 662 q 560 797 588 772 q 489 821 532 821 q 417 791 443 821 q 391 725 391 761 q 449 600 391 668 m 370 449 q 196 260 196 385 q 244 150 196 197 q 368 102 293 102 q 564 174 465 102 l 370 449 z "},"'":{"ha":292,"x_min":131,"x_max":317,"o":"m 233 558 l 131 558 l 170 926 l 317 926 l 233 558 z "},"(":{"ha":408,"x_min":42,"x_max":467,"o":"m 271 -241 l 185 -241 q 42 255 42 7 q 139 633 42 454 q 362 926 237 813 l 467 926 q 247 577 326 768 q 168 201 168 386 q 271 -241 168 -21 z "},")":{"ha":408,"x_min":-60,"x_max":366,"o":"m 136 926 l 222 926 q 366 429 366 679 q 267 48 366 229 q 45 -241 168 -132 l -60 -241 q 160 105 79 -86 q 241 484 241 296 q 136 926 241 704 z "},"*":{"ha":814,"x_min":166,"x_max":758,"o":"m 451 931 l 558 913 l 509 682 l 742 726 l 758 618 l 523 593 l 637 387 l 539 338 l 443 553 l 281 381 l 205 458 l 380 617 l 166 718 l 216 814 l 422 696 l 451 931 z "},"+":{"ha":814,"x_min":85,"x_max":771,"o":"m 771 532 l 771 403 l 492 403 l 492 115 l 363 115 l 363 403 l 85 403 l 85 532 l 363 532 l 363 821 l 492 821 l 492 532 l 771 532 z "},",":{"ha":334,"x_min":-10,"x_max":219,"o":"m 49 -200 l -10 -200 l 105 0 l 28 0 l 57 169 l 219 169 l 193 14 l 49 -200 z "},"-":{"ha":334,"x_min":-9,"x_max":344,"o":"m 323 281 l -9 281 l 12 405 l 344 405 l 323 281 z "},".":{"ha":334,"x_min":28,"x_max":219,"o":"m 191 0 l 28 0 l 57 170 l 219 170 l 191 0 z "},"/":{"ha":604,"x_min":-165,"x_max":660,"o":"m -63 -241 l -165 -241 l 555 926 l 660 926 l -63 -241 z "},":":{"ha":334,"x_min":28,"x_max":291,"o":"m 263 433 l 101 433 l 130 602 l 291 602 l 263 433 m 191 0 l 28 0 l 57 170 l 219 170 l 191 0 z "},";":{"ha":334,"x_min":-10,"x_max":292,"o":"m 263 433 l 101 433 l 130 602 l 292 602 l 263 433 m 49 -200 l -10 -200 l 105 0 l 28 0 l 57 169 l 219 169 l 193 14 l 49 -200 z "},"<":{"ha":814,"x_min":127,"x_max":728,"o":"m 728 828 l 728 672 l 294 462 l 728 252 l 728 96 l 127 396 l 127 529 l 728 828 z "},"=":{"ha":814,"x_min":84,"x_max":770,"o":"m 770 627 l 770 497 l 84 497 l 84 627 l 770 627 m 770 424 l 770 294 l 84 294 l 84 424 l 770 424 z "},">":{"ha":814,"x_min":127,"x_max":728,"o":"m 127 96 l 127 252 l 562 463 l 127 673 l 127 828 l 728 528 l 728 395 l 127 96 z "},"?":{"ha":672,"x_min":82,"x_max":687,"o":"m 376 258 l 248 258 q 288 422 264 382 q 406 523 312 461 q 524 688 524 601 q 487 776 524 741 q 397 810 451 810 q 286 764 333 810 q 220 640 239 718 l 82 693 q 212 881 126 814 q 407 947 298 947 q 610 874 532 947 q 687 691 687 800 q 651 557 687 627 q 493 425 615 486 q 398 351 418 387 q 376 258 379 316 m 358 0 l 192 0 l 220 172 l 387 172 l 358 0 z "},"@":{"ha":1019,"x_min":52,"x_max":1018,"o":"m 791 706 l 740 390 q 733 323 733 348 q 775 281 733 281 q 875 354 828 281 q 922 524 922 426 q 816 765 922 673 q 557 857 709 857 q 277 742 391 857 q 163 461 163 628 q 270 189 163 302 q 564 76 376 76 q 859 156 710 76 l 895 64 q 566 -21 734 -21 q 183 125 315 -21 q 52 457 52 271 q 201 806 52 665 q 557 947 350 947 q 886 829 754 947 q 1018 532 1018 710 q 940 291 1018 395 q 754 186 862 186 q 681 205 715 186 q 633 257 647 224 q 490 184 574 184 q 349 254 406 184 q 292 437 292 323 q 357 637 292 555 q 528 719 421 719 q 667 659 621 719 l 675 706 l 791 706 m 509 295 q 610 353 568 295 q 652 484 652 412 q 621 575 652 545 q 539 606 589 606 q 446 559 478 606 q 413 433 413 512 q 441 331 413 368 q 509 295 469 295 z "},"A":{"ha":837,"x_min":-39,"x_max":780,"o":"m 780 0 l 595 0 l 557 224 l 221 224 l 118 0 l -39 0 l 405 926 l 610 926 l 780 0 m 541 353 l 469 764 l 278 353 l 541 353 z "},"B":{"ha":848,"x_min":45,"x_max":812,"o":"m 45 0 l 199 926 l 524 926 q 668 908 611 926 q 768 833 724 890 q 812 696 812 776 q 639 476 812 531 q 783 267 783 412 q 716 85 783 171 q 456 0 650 0 l 45 0 m 301 543 l 466 543 q 611 586 575 543 q 646 676 646 629 q 490 798 646 798 l 344 798 l 301 543 m 233 136 l 422 136 q 532 149 496 136 q 592 196 568 161 q 616 282 616 231 q 591 361 616 328 q 535 405 566 394 q 448 415 503 415 l 280 415 l 233 136 z "},"C":{"ha":821,"x_min":70,"x_max":838,"o":"m 777 254 q 410 -24 658 -24 q 164 84 259 -24 q 70 380 70 193 q 191 782 70 614 q 503 950 313 950 q 739 864 652 950 q 838 625 825 778 l 687 598 q 500 811 667 811 q 306 651 365 811 q 246 347 246 491 q 296 177 246 234 q 423 120 346 120 q 552 175 494 120 q 641 310 610 231 l 777 254 z "},"D":{"ha":888,"x_min":44,"x_max":854,"o":"m 44 0 l 199 926 l 471 926 q 623 909 565 926 q 734 843 680 892 q 821 710 787 795 q 854 515 854 625 q 806 272 854 385 q 688 98 758 159 q 553 18 618 37 q 364 0 487 0 l 44 0 m 237 140 l 385 140 q 503 159 458 140 q 588 225 547 178 q 654 359 629 272 q 679 540 679 447 q 653 677 679 616 q 579 763 628 738 q 446 789 530 789 l 346 789 l 237 140 z "},"E":{"ha":745,"x_min":44,"x_max":784,"o":"m 646 0 l 44 0 l 199 926 l 784 926 l 760 781 l 340 781 l 300 541 l 648 541 l 625 404 l 277 404 l 234 145 l 670 145 l 646 0 z "},"F":{"ha":690,"x_min":44,"x_max":768,"o":"m 214 0 l 44 0 l 199 926 l 768 926 l 744 781 l 345 781 l 302 530 l 635 530 l 612 393 l 279 393 l 214 0 z "},"G":{"ha":899,"x_min":70,"x_max":859,"o":"m 753 0 l 682 0 l 654 125 q 401 -17 578 -17 q 161 86 253 -17 q 70 382 70 189 q 194 786 70 620 q 521 952 318 952 q 859 678 787 952 l 712 642 q 517 809 665 809 q 321 678 394 809 q 249 378 249 547 q 301 185 249 248 q 443 122 354 122 q 655 340 601 122 l 454 340 l 477 479 l 833 479 l 753 0 z "},"H":{"ha":897,"x_min":44,"x_max":892,"o":"m 738 0 l 572 0 l 639 401 l 277 401 l 210 0 l 44 0 l 199 926 l 365 926 l 301 547 l 663 547 l 727 926 l 892 926 l 738 0 z "},"I":{"ha":375,"x_min":44,"x_max":370,"o":"m 216 0 l 44 0 l 199 926 l 370 926 l 216 0 z "},"J":{"ha":520,"x_min":-58,"x_max":526,"o":"m -58 -2 l -31 136 q 61 131 19 131 q 201 172 166 131 q 254 313 237 212 l 356 926 l 526 926 l 427 340 q 375 137 405 205 q 274 26 345 70 q 85 -17 203 -17 q -58 -2 22 -17 z "},"K":{"ha":857,"x_min":44,"x_max":897,"o":"m 777 0 l 602 0 l 464 465 l 248 229 l 210 0 l 44 0 l 199 926 l 365 926 l 297 522 q 276 425 295 511 q 328 493 300 463 l 719 926 l 897 926 l 593 595 l 777 0 z "},"L":{"ha":678,"x_min":44,"x_max":624,"o":"m 600 0 l 44 0 l 199 926 l 375 926 l 244 145 l 624 145 l 600 0 z "},"M":{"ha":1107,"x_min":45,"x_max":1103,"o":"m 949 0 l 783 0 l 924 843 l 529 0 l 439 0 l 314 836 l 174 0 l 45 0 l 199 926 l 454 926 l 549 304 l 832 926 l 1103 926 l 949 0 z "},"N":{"ha":902,"x_min":44,"x_max":897,"o":"m 742 0 l 610 0 l 294 696 l 178 0 l 44 0 l 199 926 l 370 926 l 659 290 l 765 926 l 897 926 l 742 0 z "},"O":{"ha":898,"x_min":71,"x_max":868,"o":"m 71 394 q 190 780 71 607 q 509 952 309 952 q 772 840 676 952 q 868 533 868 728 q 747 145 868 315 q 424 -25 625 -25 q 174 90 277 -25 q 71 394 71 205 m 246 365 q 300 172 246 229 q 430 114 353 114 q 627 262 564 114 q 690 570 690 411 q 499 813 690 813 q 309 660 372 813 q 246 365 246 507 z "},"P":{"ha":829,"x_min":44,"x_max":850,"o":"m 217 0 l 44 0 l 199 926 l 447 926 q 623 921 568 926 q 732 884 679 916 q 817 794 785 853 q 850 663 850 736 q 797 493 850 567 q 674 395 745 418 q 503 371 604 371 l 279 371 l 217 0 m 349 791 l 302 507 l 467 507 q 588 518 553 507 q 649 567 623 530 q 675 659 675 605 q 652 741 675 709 q 595 782 628 773 q 479 791 563 791 l 349 791 z "},"Q":{"ha":890,"x_min":70,"x_max":857,"o":"m 759 -49 l 744 -189 q 639 -195 705 -195 q 518 -175 559 -195 q 458 -121 477 -155 q 439 -19 439 -87 q 408 -22 422 -22 q 160 92 250 -22 q 70 389 70 205 q 187 774 70 600 q 507 949 304 949 q 765 839 673 949 q 857 527 857 728 q 778 210 857 353 q 567 14 699 67 q 682 -56 568 -56 q 759 -49 722 -56 m 245 353 q 291 179 245 241 q 412 117 336 117 q 618 258 551 117 q 684 553 684 399 q 502 814 684 814 q 313 666 380 814 q 245 353 245 519 z "},"R":{"ha":888,"x_min":44,"x_max":871,"o":"m 765 0 l 588 0 l 490 380 l 273 380 l 210 0 l 44 0 l 199 926 l 547 926 q 713 906 652 926 q 822 821 774 887 q 871 671 871 755 q 817 502 871 580 q 652 399 764 425 l 765 0 m 296 515 l 526 515 q 665 562 631 515 q 699 661 699 609 q 675 738 699 706 q 620 780 652 770 q 524 791 588 791 l 342 791 l 296 515 z "},"S":{"ha":768,"x_min":-11,"x_max":756,"o":"m 756 750 l 604 694 q 428 809 555 809 q 308 773 351 809 q 264 683 264 736 q 294 615 264 642 q 390 570 323 589 l 517 533 q 621 484 572 517 q 695 399 671 450 q 720 292 720 348 q 626 73 720 165 q 351 -20 532 -20 q -11 211 72 -20 l 140 264 q 361 119 195 119 q 503 163 456 119 q 549 262 549 207 q 531 318 549 294 q 488 353 514 341 q 382 388 461 366 q 217 448 271 420 q 128 531 162 477 q 94 660 94 585 q 185 867 94 787 q 435 948 277 948 q 756 750 668 948 z "},"T":{"ha":641,"x_min":73,"x_max":739,"o":"m 714 781 l 479 781 l 348 0 l 178 0 l 309 781 l 73 781 l 98 926 l 739 926 l 714 781 z "},"U":{"ha":840,"x_min":87,"x_max":845,"o":"m 845 926 l 745 328 q 695 145 725 210 q 584 30 665 81 q 392 -21 504 -21 q 256 2 322 -21 q 139 89 190 25 q 87 259 87 152 q 100 390 87 313 l 190 926 l 361 926 l 269 381 q 254 263 254 293 q 302 155 254 189 q 414 122 351 122 q 511 144 469 122 q 577 210 553 165 q 619 368 600 255 l 712 926 l 845 926 z "},"V":{"ha":755,"x_min":89,"x_max":849,"o":"m 429 0 l 244 0 l 89 926 l 263 926 l 380 194 l 701 926 l 849 926 l 429 0 z "},"W":{"ha":1208,"x_min":100,"x_max":1292,"o":"m 903 -7 l 736 -7 l 655 690 l 370 -7 l 209 -7 l 100 926 l 279 926 l 341 227 l 625 926 l 790 926 l 864 227 l 1145 926 l 1292 926 l 903 -7 z "},"X":{"ha":767,"x_min":-58,"x_max":832,"o":"m 709 0 l 527 0 l 379 354 l 112 0 l -58 0 l 314 481 l 121 926 l 304 926 l 434 616 l 666 926 l 832 926 l 496 494 l 709 0 z "},"Y":{"ha":720,"x_min":58,"x_max":836,"o":"m 402 0 l 228 0 l 293 390 l 58 926 l 248 926 l 412 526 l 675 926 l 836 926 l 466 382 l 402 0 z "},"Z":{"ha":730,"x_min":-30,"x_max":788,"o":"m 650 0 l -30 0 l -7 136 l 551 781 l 115 781 l 139 926 l 788 926 l 770 810 l 193 145 l 674 145 l 650 0 z "},"[":{"ha":408,"x_min":-4,"x_max":452,"o":"m 270 -165 l 257 -241 l -4 -241 l 191 926 l 452 926 l 439 850 l 292 850 l 123 -165 l 270 -165 z "},"\\":{"ha":604,"x_min":139,"x_max":563,"o":"m 471 -241 l 139 926 l 233 926 l 563 -241 l 471 -241 z "},"]":{"ha":408,"x_min":-45,"x_max":411,"o":"m 137 850 l 150 926 l 411 926 l 216 -241 l -45 -241 l -33 -165 l 115 -165 l 286 850 l 137 850 z "},"^":{"ha":694,"x_min":35,"x_max":700,"o":"m 200 477 l 35 477 l 264 930 l 471 930 l 700 477 l 534 477 l 367 805 l 200 477 z "},"_":{"ha":694,"x_min":20,"x_max":714,"o":"m 20 -73 l 714 -73 l 714 -214 l 20 -214 l 20 -73 z "},"`":{"ha":694,"x_min":244,"x_max":530,"o":"m 298 1008 l 530 860 l 497 787 l 244 920 l 298 1008 z "},"a":{"ha":744,"x_min":22,"x_max":672,"o":"m 608 0 l 458 0 q 456 30 456 18 q 469 149 456 79 q 371 27 435 71 q 231 -18 307 -18 q 80 40 138 -18 q 22 181 22 97 q 126 366 22 297 q 450 434 229 434 q 516 431 478 434 q 521 481 521 463 q 483 565 521 536 q 387 593 444 593 q 228 498 278 593 l 92 541 q 394 709 178 709 q 597 650 523 709 q 672 495 672 592 q 640 277 672 454 q 605 40 605 90 q 608 0 605 22 m 503 352 q 256 305 326 342 q 187 196 187 268 q 215 129 187 155 q 291 102 243 102 q 419 163 360 102 q 503 352 478 224 z "},"b":{"ha":736,"x_min":35,"x_max":696,"o":"m 105 0 l 35 0 l 190 926 l 342 926 l 283 572 q 492 717 371 717 q 641 639 585 717 q 696 437 696 561 q 610 132 696 277 q 373 -13 524 -13 q 170 117 231 -13 l 105 0 m 365 115 q 495 220 448 115 q 542 433 542 324 q 433 589 542 589 q 292 482 347 589 q 237 259 237 376 q 276 154 237 192 q 365 115 315 115 z "},"c":{"ha":664,"x_min":48,"x_max":650,"o":"m 616 205 q 323 -15 518 -15 q 125 67 201 -15 q 48 296 48 149 q 142 587 48 463 q 379 710 237 710 q 559 647 487 710 q 650 469 631 585 l 521 444 q 386 580 494 580 q 256 489 306 580 q 205 279 205 398 q 243 152 205 189 q 334 114 281 114 q 488 250 435 114 l 616 205 z "},"d":{"ha":743,"x_min":44,"x_max":748,"o":"m 593 0 l 445 0 l 469 142 q 250 -16 385 -16 q 101 59 157 -16 q 44 267 44 133 q 130 582 44 450 q 349 713 216 713 q 537 576 492 713 l 596 926 l 748 926 l 593 0 m 312 109 q 452 207 400 109 q 505 423 505 306 q 470 541 505 496 q 377 585 435 585 q 244 483 289 585 q 199 256 199 381 q 312 109 199 109 z "},"e":{"ha":724,"x_min":47,"x_max":677,"o":"m 639 195 q 338 -17 544 -17 q 124 66 202 -17 q 47 288 47 150 q 145 586 47 465 q 397 707 243 707 q 606 620 535 707 q 677 381 677 532 q 675 327 677 356 l 201 327 q 196 275 196 298 q 234 150 196 197 q 340 102 271 102 q 503 231 448 102 l 639 195 m 533 425 q 397 600 533 600 q 217 425 257 600 l 533 425 z "},"f":{"ha":437,"x_min":56,"x_max":552,"o":"m 208 0 l 56 0 l 151 564 l 56 564 l 77 690 l 172 690 q 267 895 199 832 q 455 958 335 958 q 552 949 517 958 l 538 823 q 469 831 506 831 q 326 690 338 831 l 474 690 l 452 564 l 302 564 l 208 0 z "},"g":{"ha":705,"x_min":-19,"x_max":732,"o":"m 91 65 q 33 172 33 105 q 59 261 33 222 q 168 340 86 299 q 90 481 90 396 q 172 647 90 587 q 398 707 254 707 q 484 696 449 707 q 564 833 517 798 q 686 868 612 868 q 732 865 707 868 l 731 747 q 680 750 694 750 q 608 738 644 750 q 552 671 572 726 q 658 507 658 618 q 582 347 658 410 q 365 284 506 284 q 231 304 305 284 q 169 220 169 273 q 191 174 169 191 q 279 157 212 157 l 361 157 q 537 137 481 157 q 625 74 593 117 q 656 -20 656 30 q 574 -176 656 -106 q 286 -246 492 -246 q -19 -84 -19 -246 q 9 4 -19 -28 q 91 65 38 36 m 364 375 q 467 411 430 375 q 503 507 503 446 q 391 609 503 609 q 287 573 325 609 q 249 479 249 538 q 364 375 249 375 m 159 31 q 115 -42 115 -6 q 165 -117 115 -87 q 315 -146 215 -146 q 510 -42 510 -146 q 479 8 510 -1 q 324 18 449 18 q 159 31 194 18 z "},"h":{"ha":747,"x_min":35,"x_max":680,"o":"m 597 0 l 446 0 l 513 408 q 526 495 526 479 q 437 586 526 586 q 322 535 377 586 q 244 340 268 484 l 187 0 l 35 0 l 190 926 l 342 926 l 283 570 q 494 710 368 710 q 626 665 572 710 q 680 524 680 621 q 665 408 680 496 l 597 0 z "},"i":{"ha":345,"x_min":35,"x_max":351,"o":"m 323 770 l 164 770 l 192 935 l 351 935 l 323 770 m 195 0 l 35 0 l 151 690 l 310 690 l 195 0 z "},"j":{"ha":345,"x_min":-185,"x_max":351,"o":"m 323 772 l 164 772 l 192 935 l 351 935 l 323 772 m 310 690 l 205 61 q 158 -126 184 -66 q 72 -223 133 -186 q -81 -260 12 -260 q -185 -252 -136 -260 l -176 -122 q -101 -131 -136 -131 q 0 -96 -25 -131 q 41 35 25 -60 l 151 690 l 310 690 z "},"k":{"ha":753,"x_min":35,"x_max":758,"o":"m 686 0 l 522 0 l 402 368 l 220 199 l 187 0 l 35 0 l 190 926 l 342 926 l 249 368 l 596 690 l 758 690 l 524 472 l 686 0 z "},"l":{"ha":345,"x_min":35,"x_max":349,"o":"m 195 0 l 35 0 l 190 926 l 349 926 l 195 0 z "},"m":{"ha":1184,"x_min":35,"x_max":1116,"o":"m 1034 0 l 875 0 l 945 417 q 954 489 954 468 q 857 581 954 581 q 658 302 705 581 l 606 0 l 455 0 l 522 401 q 534 497 534 471 q 449 583 534 583 q 324 518 382 583 q 230 238 266 454 l 190 0 l 35 0 l 151 690 l 302 690 l 277 536 q 369 664 307 616 q 500 711 431 711 q 680 549 659 711 q 924 711 779 711 q 1061 660 1006 711 q 1116 526 1116 608 q 1100 391 1116 486 l 1034 0 z "},"n":{"ha":746,"x_min":35,"x_max":677,"o":"m 596 0 l 444 0 l 515 414 q 522 494 522 461 q 501 558 522 532 q 436 585 479 585 q 314 514 367 585 q 239 311 261 444 l 187 0 l 35 0 l 151 690 l 292 690 l 264 529 q 384 679 329 650 q 491 709 439 709 q 622 657 566 709 q 677 515 677 606 q 663 400 677 479 l 596 0 z "},"o":{"ha":729,"x_min":48,"x_max":682,"o":"m 343 -18 q 195 16 267 -18 q 86 124 123 50 q 48 299 48 197 q 145 584 48 464 q 399 705 242 705 q 605 618 528 705 q 682 386 682 532 q 590 109 682 236 q 343 -18 498 -18 m 345 106 q 480 202 437 106 q 524 401 524 297 q 385 581 524 581 q 246 478 288 581 q 204 274 204 376 q 245 147 204 188 q 345 106 286 106 z "},"p":{"ha":734,"x_min":-5,"x_max":694,"o":"m 146 -241 l -5 -241 l 151 690 l 286 690 l 262 547 q 477 713 348 713 q 634 634 574 713 q 694 422 694 555 q 613 118 694 256 q 399 -20 531 -20 q 207 122 258 -20 l 146 -241 m 371 104 q 493 204 450 104 q 536 410 536 304 q 428 589 536 589 q 291 491 346 589 q 235 277 235 394 q 275 148 235 191 q 371 104 315 104 z "},"q":{"ha":736,"x_min":45,"x_max":705,"o":"m 546 -241 l 394 -241 l 454 119 q 255 -20 374 -20 q 99 55 154 -20 q 45 263 45 130 q 139 579 45 450 q 364 709 234 709 q 568 584 493 709 l 627 690 l 705 690 q 678 553 688 613 l 546 -241 m 307 104 q 447 213 395 104 q 499 430 499 321 q 488 510 499 481 q 448 559 477 538 q 377 581 419 581 q 244 475 290 581 q 199 252 199 369 q 307 104 199 104 z "},"r":{"ha":482,"x_min":35,"x_max":516,"o":"m 187 0 l 35 0 l 151 690 l 290 690 l 259 502 q 498 709 348 709 q 516 708 504 709 l 496 538 q 463 540 474 540 q 356 510 406 540 q 278 430 307 480 q 231 264 250 379 l 187 0 z "},"s":{"ha":636,"x_min":-25,"x_max":614,"o":"m 120 203 q 283 100 160 100 q 381 125 345 100 q 416 190 416 151 q 392 236 416 219 q 311 269 368 253 q 173 317 218 295 q 98 383 128 338 q 67 486 67 428 q 136 643 67 576 q 329 709 204 709 q 614 547 532 709 l 483 505 q 333 595 437 595 q 254 573 286 595 q 221 515 221 551 q 237 472 221 489 q 301 441 253 455 q 464 385 411 409 q 548 316 517 361 q 579 214 579 272 q 504 51 579 117 q 282 -15 429 -15 q -25 168 47 -15 l 120 203 z "},"t":{"ha":446,"x_min":42,"x_max":463,"o":"m 358 -1 q 261 -12 290 -12 q 121 32 165 -12 q 77 136 77 75 q 92 260 77 168 l 144 566 l 42 566 l 63 690 l 167 690 l 208 876 l 347 885 l 314 690 l 463 690 l 442 566 l 293 566 l 241 258 q 232 185 232 201 q 330 119 232 119 q 379 124 350 119 l 358 -1 z "},"u":{"ha":734,"x_min":66,"x_max":700,"o":"m 585 0 l 444 0 l 469 151 q 235 -13 381 -13 q 110 39 153 -13 q 66 155 66 92 q 84 292 66 189 l 151 690 l 302 690 l 231 262 q 221 189 221 203 q 242 136 221 156 q 297 117 263 117 q 393 155 344 117 q 462 246 441 194 q 499 398 482 298 l 548 690 l 700 690 l 585 0 z "},"v":{"ha":621,"x_min":54,"x_max":670,"o":"m 342 0 l 200 0 l 54 690 l 220 690 l 311 207 l 536 690 l 670 690 l 342 0 z "},"w":{"ha":971,"x_min":62,"x_max":1015,"o":"m 699 0 l 557 0 l 505 490 l 305 0 l 165 0 l 62 690 l 219 690 l 281 213 l 481 690 l 618 690 l 668 214 l 881 690 l 1015 690 l 699 0 z "},"x":{"ha":635,"x_min":-65,"x_max":660,"o":"m 590 0 l 416 0 l 294 264 l 85 0 l -65 0 l 235 366 l 73 690 l 249 690 l 345 477 l 511 690 l 660 690 l 404 379 l 590 0 z "},"y":{"ha":633,"x_min":-39,"x_max":681,"o":"m -39 -245 l -32 -113 q 59 -119 7 -119 q 139 -99 107 -119 q 196 -24 170 -79 l 222 31 l 53 690 l 216 690 l 320 215 l 548 690 l 681 690 l 327 -24 q 251 -161 277 -123 q 174 -225 224 -199 q 43 -251 123 -251 q -39 -245 5 -251 z "},"z":{"ha":585,"x_min":-23,"x_max":600,"o":"m 496 0 l -23 0 l -4 124 l 383 570 l 90 570 l 110 690 l 600 690 l 582 583 l 186 124 l 516 124 l 496 0 z "},"{":{"ha":408,"x_min":22,"x_max":462,"o":"m 146 342 q 208 229 208 307 q 203 180 208 214 l 164 -50 q 159 -100 159 -83 q 179 -146 159 -130 q 280 -163 199 -163 l 267 -240 l 206 -241 q 76 -209 118 -241 q 35 -100 35 -178 q 41 -44 35 -79 l 79 188 q 84 230 84 216 q 22 311 84 296 l 34 382 q 131 496 115 398 l 172 739 q 244 883 189 840 q 406 926 299 926 q 462 925 425 926 l 449 848 q 336 826 364 848 q 296 739 307 804 l 256 503 q 146 342 236 380 z "},"|":{"ha":694,"x_min":288,"x_max":446,"o":"m 288 926 l 446 926 l 446 -231 l 288 -231 l 288 926 z "},"}":{"ha":408,"x_min":-55,"x_max":385,"o":"m 262 343 q 199 456 199 378 q 204 505 199 471 l 243 735 q 248 785 248 768 q 228 832 248 816 q 127 848 207 848 l 140 925 l 201 926 q 333 892 294 926 q 372 787 372 857 q 367 729 372 765 l 328 497 q 323 456 323 470 q 385 375 323 389 l 374 303 q 276 189 292 287 l 235 -54 q 163 -198 218 -155 q 1 -241 108 -241 q -55 -239 -18 -241 l -42 -163 q 71 -141 43 -163 q 111 -53 100 -119 l 151 183 q 262 343 171 304 z "},"~":{"ha":814,"x_min":91,"x_max":764,"o":"m 178 334 l 91 391 q 182 536 134 497 q 295 575 230 575 q 443 536 343 575 q 567 500 534 500 q 674 578 632 500 l 764 525 q 548 348 688 348 q 381 397 509 348 q 284 423 313 423 q 178 334 220 423 z "},"Ä":{"ha":837,"x_min":-39,"x_max":780,"o":"m 780 0 l 595 0 l 557 224 l 221 224 l 118 0 l -39 0 l 405 926 l 610 926 l 780 0 m 541 353 l 469 764 l 278 353 l 541 353 m 414 1025 q 360 1047 381 1025 q 338 1098 338 1068 q 359 1151 338 1128 q 414 1173 380 1173 q 468 1153 445 1173 q 491 1099 491 1133 q 468 1045 491 1065 q 414 1025 446 1025 m 641 1025 q 586 1047 608 1025 q 565 1098 565 1069 q 586 1151 565 1128 q 641 1173 608 1173 q 695 1153 671 1173 q 718 1099 718 1133 q 695 1045 718 1065 q 641 1025 673 1025 z "},"Å":{"ha":837,"x_min":-39,"x_max":780,"o":"m 780 0 l 595 0 l 557 224 l 221 224 l 118 0 l -39 0 l 405 926 l 610 926 l 780 0 m 541 353 l 469 764 l 278 353 l 541 353 m 528 986 q 439 1023 475 986 q 402 1112 402 1059 q 439 1201 402 1164 q 528 1238 476 1238 q 614 1205 574 1238 q 654 1109 654 1172 q 617 1023 654 1061 q 528 986 581 986 m 528 1057 q 570 1074 557 1057 q 584 1109 584 1091 q 569 1152 584 1135 q 531 1168 555 1168 q 490 1154 508 1168 q 473 1112 473 1139 q 487 1073 473 1090 q 528 1057 501 1057 z "},"Ç":{"ha":821,"x_min":70,"x_max":838,"o":"m 397 -24 l 376 -68 q 515 -160 515 -68 q 470 -252 515 -212 q 355 -293 426 -293 q 209 -252 291 -293 l 241 -196 q 347 -231 313 -231 q 399 -214 379 -231 q 419 -174 419 -197 q 326 -121 419 -121 q 288 -123 315 -121 l 338 -18 q 139 119 208 9 q 70 380 70 229 q 191 782 70 614 q 503 950 313 950 q 739 864 652 950 q 838 625 825 778 l 687 598 q 500 811 667 811 q 306 651 365 811 q 246 347 246 491 q 296 177 246 234 q 423 120 346 120 q 552 175 494 120 q 641 310 610 231 l 777 254 q 397 -24 656 -28 z "},"É":{"ha":745,"x_min":44,"x_max":784,"o":"m 646 0 l 44 0 l 199 926 l 784 926 l 760 781 l 340 781 l 300 541 l 648 541 l 625 404 l 277 404 l 234 145 l 670 145 l 646 0 m 692 1221 l 737 1128 l 454 1000 l 426 1072 l 692 1221 z "},"Ñ":{"ha":902,"x_min":44,"x_max":897,"o":"m 742 0 l 610 0 l 294 696 l 178 0 l 44 0 l 199 926 l 370 926 l 659 290 l 765 926 l 897 926 l 742 0 m 777 1174 l 812 1107 q 669 1027 752 1027 q 568 1059 627 1027 q 500 1085 522 1085 q 405 1031 468 1085 l 370 1096 q 517 1179 447 1179 q 606 1152 555 1179 q 688 1124 661 1124 q 777 1174 731 1124 z "},"Ö":{"ha":898,"x_min":71,"x_max":868,"o":"m 71 394 q 190 780 71 607 q 509 952 309 952 q 772 840 676 952 q 868 533 868 728 q 747 145 868 315 q 424 -25 625 -25 q 174 90 277 -25 q 71 394 71 205 m 246 365 q 300 172 246 229 q 430 114 353 114 q 627 262 564 114 q 690 570 690 411 q 499 813 690 813 q 309 660 372 813 q 246 365 246 507 m 457 1025 q 403 1047 425 1025 q 382 1098 382 1068 q 403 1151 382 1128 q 457 1173 424 1173 q 511 1153 488 1173 q 534 1099 534 1133 q 512 1045 534 1065 q 457 1025 489 1025 m 684 1025 q 630 1047 651 1025 q 608 1098 608 1069 q 630 1151 608 1128 q 684 1173 651 1173 q 738 1153 715 1173 q 762 1099 762 1133 q 739 1045 762 1065 q 684 1025 716 1025 z "},"Ü":{"ha":840,"x_min":87,"x_max":845,"o":"m 845 926 l 745 328 q 695 145 725 210 q 584 30 665 81 q 392 -21 504 -21 q 256 2 322 -21 q 139 89 190 25 q 87 259 87 152 q 100 390 87 313 l 190 926 l 361 926 l 269 381 q 254 263 254 293 q 302 155 254 189 q 414 122 351 122 q 511 144 469 122 q 577 210 553 165 q 619 368 600 255 l 712 926 l 845 926 m 435 1025 q 381 1047 402 1025 q 359 1098 359 1068 q 380 1151 359 1128 q 435 1173 401 1173 q 489 1153 466 1173 q 512 1099 512 1133 q 489 1045 512 1065 q 435 1025 467 1025 m 662 1025 q 607 1047 629 1025 q 586 1098 586 1069 q 607 1151 586 1128 q 662 1173 629 1173 q 716 1153 692 1173 q 739 1099 739 1133 q 716 1045 739 1065 q 662 1025 694 1025 z "},"á":{"ha":744,"x_min":22,"x_max":672,"o":"m 608 0 l 458 0 q 456 30 456 18 q 469 149 456 79 q 371 27 435 71 q 231 -18 307 -18 q 80 40 138 -18 q 22 181 22 97 q 126 366 22 297 q 450 434 229 434 q 516 431 478 434 q 521 481 521 463 q 483 565 521 536 q 387 593 444 593 q 228 498 278 593 l 92 541 q 394 709 178 709 q 597 650 523 709 q 672 495 672 592 q 640 277 672 454 q 605 40 605 90 q 608 0 605 22 m 503 352 q 256 305 326 342 q 187 196 187 268 q 215 129 187 155 q 291 102 243 102 q 419 163 360 102 q 503 352 478 224 m 579 1008 l 624 916 l 341 787 l 313 860 l 579 1008 z "},"à":{"ha":744,"x_min":22,"x_max":672,"o":"m 608 0 l 458 0 q 456 30 456 18 q 469 149 456 79 q 371 27 435 71 q 231 -18 307 -18 q 80 40 138 -18 q 22 181 22 97 q 126 366 22 297 q 450 434 229 434 q 516 431 478 434 q 521 481 521 463 q 483 565 521 536 q 387 593 444 593 q 228 498 278 593 l 92 541 q 394 709 178 709 q 597 650 523 709 q 672 495 672 592 q 640 277 672 454 q 605 40 605 90 q 608 0 605 22 m 503 352 q 256 305 326 342 q 187 196 187 268 q 215 129 187 155 q 291 102 243 102 q 419 163 360 102 q 503 352 478 224 m 298 1008 l 530 860 l 497 787 l 244 920 l 298 1008 z "},"â":{"ha":744,"x_min":22,"x_max":672,"o":"m 608 0 l 458 0 q 456 30 456 18 q 469 149 456 79 q 371 27 435 71 q 231 -18 307 -18 q 80 40 138 -18 q 22 181 22 97 q 126 366 22 297 q 450 434 229 434 q 516 431 478 434 q 521 481 521 463 q 483 565 521 536 q 387 593 444 593 q 228 498 278 593 l 92 541 q 394 709 178 709 q 597 650 523 709 q 672 495 672 592 q 640 277 672 454 q 605 40 605 90 q 608 0 605 22 m 503 352 q 256 305 326 342 q 187 196 187 268 q 215 129 187 155 q 291 102 243 102 q 419 163 360 102 q 503 352 478 224 m 475 1001 l 669 806 l 549 791 l 460 881 l 322 791 l 202 806 l 475 1001 z "},"ä":{"ha":744,"x_min":22,"x_max":672,"o":"m 608 0 l 458 0 q 456 30 456 18 q 469 149 456 79 q 371 27 435 71 q 231 -18 307 -18 q 80 40 138 -18 q 22 181 22 97 q 126 366 22 297 q 450 434 229 434 q 516 431 478 434 q 521 481 521 463 q 483 565 521 536 q 387 593 444 593 q 228 498 278 593 l 92 541 q 394 709 178 709 q 597 650 523 709 q 672 495 672 592 q 640 277 672 454 q 605 40 605 90 q 608 0 605 22 m 503 352 q 256 305 326 342 q 187 196 187 268 q 215 129 187 155 q 291 102 243 102 q 419 163 360 102 q 503 352 478 224 m 339 806 q 285 827 307 806 q 264 878 264 848 q 285 931 264 908 q 339 954 306 954 q 393 933 370 954 q 416 879 416 913 q 394 825 416 845 q 339 806 371 806 m 566 806 q 512 827 533 806 q 490 878 490 849 q 512 931 490 908 q 566 954 533 954 q 620 933 597 954 q 644 879 644 913 q 621 825 644 845 q 566 806 598 806 z "},"ã":{"ha":744,"x_min":22,"x_max":673,"o":"m 608 0 l 458 0 q 456 30 456 18 q 469 149 456 79 q 371 27 435 71 q 231 -18 307 -18 q 80 40 138 -18 q 22 181 22 97 q 126 366 22 297 q 450 434 229 434 q 516 431 478 434 q 521 481 521 463 q 483 565 521 536 q 387 593 444 593 q 228 498 278 593 l 92 541 q 394 709 178 709 q 597 650 523 709 q 672 495 672 592 q 640 277 672 454 q 605 40 605 90 q 608 0 605 22 m 503 352 q 256 305 326 342 q 187 196 187 268 q 215 129 187 155 q 291 102 243 102 q 419 163 360 102 q 503 352 478 224 m 638 961 l 673 894 q 530 814 614 814 q 430 846 489 814 q 361 872 383 872 q 267 818 330 872 l 231 883 q 379 966 309 966 q 467 939 417 966 q 550 911 522 911 q 638 961 593 911 z "},"å":{"ha":744,"x_min":22,"x_max":672,"o":"m 608 0 l 458 0 q 456 30 456 18 q 469 149 456 79 q 371 27 435 71 q 231 -18 307 -18 q 80 40 138 -18 q 22 181 22 97 q 126 366 22 297 q 450 434 229 434 q 516 431 478 434 q 521 481 521 463 q 483 565 521 536 q 387 593 444 593 q 228 498 278 593 l 92 541 q 394 709 178 709 q 597 650 523 709 q 672 495 672 592 q 640 277 672 454 q 605 40 605 90 q 608 0 605 22 m 503 352 q 256 305 326 342 q 187 196 187 268 q 215 129 187 155 q 291 102 243 102 q 419 163 360 102 q 503 352 478 224 m 458 768 q 369 805 406 768 q 332 894 332 842 q 369 983 332 946 q 458 1021 406 1021 q 544 987 505 1021 q 584 892 584 954 q 548 806 584 843 q 458 768 511 768 m 458 839 q 500 856 487 839 q 514 892 514 873 q 499 934 514 918 q 461 950 485 950 q 420 936 438 950 q 403 895 403 922 q 417 856 403 872 q 458 839 431 839 z "},"ç":{"ha":664,"x_min":48,"x_max":650,"o":"m 616 205 q 323 -15 518 -15 q 125 67 201 -15 q 48 296 48 149 q 142 587 48 463 q 379 710 237 710 q 559 647 487 710 q 650 469 631 585 l 521 444 q 386 580 494 580 q 256 489 306 580 q 205 279 205 398 q 243 152 205 189 q 334 114 281 114 q 488 250 435 114 l 616 205 m 322 0 l 294 -63 q 377 -87 342 -63 q 412 -154 412 -112 q 370 -236 412 -198 q 267 -273 328 -273 q 140 -233 222 -273 l 171 -180 q 265 -211 222 -211 q 323 -166 323 -211 q 210 -116 323 -116 l 267 0 l 322 0 z "},"é":{"ha":724,"x_min":47,"x_max":677,"o":"m 639 195 q 338 -17 544 -17 q 124 66 202 -17 q 47 288 47 150 q 145 586 47 465 q 397 707 243 707 q 606 620 535 707 q 677 381 677 532 q 675 327 677 356 l 201 327 q 196 275 196 298 q 234 150 196 197 q 340 102 271 102 q 503 231 448 102 l 639 195 m 533 425 q 397 600 533 600 q 217 425 257 600 l 533 425 m 579 1008 l 624 916 l 341 787 l 313 860 l 579 1008 z "},"è":{"ha":724,"x_min":47,"x_max":677,"o":"m 639 195 q 338 -17 544 -17 q 124 66 202 -17 q 47 288 47 150 q 145 586 47 465 q 397 707 243 707 q 606 620 535 707 q 677 381 677 532 q 675 327 677 356 l 201 327 q 196 275 196 298 q 234 150 196 197 q 340 102 271 102 q 503 231 448 102 l 639 195 m 533 425 q 397 600 533 600 q 217 425 257 600 l 533 425 m 298 1008 l 530 860 l 497 787 l 244 920 l 298 1008 z "},"ê":{"ha":724,"x_min":47,"x_max":677,"o":"m 639 195 q 338 -17 544 -17 q 124 66 202 -17 q 47 288 47 150 q 145 586 47 465 q 397 707 243 707 q 606 620 535 707 q 677 381 677 532 q 675 327 677 356 l 201 327 q 196 275 196 298 q 234 150 196 197 q 340 102 271 102 q 503 231 448 102 l 639 195 m 533 425 q 397 600 533 600 q 217 425 257 600 l 533 425 m 471 1001 l 665 806 l 545 791 l 456 881 l 318 791 l 198 806 l 471 1001 z "},"ë":{"ha":724,"x_min":47,"x_max":677,"o":"m 639 195 q 338 -17 544 -17 q 124 66 202 -17 q 47 288 47 150 q 145 586 47 465 q 397 707 243 707 q 606 620 535 707 q 677 381 677 532 q 675 327 677 356 l 201 327 q 196 275 196 298 q 234 150 196 197 q 340 102 271 102 q 503 231 448 102 l 639 195 m 533 425 q 397 600 533 600 q 217 425 257 600 l 533 425 m 336 806 q 282 827 303 806 q 260 878 260 848 q 281 931 260 908 q 336 954 302 954 q 390 933 367 954 q 413 879 413 913 q 390 825 413 845 q 336 806 368 806 m 563 806 q 508 827 530 806 q 487 878 487 849 q 508 931 487 908 q 563 954 530 954 q 617 933 593 954 q 640 879 640 913 q 617 825 640 845 q 563 806 595 806 z "},"í":{"ha":345,"x_min":35,"x_max":460,"o":"m 195 0 l 35 0 l 151 690 l 310 690 l 195 0 m 416 1008 l 460 916 l 178 787 l 149 860 l 416 1008 z "},"ì":{"ha":345,"x_min":35,"x_max":351,"o":"m 195 0 l 35 0 l 151 690 l 310 690 l 195 0 m 118 1008 l 351 860 l 317 787 l 64 920 l 118 1008 z "},"î":{"ha":345,"x_min":35,"x_max":503,"o":"m 195 0 l 35 0 l 151 690 l 310 690 l 195 0 m 309 1001 l 503 806 l 382 791 l 293 881 l 155 791 l 35 806 l 309 1001 z "},"ï":{"ha":345,"x_min":35,"x_max":472,"o":"m 195 0 l 35 0 l 151 690 l 310 690 l 195 0 m 168 806 q 114 827 135 806 q 92 878 92 848 q 113 931 92 908 q 168 954 134 954 q 222 933 199 954 q 245 879 245 913 q 222 825 245 845 q 168 806 199 806 m 395 806 q 340 827 361 806 q 319 878 319 849 q 340 931 319 908 q 395 954 361 954 q 449 933 425 954 q 472 879 472 913 q 449 825 472 845 q 395 806 427 806 z "},"ñ":{"ha":746,"x_min":35,"x_max":677,"o":"m 596 0 l 444 0 l 515 414 q 522 494 522 461 q 501 558 522 532 q 436 585 479 585 q 314 514 367 585 q 239 311 261 444 l 187 0 l 35 0 l 151 690 l 292 690 l 264 529 q 384 679 329 650 q 491 709 439 709 q 622 657 566 709 q 677 515 677 606 q 663 400 677 479 l 596 0 m 641 961 l 676 894 q 533 814 616 814 q 433 846 492 814 q 364 872 386 872 q 269 818 332 872 l 234 883 q 382 966 311 966 q 470 939 420 966 q 553 911 525 911 q 641 961 595 911 z "},"ó":{"ha":729,"x_min":48,"x_max":682,"o":"m 343 -18 q 195 16 267 -18 q 86 124 123 50 q 48 299 48 197 q 145 584 48 464 q 399 705 242 705 q 605 618 528 705 q 682 386 682 532 q 590 109 682 236 q 343 -18 498 -18 m 345 106 q 480 202 437 106 q 524 401 524 297 q 385 581 524 581 q 246 478 288 581 q 204 274 204 376 q 245 147 204 188 q 345 106 286 106 m 610 1008 l 655 916 l 372 787 l 344 860 l 610 1008 z "},"ò":{"ha":729,"x_min":48,"x_max":682,"o":"m 343 -18 q 195 16 267 -18 q 86 124 123 50 q 48 299 48 197 q 145 584 48 464 q 399 705 242 705 q 605 618 528 705 q 682 386 682 532 q 590 109 682 236 q 343 -18 498 -18 m 345 106 q 480 202 437 106 q 524 401 524 297 q 385 581 524 581 q 246 478 288 581 q 204 274 204 376 q 245 147 204 188 q 345 106 286 106 m 317 1008 l 550 860 l 517 787 l 264 920 l 317 1008 z "},"ô":{"ha":729,"x_min":48,"x_max":682,"o":"m 343 -18 q 195 16 267 -18 q 86 124 123 50 q 48 299 48 197 q 145 584 48 464 q 399 705 242 705 q 605 618 528 705 q 682 386 682 532 q 590 109 682 236 q 343 -18 498 -18 m 345 106 q 480 202 437 106 q 524 401 524 297 q 385 581 524 581 q 246 478 288 581 q 204 274 204 376 q 245 147 204 188 q 345 106 286 106 m 477 1001 l 671 806 l 550 791 l 461 881 l 323 791 l 203 806 l 477 1001 z "},"ö":{"ha":729,"x_min":48,"x_max":682,"o":"m 343 -18 q 195 16 267 -18 q 86 124 123 50 q 48 299 48 197 q 145 584 48 464 q 399 705 242 705 q 605 618 528 705 q 682 386 682 532 q 590 109 682 236 q 343 -18 498 -18 m 345 106 q 480 202 437 106 q 524 401 524 297 q 385 581 524 581 q 246 478 288 581 q 204 274 204 376 q 245 147 204 188 q 345 106 286 106 m 334 806 q 280 827 301 806 q 258 878 258 848 q 279 931 258 908 q 334 954 300 954 q 388 933 365 954 q 411 879 411 913 q 388 825 411 845 q 334 806 366 806 m 561 806 q 506 827 528 806 q 485 878 485 849 q 506 931 485 908 q 561 954 528 954 q 615 933 591 954 q 638 879 638 913 q 615 825 638 845 q 561 806 593 806 z "},"õ":{"ha":729,"x_min":48,"x_max":682,"o":"m 343 -18 q 195 16 267 -18 q 86 124 123 50 q 48 299 48 197 q 145 584 48 464 q 399 705 242 705 q 605 618 528 705 q 682 386 682 532 q 590 109 682 236 q 343 -18 498 -18 m 345 106 q 480 202 437 106 q 524 401 524 297 q 385 581 524 581 q 246 478 288 581 q 204 274 204 376 q 245 147 204 188 q 345 106 286 106 m 643 961 l 678 894 q 535 814 618 814 q 435 846 494 814 q 366 872 388 872 q 271 818 334 872 l 236 883 q 384 966 313 966 q 472 939 422 966 q 555 911 527 911 q 643 961 597 911 z "},"ú":{"ha":734,"x_min":66,"x_max":700,"o":"m 585 0 l 444 0 l 469 151 q 235 -13 381 -13 q 110 39 153 -13 q 66 155 66 92 q 84 292 66 189 l 151 690 l 302 690 l 231 262 q 221 189 221 203 q 242 136 221 156 q 297 117 263 117 q 393 155 344 117 q 462 246 441 194 q 499 398 482 298 l 548 690 l 700 690 l 585 0 m 614 1008 l 659 916 l 376 787 l 348 860 l 614 1008 z "},"ù":{"ha":734,"x_min":66,"x_max":700,"o":"m 585 0 l 444 0 l 469 151 q 235 -13 381 -13 q 110 39 153 -13 q 66 155 66 92 q 84 292 66 189 l 151 690 l 302 690 l 231 262 q 221 189 221 203 q 242 136 221 156 q 297 117 263 117 q 393 155 344 117 q 462 246 441 194 q 499 398 482 298 l 548 690 l 700 690 l 585 0 m 321 1008 l 554 860 l 521 787 l 268 920 l 321 1008 z "},"û":{"ha":734,"x_min":66,"x_max":700,"o":"m 585 0 l 444 0 l 469 151 q 235 -13 381 -13 q 110 39 153 -13 q 66 155 66 92 q 84 292 66 189 l 151 690 l 302 690 l 231 262 q 221 189 221 203 q 242 136 221 156 q 297 117 263 117 q 393 155 344 117 q 462 246 441 194 q 499 398 482 298 l 548 690 l 700 690 l 585 0 m 488 1001 l 682 806 l 561 791 l 472 881 l 334 791 l 214 806 l 488 1001 z "},"ü":{"ha":734,"x_min":66,"x_max":700,"o":"m 585 0 l 444 0 l 469 151 q 235 -13 381 -13 q 110 39 153 -13 q 66 155 66 92 q 84 292 66 189 l 151 690 l 302 690 l 231 262 q 221 189 221 203 q 242 136 221 156 q 297 117 263 117 q 393 155 344 117 q 462 246 441 194 q 499 398 482 298 l 548 690 l 700 690 l 585 0 m 338 806 q 284 827 305 806 q 262 878 262 848 q 283 931 262 908 q 338 954 304 954 q 392 933 369 954 q 415 879 415 913 q 392 825 415 845 q 338 806 370 806 m 565 806 q 510 827 532 806 q 489 878 489 849 q 510 931 489 908 q 565 954 532 954 q 619 933 595 954 q 642 879 642 913 q 620 825 642 845 q 565 806 597 806 z "},"†":{"ha":814,"x_min":119,"x_max":785,"o":"m 431 926 l 579 926 l 536 671 l 785 671 l 764 543 l 515 543 l 384 -241 l 236 -241 l 367 543 l 119 543 l 140 671 l 389 671 l 431 926 z "},"°":{"ha":814,"x_min":292,"x_max":662,"o":"m 477 945 q 609 890 555 945 q 662 760 662 835 q 608 629 662 684 q 477 574 554 574 q 345 630 398 574 q 292 760 292 686 q 344 888 292 832 q 477 945 396 945 m 477 852 q 412 824 438 852 q 385 760 385 796 q 411 695 385 724 q 477 667 437 667 q 543 694 515 667 q 570 760 570 722 q 543 824 570 797 q 477 852 517 852 z "},"¢":{"ha":814,"x_min":163,"x_max":715,"o":"m 673 325 q 421 149 593 150 l 385 -71 l 308 -71 l 346 158 q 163 424 163 207 q 243 675 163 574 q 451 785 323 777 l 480 960 l 557 960 l 527 779 q 715 578 680 747 l 595 553 q 509 671 585 657 l 439 252 q 580 369 526 253 l 673 325 m 435 673 q 333 584 366 663 q 300 413 300 505 q 367 267 300 300 l 435 673 z "},"£":{"ha":814,"x_min":-61,"x_max":800,"o":"m 800 214 q 660 51 750 102 q 429 0 570 0 l -61 0 l -35 156 q 109 180 68 159 q 171 231 149 201 q 206 296 193 262 q 221 438 220 330 l 111 438 l 131 558 l 225 558 q 224 591 224 579 q 320 866 224 769 q 556 963 416 963 q 793 792 731 963 l 653 731 q 539 835 627 835 q 461 808 496 835 q 411 740 427 782 q 395 582 395 697 l 395 558 l 571 558 l 551 438 l 388 438 q 239 155 372 235 l 422 155 q 590 185 538 155 q 666 288 642 216 l 800 214 z "},"§":{"ha":814,"x_min":11,"x_max":787,"o":"m 11 -48 l 165 -22 q 355 -134 212 -134 q 462 -102 422 -134 q 501 -26 501 -69 q 471 40 501 14 q 366 97 441 67 q 213 164 251 143 q 150 228 175 186 q 124 326 124 270 q 272 555 124 469 q 210 688 210 597 q 295 865 210 795 q 507 935 380 935 q 665 898 589 935 q 787 770 741 861 l 659 732 q 496 829 614 829 q 398 801 439 829 q 356 733 356 774 q 376 685 356 703 q 468 638 397 667 q 641 556 601 584 q 702 489 682 529 q 723 398 723 450 q 595 176 723 267 q 667 24 667 127 q 581 -171 667 -91 q 344 -250 494 -250 q 11 -48 98 -250 m 353 506 q 267 391 267 448 q 291 334 267 362 q 416 262 315 305 q 503 224 457 245 q 583 345 583 286 q 549 411 583 384 q 417 477 514 439 q 353 506 381 492 z "},"•":{"ha":926,"x_min":295,"x_max":677,"o":"m 677 472 q 621 335 677 393 q 486 278 565 278 q 350 335 406 278 q 295 472 295 393 q 351 609 295 552 q 486 666 407 666 q 621 609 565 666 q 677 472 677 552 z "},"¶":{"ha":814,"x_min":123,"x_max":853,"o":"m 853 926 l 840 848 l 748 848 l 568 -227 l 490 -227 l 670 848 l 594 848 l 414 -227 l 334 -227 l 452 477 l 401 477 q 236 491 286 477 q 155 548 186 505 q 123 658 123 591 q 170 816 123 751 q 282 903 217 881 q 479 926 347 926 l 853 926 m 465 555 l 514 848 l 475 848 q 332 830 366 848 q 277 767 297 812 q 256 680 256 722 q 290 582 256 609 q 410 555 323 555 l 465 555 z "},"ß":{"ha":779,"x_min":40,"x_max":761,"o":"m 199 -34 l 40 -34 l 134 531 l 57 531 l 78 656 l 155 656 q 275 926 178 838 q 506 1014 371 1014 q 692 954 623 1014 q 761 811 761 895 q 708 681 761 743 q 493 596 655 618 q 465 574 465 592 q 478 551 465 559 q 549 516 492 542 q 703 401 666 464 q 741 273 741 338 q 657 72 741 161 q 434 -18 574 -18 q 273 16 356 -18 l 314 129 q 431 106 378 106 q 545 141 501 106 q 589 225 589 175 q 569 287 589 257 q 470 361 548 317 q 366 441 388 406 q 344 513 344 476 q 366 599 344 557 q 413 657 389 642 q 502 690 437 672 q 604 800 604 719 q 574 872 604 843 q 494 902 545 902 q 389 861 435 902 q 315 656 342 821 l 199 -34 z "},"®":{"ha":1074,"x_min":76,"x_max":1038,"o":"m 1038 463 q 897 122 1038 264 q 558 -20 755 -20 q 218 122 359 -20 q 76 463 76 264 q 217 804 76 662 q 559 945 359 945 q 897 804 757 945 q 1038 463 1038 662 m 951 463 q 836 749 951 629 q 559 868 720 868 q 278 749 394 868 q 162 463 162 630 q 278 176 162 295 q 557 58 395 58 q 835 176 719 58 q 951 463 951 295 m 746 185 l 634 185 l 581 409 l 473 409 l 435 185 l 330 185 l 422 741 l 623 741 q 720 728 684 741 q 781 676 755 715 q 808 587 808 636 q 777 486 808 535 q 685 422 747 437 l 746 185 m 488 498 l 608 498 q 699 579 699 498 q 676 635 699 619 q 608 652 654 652 l 513 652 l 488 498 z "},"©":{"ha":1074,"x_min":76,"x_max":1038,"o":"m 1038 463 q 897 122 1038 264 q 558 -20 755 -20 q 218 122 359 -20 q 76 463 76 264 q 217 804 76 662 q 559 945 359 945 q 897 804 757 945 q 1038 463 1038 662 m 951 463 q 836 749 951 629 q 559 868 720 868 q 278 749 394 868 q 162 463 162 630 q 278 176 162 295 q 557 58 395 58 q 835 176 719 58 q 951 463 951 295 m 766 342 q 531 171 692 171 q 373 237 433 171 q 312 419 312 304 q 388 655 312 556 q 586 755 464 755 q 738 701 682 755 q 802 555 794 648 l 694 537 q 583 664 682 664 q 506 631 538 664 q 455 527 475 599 q 436 396 436 454 q 465 299 436 333 q 541 265 493 265 q 669 380 623 265 l 766 342 z "},"™":{"ha":1067,"x_min":75,"x_max":1109,"o":"m 481 836 l 338 836 l 264 398 l 146 398 l 218 836 l 75 836 l 90 926 l 496 926 l 481 836 m 1021 398 l 905 398 l 977 829 l 764 398 l 696 398 l 621 827 l 549 398 l 455 398 l 543 926 l 711 926 l 772 596 l 930 926 l 1109 926 l 1021 398 z "},"´":{"ha":694,"x_min":313,"x_max":624,"o":"m 579 1008 l 624 916 l 341 787 l 313 860 l 579 1008 z "},"¨":{"ha":694,"x_min":248,"x_max":627,"o":"m 323 806 q 269 827 290 806 q 248 878 248 848 q 269 931 248 908 q 323 954 290 954 q 377 933 354 954 q 400 879 400 913 q 377 825 400 845 q 323 806 355 806 m 550 806 q 495 827 517 806 q 474 878 474 849 q 495 931 474 908 q 550 954 517 954 q 604 933 581 954 q 627 879 627 913 q 605 825 627 845 q 550 806 582 806 z "},"≠":{"ha":814,"x_min":126,"x_max":728,"o":"m 448 642 l 524 793 l 625 743 l 574 642 l 728 642 l 728 500 l 509 500 l 458 397 l 728 397 l 728 256 l 394 256 l 324 116 l 223 165 l 268 256 l 126 256 l 126 397 l 332 397 l 384 500 l 126 500 l 126 642 l 448 642 z "},"Æ":{"ha":1164,"x_min":-81,"x_max":1203,"o":"m 1065 0 l 451 0 l 491 238 l 227 238 l 75 0 l -81 0 l 526 926 l 1203 926 l 1179 781 l 747 781 l 707 540 l 1067 540 l 1044 404 l 684 404 l 642 145 l 1090 145 l 1065 0 m 512 364 l 583 789 l 309 364 l 512 364 z "},"Ø":{"ha":898,"x_min":-15,"x_max":946,"o":"m 197 64 l 119 -21 l -15 -21 l 128 150 q 71 393 71 258 q 191 778 71 604 q 509 952 311 952 q 743 869 651 952 l 812 943 l 946 943 l 812 785 q 869 538 869 672 q 745 142 869 309 q 427 -25 622 -25 q 197 64 300 -25 m 638 758 q 499 813 586 813 q 310 660 374 813 q 246 344 246 507 q 252 284 246 321 l 638 758 m 297 174 q 434 114 351 114 q 626 257 561 114 q 691 577 691 400 q 684 650 691 610 l 297 174 z "},"∞":{"ha":990,"x_min":82,"x_max":866,"o":"m 445 564 q 572 693 524 665 q 671 722 619 722 q 806 668 745 722 q 866 504 866 615 q 803 327 866 377 q 671 276 740 276 q 570 305 618 276 q 445 434 523 334 q 250 317 353 317 q 128 374 174 317 q 82 498 82 430 q 128 624 82 568 q 250 680 174 680 q 445 564 353 680 m 492 500 q 569 400 524 448 q 669 352 614 352 q 753 386 715 352 q 791 497 791 420 q 755 606 791 568 q 667 645 720 645 q 593 618 629 645 q 492 500 558 591 m 398 498 q 249 606 315 606 q 182 576 208 606 q 157 501 157 547 q 184 424 157 453 q 250 395 211 395 q 398 498 318 395 z "},"±":{"ha":814,"x_min":57,"x_max":743,"o":"m 743 532 l 743 403 l 465 403 l 465 115 l 336 115 l 336 403 l 57 403 l 57 532 l 336 532 l 336 821 l 465 821 l 465 532 l 743 532 m 743 69 l 743 -60 l 57 -60 l 57 69 l 743 69 z "},"≤":{"ha":814,"x_min":127,"x_max":728,"o":"m 728 904 l 728 757 l 294 553 l 728 351 l 728 203 l 127 488 l 127 620 l 728 904 m 728 163 l 728 22 l 127 22 l 127 163 l 728 163 z "},"≥":{"ha":814,"x_min":127,"x_max":728,"o":"m 127 203 l 127 351 l 562 554 l 127 757 l 127 904 l 728 620 l 728 487 l 127 203 m 127 22 l 127 163 l 728 163 l 728 22 l 127 22 z "},"¥":{"ha":814,"x_min":75,"x_max":869,"o":"m 126 588 l 274 588 l 136 926 l 309 926 l 465 526 l 724 926 l 869 926 l 647 588 l 812 588 l 798 505 l 593 505 l 512 382 l 509 368 l 775 368 l 762 284 l 496 284 l 448 0 l 290 0 l 337 284 l 75 284 l 90 368 l 351 368 l 355 390 l 309 505 l 112 505 l 126 588 z "},"µ":{"ha":814,"x_min":23,"x_max":753,"o":"m 23 -241 l 179 690 l 331 690 l 269 318 q 258 226 258 257 q 288 140 258 174 q 364 106 317 106 q 467 145 418 106 q 538 318 516 185 l 601 690 l 753 690 l 637 0 l 509 0 l 528 107 q 351 -18 454 -18 q 230 86 258 -18 l 175 -241 l 23 -241 z "},"∂":{"ha":686,"x_min":-4,"x_max":618,"o":"m 247 772 l 155 812 q 266 963 199 914 q 399 1011 334 1011 q 559 917 500 1011 q 618 628 618 822 q 495 156 618 332 q 203 -19 372 -19 q 54 43 112 -19 q -4 217 -4 106 q 130 507 -4 392 q 540 627 263 623 q 501 860 538 796 q 401 924 464 924 q 247 772 304 924 m 537 540 q 292 492 370 532 q 165 370 213 453 q 118 205 118 287 q 154 111 118 146 q 233 76 191 76 q 422 191 331 76 q 537 540 514 306 z "},"∑":{"ha":990,"x_min":62,"x_max":919,"o":"m 73 1042 l 912 1042 l 912 930 l 242 930 l 654 391 l 216 -180 l 919 -180 l 919 -289 l 62 -289 l 62 -162 l 482 386 l 73 922 l 73 1042 z "},"∏":{"ha":1143,"x_min":88,"x_max":1012,"o":"m 88 1042 l 1012 1042 l 1012 -289 l 882 -289 l 882 924 l 219 924 l 219 -289 l 88 -289 l 88 1042 z "},"∫":{"ha":380,"x_min":0,"x_max":380,"o":"m 295 1263 q 356 1240 332 1263 q 380 1191 380 1217 q 362 1141 380 1161 q 317 1120 345 1120 q 266 1145 294 1120 q 239 1158 250 1158 q 212 1115 212 1158 q 218 1017 212 1086 q 243 566 243 739 q 235 247 243 520 q 182 -88 227 -26 q 80 -149 138 -149 q 23 -127 47 -149 q 0 -67 0 -105 q 17 -19 0 -38 q 61 0 33 0 q 109 -22 88 0 q 141 -43 127 -43 q 168 -2 168 -43 q 161 79 168 26 q 136 643 136 294 q 174 1153 136 1042 q 295 1263 212 1263 z "},"ª":{"ha":489,"x_min":88,"x_max":504,"o":"m 467 523 l 359 523 q 358 538 358 531 q 359 564 358 543 q 360 581 359 569 q 224 513 311 513 q 124 550 159 513 q 88 634 88 588 q 155 747 88 706 q 353 788 222 788 q 393 787 367 788 q 396 810 396 800 q 319 873 396 873 q 225 814 256 873 l 128 844 q 324 950 185 950 q 455 914 406 950 q 504 819 504 878 q 485 690 504 794 q 465 553 465 583 q 467 523 465 541 m 384 730 q 241 703 277 723 q 205 644 205 683 q 263 593 205 593 q 336 627 303 593 q 384 730 370 661 z "},"º":{"ha":479,"x_min":104,"x_max":511,"o":"m 294 515 q 160 561 216 515 q 104 709 104 606 q 166 879 104 808 q 327 950 228 950 q 461 896 412 950 q 511 762 511 842 q 451 588 511 661 q 294 515 391 515 m 296 597 q 373 651 348 597 q 398 770 398 704 q 318 867 398 867 q 239 808 262 867 q 216 693 216 749 q 296 597 216 597 z "},"Ω":{"ha":1067,"x_min":-10,"x_max":970,"o":"m 255 109 q 75 454 75 226 q 219 856 75 692 q 590 1019 363 1019 q 869 909 768 1019 q 970 626 970 800 q 893 328 970 465 q 672 109 816 191 l 920 113 l 904 0 l 514 0 l 530 121 q 746 314 665 179 q 827 612 827 448 q 759 831 827 753 q 574 909 692 909 q 316 773 416 909 q 216 448 216 637 q 398 121 216 208 l 381 0 l -10 0 l 5 113 l 255 109 z "},"æ":{"ha":1152,"x_min":22,"x_max":1107,"o":"m 1065 190 q 762 -17 966 -17 q 507 146 574 -17 q 237 -18 400 -18 q 82 38 142 -18 q 22 182 22 94 q 450 433 22 433 q 513 431 477 433 q 519 473 519 455 q 384 593 519 593 q 228 499 277 593 l 94 542 q 393 707 184 707 q 613 621 545 707 q 827 707 695 707 q 1030 623 953 707 q 1107 400 1107 540 q 1102 326 1107 368 l 627 326 q 622 274 622 297 q 661 149 622 195 q 768 103 700 103 q 930 229 876 103 l 1065 190 m 963 424 l 963 439 q 930 549 963 501 q 823 597 897 597 q 704 544 751 597 q 646 424 657 490 l 963 424 m 500 351 q 259 309 335 343 q 184 197 184 275 q 214 127 184 151 q 290 102 243 102 q 421 168 363 102 q 500 351 479 233 z "},"ø":{"ha":729,"x_min":1,"x_max":724,"o":"m 153 40 l 102 -20 l 1 -20 l 99 99 q 48 298 48 184 q 144 584 48 462 q 393 705 240 705 q 572 648 502 705 l 625 707 l 724 707 l 626 593 q 683 395 683 509 q 586 105 683 227 q 339 -18 489 -18 q 153 40 237 -18 m 477 549 q 384 581 443 581 q 248 480 291 581 q 204 267 204 378 q 210 216 204 243 l 477 549 m 245 146 q 341 106 287 106 q 479 201 434 106 q 524 412 524 296 q 516 477 524 445 l 245 146 z "},"¿":{"ha":673,"x_min":-14,"x_max":591,"o":"m 315 685 l 481 685 l 452 513 l 286 513 l 315 685 m 296 427 l 425 427 q 382 260 408 298 q 267 162 357 222 q 149 -3 149 84 q 185 -90 149 -56 q 276 -125 222 -125 q 387 -78 340 -125 q 453 45 434 -32 l 591 -8 q 461 -195 547 -127 q 266 -262 375 -262 q 63 -189 140 -262 q -14 -5 -14 -115 q 22 129 -14 58 q 180 260 58 199 q 274 334 255 299 q 296 427 294 370 z "},"¡":{"ha":342,"x_min":6,"x_max":312,"o":"m 155 428 l 226 428 l 203 -240 l 6 -240 l 155 428 m 145 686 l 312 686 l 283 514 l 117 514 l 145 686 z "},"¬":{"ha":814,"x_min":127,"x_max":728,"o":"m 571 0 l 571 229 l 127 229 l 127 370 l 728 370 l 728 0 l 571 0 z "},"√":{"ha":762,"x_min":55,"x_max":760,"o":"m 710 1267 l 760 1267 l 549 -53 l 212 640 l 78 578 l 55 621 l 259 724 l 534 165 l 710 1267 z "},"ƒ":{"ha":814,"x_min":-43,"x_max":843,"o":"m -43 -178 l 2 -54 l 19 -54 q 57 -55 42 -55 q 129 -40 102 -55 q 170 2 155 -24 q 210 100 185 29 l 400 646 l 301 646 l 339 770 l 444 770 q 569 983 490 929 q 765 1037 649 1037 q 843 1031 802 1037 l 798 901 q 757 903 775 903 q 659 883 696 903 q 593 770 622 864 l 740 770 l 695 646 l 552 646 l 362 100 q 316 -17 335 22 q 254 -99 296 -56 q 157 -164 212 -142 q 32 -186 102 -186 q -43 -178 -8 -186 z "},"≈":{"ha":814,"x_min":91,"x_max":764,"o":"m 178 474 l 91 531 q 183 676 136 638 q 296 715 231 715 q 443 675 343 715 q 566 640 534 640 q 674 717 632 640 l 764 665 q 548 488 688 488 q 381 536 509 488 q 284 562 313 562 q 178 474 220 562 m 178 206 l 91 263 q 184 410 136 372 q 296 447 231 447 q 443 408 343 447 q 567 372 534 372 q 674 450 632 372 l 764 397 q 547 220 687 220 q 381 269 509 220 q 284 295 313 295 q 178 206 220 295 z "},"∆":{"ha":850,"x_min":18,"x_max":831,"o":"m 831 0 l 18 0 l 444 941 l 831 0 m 671 56 l 401 711 l 102 56 l 671 56 z "},"«":{"ha":458,"x_min":52,"x_max":430,"o":"m 365 152 l 304 152 l 220 350 l 358 541 l 430 541 l 326 346 l 365 152 m 195 152 l 136 152 l 52 347 l 189 541 l 260 541 l 156 343 l 195 152 z "},"»":{"ha":457,"x_min":28,"x_max":406,"o":"m 93 541 l 153 541 l 237 342 l 100 152 l 28 152 l 133 347 l 93 541 m 263 541 l 323 541 l 406 345 l 269 152 l 198 152 l 302 349 l 263 541 z "},"…":{"ha":1013,"x_min":31,"x_max":896,"o":"m 193 0 l 31 0 l 59 170 l 221 170 l 193 0 m 530 0 l 368 0 l 397 170 l 558 170 l 530 0 m 867 0 l 705 0 l 734 170 l 896 170 l 867 0 z "}," ":{"ha":347,"x_min":0,"x_max":0,"o":""},"À":{"ha":837,"x_min":-39,"x_max":780,"o":"m 780 0 l 595 0 l 557 224 l 221 224 l 118 0 l -39 0 l 405 926 l 610 926 l 780 0 m 541 353 l 469 764 l 278 353 l 541 353 m 367 1221 l 600 1072 l 566 1000 l 313 1133 l 367 1221 z "},"Ã":{"ha":837,"x_min":-39,"x_max":780,"o":"m 780 0 l 595 0 l 557 224 l 221 224 l 118 0 l -39 0 l 405 926 l 610 926 l 780 0 m 541 353 l 469 764 l 278 353 l 541 353 m 723 1174 l 758 1107 q 615 1027 699 1027 q 515 1059 574 1027 q 446 1085 468 1085 q 351 1031 414 1085 l 316 1096 q 464 1179 393 1179 q 552 1152 502 1179 q 635 1124 607 1124 q 723 1174 677 1124 z "},"Õ":{"ha":898,"x_min":71,"x_max":868,"o":"m 71 394 q 190 780 71 607 q 509 952 309 952 q 772 840 676 952 q 868 533 868 728 q 747 145 868 315 q 424 -25 625 -25 q 174 90 277 -25 q 71 394 71 205 m 246 365 q 300 172 246 229 q 430 114 353 114 q 627 262 564 114 q 690 570 690 411 q 499 813 690 813 q 309 660 372 813 q 246 365 246 507 m 766 1174 l 801 1107 q 658 1027 741 1027 q 557 1059 616 1027 q 489 1085 511 1085 q 394 1031 457 1085 l 359 1096 q 507 1179 436 1179 q 595 1152 545 1179 q 677 1124 650 1124 q 766 1174 720 1124 z "},"Œ":{"ha":1198,"x_min":73,"x_max":1235,"o":"m 1099 0 l 557 0 q 417 -22 483 -22 q 169 93 265 -22 q 73 397 73 208 q 198 791 73 634 q 503 949 323 949 q 650 928 576 949 l 1235 928 l 1211 783 l 804 783 l 763 535 l 1101 535 l 1078 399 l 741 399 l 698 145 l 1123 145 l 1099 0 m 637 772 q 509 814 577 814 q 318 672 387 814 q 250 365 250 530 q 296 181 250 246 q 432 117 343 117 q 532 148 488 117 l 637 772 z "},"œ":{"ha":1158,"x_min":47,"x_max":1112,"o":"m 1075 195 q 772 -18 979 -18 q 556 79 635 -18 q 334 -23 469 -23 q 126 62 205 -23 q 47 298 47 146 q 143 577 47 454 q 392 701 240 701 q 605 608 517 701 q 840 707 703 707 q 1033 627 954 707 q 1112 395 1112 548 q 1109 327 1112 367 l 642 327 q 637 273 637 294 q 677 145 637 188 q 781 103 718 103 q 940 231 888 103 l 1075 195 m 971 424 q 832 596 966 596 q 659 424 703 596 l 971 424 m 339 101 q 477 199 434 101 q 520 406 520 297 q 483 533 520 489 q 385 576 446 576 q 251 484 297 576 q 205 272 205 392 q 238 148 205 195 q 339 101 271 101 z "},"–":{"ha":814,"x_min":117,"x_max":698,"o":"m 677 281 l 117 281 l 138 405 l 698 405 l 677 281 z "},"—":{"ha":926,"x_min":-47,"x_max":972,"o":"m 951 281 l -47 281 l -26 405 l 972 405 l 951 281 z "},"“":{"ha":513,"x_min":130,"x_max":532,"o":"m 282 926 l 336 926 l 233 743 l 298 743 l 273 591 l 130 591 l 153 732 l 282 926 m 477 926 l 532 926 l 428 743 l 492 743 l 467 591 l 327 591 l 351 732 l 477 926 z "},"”":{"ha":513,"x_min":120,"x_max":522,"o":"m 370 591 l 316 591 l 418 773 l 353 773 l 379 926 l 522 926 l 498 784 l 370 591 m 175 591 l 120 591 l 224 773 l 160 773 l 185 926 l 326 926 l 302 785 l 175 591 z "},"‘":{"ha":334,"x_min":136,"x_max":338,"o":"m 283 926 l 338 926 l 235 751 l 309 751 l 283 600 l 136 600 l 160 741 l 283 926 z "},"’":{"ha":334,"x_min":136,"x_max":338,"o":"m 191 600 l 136 600 l 239 776 l 165 776 l 191 926 l 338 926 l 315 786 l 191 600 z "},"÷":{"ha":814,"x_min":85,"x_max":771,"o":"m 510 703 q 486 644 510 668 q 427 619 461 619 q 368 643 393 619 q 344 703 344 667 q 368 761 344 736 q 427 785 393 785 q 486 761 461 785 q 510 703 510 736 m 771 532 l 771 403 l 85 403 l 85 532 l 771 532 m 510 231 q 486 172 510 197 q 427 148 461 148 q 368 172 393 148 q 344 231 344 197 q 368 290 344 265 q 427 314 393 314 q 486 290 461 314 q 510 231 510 265 z "},"◊":{"ha":686,"x_min":10,"x_max":634,"o":"m 351 964 l 634 481 l 351 0 l 275 0 l 10 481 l 275 964 l 351 964 m 314 899 l 83 481 l 314 64 l 557 481 l 314 899 z "},"ÿ":{"ha":633,"x_min":-39,"x_max":681,"o":"m -39 -245 l -32 -113 q 59 -119 7 -119 q 139 -99 107 -119 q 196 -24 170 -79 l 222 31 l 53 690 l 216 690 l 320 215 l 548 690 l 681 690 l 327 -24 q 251 -161 277 -123 q 174 -225 224 -199 q 43 -251 123 -251 q -39 -245 5 -251 m 290 806 q 236 827 258 806 q 215 878 215 848 q 236 931 215 908 q 290 954 257 954 q 345 933 321 954 q 368 879 368 913 q 345 825 368 845 q 290 806 322 806 m 517 806 q 463 827 484 806 q 441 878 441 849 q 463 931 441 908 q 517 954 484 954 q 571 933 548 954 q 595 879 595 913 q 572 825 595 845 q 517 806 549 806 z "},"Ÿ":{"ha":720,"x_min":58,"x_max":836,"o":"m 402 0 l 228 0 l 293 390 l 58 926 l 248 926 l 412 526 l 675 926 l 836 926 l 466 382 l 402 0 m 369 1025 q 315 1047 336 1025 q 294 1098 294 1068 q 315 1151 294 1128 q 369 1173 336 1173 q 423 1153 400 1173 q 446 1099 446 1133 q 424 1045 446 1065 q 369 1025 401 1025 m 596 1025 q 542 1047 563 1025 q 520 1098 520 1069 q 542 1151 520 1128 q 596 1173 563 1173 q 650 1153 627 1173 q 673 1099 673 1133 q 651 1045 673 1065 q 596 1025 628 1025 z "},"∕":{"ha":296,"x_min":-222,"x_max":557,"o":"m -118 0 l -222 0 l 455 926 l 557 926 l -118 0 z "},"€":{"ha":814,"x_min":28,"x_max":842,"o":"m 842 663 l 684 646 q 525 822 677 822 q 394 760 452 822 q 307 593 336 697 l 515 593 l 504 510 l 288 510 q 275 419 280 469 l 493 419 l 481 336 l 271 336 q 315 169 273 229 q 433 109 357 109 q 558 160 500 109 q 636 290 616 212 l 790 273 q 428 -25 705 -25 q 191 75 277 -25 q 104 336 104 174 l 28 336 l 39 419 l 109 419 q 119 510 109 445 l 52 510 l 62 593 l 138 593 q 292 853 186 757 q 532 950 397 950 q 754 875 671 950 q 842 663 838 800 z "},"‹":{"ha":289,"x_min":52,"x_max":262,"o":"m 197 152 l 136 152 l 52 350 l 189 541 l 262 541 l 157 346 l 197 152 z "},"›":{"ha":288,"x_min":28,"x_max":237,"o":"m 93 541 l 153 541 l 237 342 l 100 152 l 28 152 l 133 347 l 93 541 z "},"ﬁ":{"ha":749,"x_min":56,"x_max":754,"o":"m 220 0 l 56 0 l 151 566 l 64 566 l 84 690 l 177 690 q 293 912 224 865 q 467 960 361 960 q 547 954 503 960 l 525 825 q 472 830 490 830 q 395 808 431 830 q 338 690 359 786 l 484 690 l 462 566 l 312 566 l 220 0 m 727 764 l 568 764 l 595 930 l 754 930 l 727 764 m 599 0 l 439 0 l 555 690 l 714 690 l 599 0 z "},"ﬂ":{"ha":748,"x_min":56,"x_max":753,"o":"m 220 0 l 56 0 l 151 566 l 65 566 l 83 690 l 177 690 q 277 899 213 838 q 470 960 342 960 q 545 954 506 960 l 524 827 q 467 831 486 831 q 394 808 429 831 q 338 690 359 785 l 484 690 l 463 566 l 313 566 l 220 0 m 598 0 l 439 0 l 594 930 l 753 930 l 598 0 z "},"‡":{"ha":814,"x_min":34,"x_max":785,"o":"m 431 926 l 578 926 l 536 671 l 785 671 l 763 543 l 515 543 l 452 165 l 700 165 l 679 37 l 430 37 l 383 -241 l 236 -241 l 282 37 l 34 37 l 55 165 l 304 165 l 367 543 l 119 543 l 140 671 l 388 671 l 431 926 z "},"∙":{"ha":191,"x_min":0,"x_max":191,"o":"m 162 258 l 0 258 l 28 428 l 191 428 l 162 258 z "},"‚":{"ha":334,"x_min":7,"x_max":209,"o":"m 61 -175 l 7 -175 l 110 0 l 36 0 l 61 151 l 209 151 l 185 10 l 61 -175 z "},"„":{"ha":513,"x_min":-9,"x_max":393,"o":"m 240 -183 l 186 -183 l 289 0 l 224 0 l 250 153 l 393 153 l 369 11 l 240 -183 m 45 -183 l -9 -183 l 95 0 l 31 0 l 56 153 l 197 153 l 173 12 l 45 -183 z "},"‰":{"ha":1511,"x_min":98,"x_max":1454,"o":"m 98 656 q 161 853 98 762 q 327 945 224 945 q 460 886 405 945 q 515 722 515 828 q 452 522 515 616 q 283 429 389 429 q 152 491 206 429 q 98 656 98 554 m 214 625 q 237 547 214 571 q 287 523 259 523 q 342 542 319 523 q 382 618 365 562 q 399 741 399 675 q 323 849 399 849 q 241 779 268 849 q 214 625 214 709 m 253 0 l 149 0 l 826 926 l 928 926 l 253 0 m 1038 209 q 1105 415 1038 328 q 1267 503 1173 503 q 1400 439 1345 503 q 1454 273 1454 375 q 1389 73 1454 161 q 1225 -15 1323 -15 q 1090 46 1142 -15 q 1038 209 1038 108 m 1153 193 q 1232 81 1153 81 q 1311 151 1284 81 q 1337 296 1337 221 q 1260 407 1337 407 q 1178 335 1202 407 q 1153 193 1153 264 m 566 209 q 633 416 566 329 q 794 503 701 503 q 928 438 873 503 q 982 273 982 374 q 917 73 982 161 q 753 -15 851 -15 q 618 46 670 -15 q 566 209 566 108 m 681 194 q 760 81 681 81 q 839 151 812 81 q 865 295 865 222 q 788 407 865 407 q 705 335 730 407 q 681 194 681 264 z "},"Â":{"ha":837,"x_min":-39,"x_max":780,"o":"m 780 0 l 595 0 l 557 224 l 221 224 l 118 0 l -39 0 l 405 926 l 610 926 l 780 0 m 541 353 l 469 764 l 278 353 l 541 353 m 557 1214 l 751 1019 l 630 1004 l 541 1094 l 404 1004 l 283 1019 l 557 1214 z "},"Ê":{"ha":745,"x_min":44,"x_max":784,"o":"m 646 0 l 44 0 l 199 926 l 784 926 l 760 781 l 340 781 l 300 541 l 648 541 l 625 404 l 277 404 l 234 145 l 670 145 l 646 0 m 549 1214 l 743 1019 l 622 1004 l 533 1094 l 395 1004 l 275 1019 l 549 1214 z "},"Á":{"ha":837,"x_min":-39,"x_max":780,"o":"m 780 0 l 595 0 l 557 224 l 221 224 l 118 0 l -39 0 l 405 926 l 610 926 l 780 0 m 541 353 l 469 764 l 278 353 l 541 353 m 707 1221 l 751 1128 l 469 1000 l 440 1072 l 707 1221 z "},"Ë":{"ha":745,"x_min":44,"x_max":784,"o":"m 646 0 l 44 0 l 199 926 l 784 926 l 760 781 l 340 781 l 300 541 l 648 541 l 625 404 l 277 404 l 234 145 l 670 145 l 646 0 m 399 1025 q 346 1047 367 1025 q 324 1098 324 1068 q 345 1151 324 1128 q 399 1173 366 1173 q 454 1153 431 1173 q 477 1099 477 1133 q 454 1045 477 1065 q 399 1025 431 1025 m 627 1025 q 572 1047 593 1025 q 551 1098 551 1069 q 572 1151 551 1128 q 627 1173 593 1173 q 681 1153 657 1173 q 704 1099 704 1133 q 681 1045 704 1065 q 627 1025 659 1025 z "},"È":{"ha":745,"x_min":44,"x_max":784,"o":"m 646 0 l 44 0 l 199 926 l 784 926 l 760 781 l 340 781 l 300 541 l 648 541 l 625 404 l 277 404 l 234 145 l 670 145 l 646 0 m 376 1221 l 608 1072 l 575 1000 l 322 1133 l 376 1221 z "},"Í":{"ha":375,"x_min":44,"x_max":526,"o":"m 216 0 l 44 0 l 199 926 l 370 926 l 216 0 m 481 1221 l 526 1128 l 243 1000 l 214 1072 l 481 1221 z "},"Î":{"ha":375,"x_min":44,"x_max":533,"o":"m 216 0 l 44 0 l 199 926 l 370 926 l 216 0 m 339 1214 l 533 1019 l 412 1004 l 323 1094 l 186 1004 l 66 1019 l 339 1214 z "},"Ï":{"ha":375,"x_min":44,"x_max":522,"o":"m 216 0 l 44 0 l 199 926 l 370 926 l 216 0 m 218 1025 q 164 1047 185 1025 q 142 1098 142 1068 q 163 1151 142 1128 q 218 1173 184 1173 q 272 1153 249 1173 q 295 1099 295 1133 q 272 1045 295 1065 q 218 1025 250 1025 m 445 1025 q 390 1047 412 1025 q 369 1098 369 1069 q 390 1151 369 1128 q 445 1173 412 1173 q 499 1153 475 1173 q 522 1099 522 1133 q 499 1045 522 1065 q 445 1025 477 1025 z "},"Ì":{"ha":375,"x_min":44,"x_max":383,"o":"m 216 0 l 44 0 l 199 926 l 370 926 l 216 0 m 151 1221 l 383 1072 l 350 1000 l 97 1133 l 151 1221 z "},"Ó":{"ha":898,"x_min":71,"x_max":868,"o":"m 71 394 q 190 780 71 607 q 509 952 309 952 q 772 840 676 952 q 868 533 868 728 q 747 145 868 315 q 424 -25 625 -25 q 174 90 277 -25 q 71 394 71 205 m 246 365 q 300 172 246 229 q 430 114 353 114 q 627 262 564 114 q 690 570 690 411 q 499 813 690 813 q 309 660 372 813 q 246 365 246 507 m 742 1221 l 787 1128 l 504 1000 l 475 1072 l 742 1221 z "},"Ô":{"ha":898,"x_min":71,"x_max":868,"o":"m 71 394 q 190 780 71 607 q 509 952 309 952 q 772 840 676 952 q 868 533 868 728 q 747 145 868 315 q 424 -25 625 -25 q 174 90 277 -25 q 71 394 71 205 m 246 365 q 300 172 246 229 q 430 114 353 114 q 627 262 564 114 q 690 570 690 411 q 499 813 690 813 q 309 660 372 813 q 246 365 246 507 m 597 1214 l 791 1019 l 670 1004 l 581 1094 l 444 1004 l 323 1019 l 597 1214 z "},"Ò":{"ha":898,"x_min":71,"x_max":868,"o":"m 71 394 q 190 780 71 607 q 509 952 309 952 q 772 840 676 952 q 868 533 868 728 q 747 145 868 315 q 424 -25 625 -25 q 174 90 277 -25 q 71 394 71 205 m 246 365 q 300 172 246 229 q 430 114 353 114 q 627 262 564 114 q 690 570 690 411 q 499 813 690 813 q 309 660 372 813 q 246 365 246 507 m 444 1221 l 677 1072 l 644 1000 l 391 1133 l 444 1221 z "},"Ú":{"ha":840,"x_min":87,"x_max":845,"o":"m 845 926 l 745 328 q 695 145 725 210 q 584 30 665 81 q 392 -21 504 -21 q 256 2 322 -21 q 139 89 190 25 q 87 259 87 152 q 100 390 87 313 l 190 926 l 361 926 l 269 381 q 254 263 254 293 q 302 155 254 189 q 414 122 351 122 q 511 144 469 122 q 577 210 553 165 q 619 368 600 255 l 712 926 l 845 926 m 725 1221 l 770 1128 l 487 1000 l 458 1072 l 725 1221 z "},"Û":{"ha":840,"x_min":87,"x_max":845,"o":"m 845 926 l 745 328 q 695 145 725 210 q 584 30 665 81 q 392 -21 504 -21 q 256 2 322 -21 q 139 89 190 25 q 87 259 87 152 q 100 390 87 313 l 190 926 l 361 926 l 269 381 q 254 263 254 293 q 302 155 254 189 q 414 122 351 122 q 511 144 469 122 q 577 210 553 165 q 619 368 600 255 l 712 926 l 845 926 m 580 1214 l 774 1019 l 653 1004 l 564 1094 l 427 1004 l 307 1019 l 580 1214 z "},"Ù":{"ha":840,"x_min":87,"x_max":845,"o":"m 845 926 l 745 328 q 695 145 725 210 q 584 30 665 81 q 392 -21 504 -21 q 256 2 322 -21 q 139 89 190 25 q 87 259 87 152 q 100 390 87 313 l 190 926 l 361 926 l 269 381 q 254 263 254 293 q 302 155 254 189 q 414 122 351 122 q 511 144 469 122 q 577 210 553 165 q 619 368 600 255 l 712 926 l 845 926 m 414 1221 l 647 1072 l 614 1000 l 361 1133 l 414 1221 z "},"ı":{"ha":345,"x_min":35,"x_max":310,"o":"m 195 0 l 35 0 l 151 690 l 310 690 l 195 0 z "},"ˆ":{"ha":694,"x_min":185,"x_max":652,"o":"m 458 1001 l 652 806 l 532 791 l 443 881 l 305 791 l 185 806 l 458 1001 z "},"˜":{"ha":694,"x_min":220,"x_max":662,"o":"m 627 961 l 662 894 q 519 814 602 814 q 418 846 477 814 q 350 872 372 872 q 255 818 318 872 l 220 883 q 368 966 297 966 q 456 939 406 966 q 538 911 511 911 q 627 961 581 911 z "},"ˉ":{"ha":694,"x_min":229,"x_max":640,"o":"m 626 829 l 229 829 l 243 917 l 640 917 l 626 829 z "},"˘":{"ha":694,"x_min":257,"x_max":671,"o":"m 259 987 l 349 987 q 379 914 349 931 q 451 897 410 897 q 582 987 552 897 l 671 987 q 587 852 653 903 q 433 801 522 801 q 303 845 350 801 q 257 953 257 888 q 259 987 257 965 z "},"˙":{"ha":694,"x_min":361,"x_max":514,"o":"m 437 806 q 383 827 404 806 q 361 878 361 848 q 382 931 361 908 q 437 954 404 954 q 491 933 468 954 q 514 879 514 913 q 491 825 514 845 q 437 806 469 806 z "},"˚":{"ha":694,"x_min":315,"x_max":567,"o":"m 441 768 q 352 805 389 768 q 315 894 315 842 q 352 983 315 946 q 441 1021 389 1021 q 527 987 488 1021 q 567 892 567 954 q 531 806 567 843 q 441 768 494 768 m 441 839 q 484 856 470 839 q 497 892 497 873 q 483 934 497 918 q 444 950 468 950 q 404 936 421 950 q 386 895 386 922 q 400 856 386 872 q 441 839 414 839 z "},"¸":{"ha":694,"x_min":166,"x_max":439,"o":"m 349 0 l 320 -63 q 404 -87 369 -63 q 439 -154 439 -112 q 396 -236 439 -198 q 293 -273 354 -273 q 166 -233 248 -273 l 197 -180 q 292 -211 249 -211 q 349 -166 349 -211 q 237 -116 349 -116 l 293 0 l 349 0 z "},"˝":{"ha":694,"x_min":226,"x_max":732,"o":"m 446 1004 l 500 925 l 262 783 l 226 840 l 446 1004 m 677 1004 l 732 925 l 493 783 l 457 840 l 677 1004 z "},"˛":{"ha":694,"x_min":353,"x_max":588,"o":"m 563 0 q 452 -118 452 -55 q 518 -172 452 -172 q 580 -160 545 -172 l 588 -210 q 476 -233 532 -233 q 385 -207 417 -233 q 353 -142 353 -180 q 488 0 353 -53 l 563 0 z "},"ˇ":{"ha":694,"x_min":220,"x_max":688,"o":"m 414 783 l 220 978 l 340 991 l 430 903 l 567 991 l 688 978 l 414 783 z "},"Ł":{"ha":688,"x_min":12,"x_max":633,"o":"m 609 0 l 54 0 l 115 360 l 12 298 l 36 445 l 139 507 l 209 926 l 384 926 l 326 576 l 528 692 l 504 546 l 301 429 l 254 145 l 633 145 l 609 0 z "},"ł":{"ha":353,"x_min":15,"x_max":391,"o":"m 199 0 l 39 0 l 110 419 l 15 351 l 32 452 l 127 521 l 195 926 l 354 926 l 296 584 l 391 647 l 374 545 l 279 481 l 199 0 z "},"Š":{"ha":768,"x_min":-11,"x_max":756,"o":"m 756 750 l 604 694 q 428 809 555 809 q 308 773 351 809 q 264 683 264 736 q 294 615 264 642 q 390 570 323 589 l 517 533 q 621 484 572 517 q 695 399 671 450 q 720 292 720 348 q 626 73 720 165 q 351 -20 532 -20 q -11 211 72 -20 l 140 264 q 361 119 195 119 q 503 163 456 119 q 549 262 549 207 q 531 318 549 294 q 488 353 514 341 q 382 388 461 366 q 217 448 271 420 q 128 531 162 477 q 94 660 94 585 q 185 867 94 787 q 435 948 277 948 q 756 750 668 948 m 460 996 l 267 1191 l 387 1204 l 476 1116 l 613 1204 l 734 1191 l 460 996 z "},"š":{"ha":636,"x_min":-25,"x_max":661,"o":"m 120 203 q 283 100 160 100 q 381 125 345 100 q 416 190 416 151 q 392 236 416 219 q 311 269 368 253 q 173 317 218 295 q 98 383 128 338 q 67 486 67 428 q 136 643 67 576 q 329 709 204 709 q 614 547 532 709 l 483 505 q 333 595 437 595 q 254 573 286 595 q 221 515 221 551 q 237 472 221 489 q 301 441 253 455 q 464 385 411 409 q 548 316 517 361 q 579 214 579 272 q 504 51 579 117 q 282 -15 429 -15 q -25 168 47 -15 l 120 203 m 387 783 l 193 978 l 313 991 l 403 903 l 540 991 l 661 978 l 387 783 z "},"Ž":{"ha":730,"x_min":-30,"x_max":788,"o":"m 650 0 l -30 0 l -7 136 l 551 781 l 115 781 l 139 926 l 788 926 l 770 810 l 193 145 l 674 145 l 650 0 m 465 996 l 271 1191 l 391 1204 l 480 1116 l 617 1204 l 738 1191 l 465 996 z "},"ž":{"ha":585,"x_min":-23,"x_max":637,"o":"m 496 0 l -23 0 l -4 124 l 383 570 l 90 570 l 110 690 l 600 690 l 582 583 l 186 124 l 516 124 l 496 0 m 364 783 l 170 978 l 290 991 l 380 903 l 517 991 l 637 978 l 364 783 z "},"¦":{"ha":694,"x_min":288,"x_max":446,"o":"m 288 926 l 446 926 l 446 450 l 288 450 l 288 926 m 288 213 l 446 213 l 446 -231 l 288 -231 l 288 213 z "},"Ð":{"ha":888,"x_min":21,"x_max":855,"o":"m 200 926 l 471 926 q 624 909 566 926 q 735 843 682 892 q 822 709 788 794 q 855 514 855 625 q 806 271 855 385 q 688 97 757 158 q 553 18 618 37 q 365 0 488 0 l 45 0 l 114 408 l 21 408 l 43 537 l 136 537 l 200 926 m 305 537 l 522 537 l 500 408 l 283 408 l 238 140 l 385 140 q 504 159 459 140 q 589 225 548 178 q 654 360 629 273 q 680 540 680 448 q 654 676 680 616 q 579 763 629 737 q 447 789 530 789 l 347 789 l 305 537 z "},"ð":{"ha":729,"x_min":46,"x_max":686,"o":"m 277 798 l 391 848 q 274 907 349 888 l 298 972 q 488 892 398 950 l 624 951 l 665 898 l 547 846 q 686 449 686 711 q 594 117 686 252 q 333 -17 503 -17 q 130 55 213 -17 q 46 284 46 127 q 134 571 46 453 q 360 688 222 688 q 519 631 452 688 q 442 798 496 737 l 315 741 l 277 798 m 382 562 q 238 455 275 562 q 201 282 201 347 q 339 107 201 107 q 476 201 432 107 q 519 402 519 294 q 484 518 519 475 q 382 562 448 562 z "},"Ý":{"ha":720,"x_min":58,"x_max":836,"o":"m 402 0 l 228 0 l 293 390 l 58 926 l 248 926 l 412 526 l 675 926 l 836 926 l 466 382 l 402 0 m 656 1221 l 701 1128 l 418 1000 l 390 1072 l 656 1221 z "},"ý":{"ha":633,"x_min":-39,"x_max":681,"o":"m -39 -245 l -32 -113 q 59 -119 7 -119 q 139 -99 107 -119 q 196 -24 170 -79 l 222 31 l 53 690 l 216 690 l 320 215 l 548 690 l 681 690 l 327 -24 q 251 -161 277 -123 q 174 -225 224 -199 q 43 -251 123 -251 q -39 -245 5 -251 m 571 1008 l 616 916 l 333 787 l 304 860 l 571 1008 z "},"Þ":{"ha":839,"x_min":44,"x_max":828,"o":"m 217 0 l 44 0 l 199 926 l 372 926 l 351 796 l 426 796 q 603 791 547 796 q 712 754 659 786 q 797 664 765 722 q 828 532 828 605 q 776 364 828 438 q 653 266 724 290 q 481 241 583 241 l 258 241 l 217 0 m 328 661 l 281 378 l 446 378 q 566 389 532 378 q 627 438 601 400 q 654 529 654 475 q 630 611 654 578 q 574 652 606 643 q 457 661 541 661 l 328 661 z "},"þ":{"ha":734,"x_min":-5,"x_max":694,"o":"m 146 -241 l -5 -241 l 190 926 l 342 926 l 282 570 q 476 713 362 713 q 634 634 574 713 q 694 422 694 555 q 613 118 694 256 q 399 -20 531 -20 q 207 122 258 -20 l 146 -241 m 371 104 q 493 204 450 104 q 536 410 536 304 q 428 589 536 589 q 291 491 346 589 q 235 277 235 394 q 275 148 235 191 q 371 104 315 104 z "},"−":{"ha":814,"x_min":85,"x_max":771,"o":"m 771 532 l 771 403 l 85 403 l 85 532 l 771 532 z "},"×":{"ha":814,"x_min":133,"x_max":724,"o":"m 633 764 l 724 671 l 520 467 l 724 264 l 633 173 l 429 376 l 224 172 l 133 264 l 337 468 l 133 672 l 224 764 l 429 559 l 633 764 z "},"¹":{"ha":537,"x_min":79,"x_max":514,"o":"m 498 370 l 79 370 l 94 465 l 248 465 l 304 797 q 142 751 225 751 q 124 751 136 751 l 139 844 q 362 946 300 856 l 439 946 l 358 465 l 514 465 l 498 370 z "},"²":{"ha":537,"x_min":49,"x_max":543,"o":"m 497 370 l 49 370 l 63 478 q 252 585 149 522 q 390 688 355 648 q 426 770 426 728 q 400 828 426 804 q 334 851 374 851 q 208 734 237 851 l 107 774 q 340 945 173 945 q 480 899 418 945 q 543 770 543 852 q 449 604 543 671 q 193 467 354 536 l 513 467 l 497 370 z "},"³":{"ha":537,"x_min":58,"x_max":541,"o":"m 162 539 q 204 471 170 497 q 286 446 239 446 q 370 471 338 446 q 401 534 401 496 q 383 585 401 565 q 341 608 365 605 q 231 612 317 612 l 246 699 q 277 698 264 698 q 426 780 426 698 q 399 831 426 812 q 333 850 372 850 q 207 769 247 850 l 108 810 q 336 939 188 939 q 484 896 427 939 q 541 789 541 852 q 426 659 541 694 q 517 532 517 626 q 456 410 517 463 q 285 357 396 357 q 58 514 105 357 l 162 539 z "},"½":{"ha":1222,"x_min":52,"x_max":1194,"o":"m 472 370 l 52 370 l 68 465 l 222 465 l 277 797 q 116 751 199 751 q 98 751 109 751 l 113 844 q 336 946 273 856 l 412 946 l 332 465 l 488 465 l 472 370 m 321 0 l 218 0 l 943 926 l 1044 926 l 321 0 m 1147 0 l 699 0 l 713 108 q 891 208 785 144 q 1037 314 998 273 q 1076 399 1076 355 q 1049 458 1076 435 q 984 481 1023 481 q 858 364 887 481 l 757 404 q 989 575 824 575 q 1133 526 1073 575 q 1194 399 1194 477 q 1098 233 1194 300 q 842 97 1002 165 l 1163 97 l 1147 0 z "},"¼":{"ha":1222,"x_min":52,"x_max":1192,"o":"m 472 370 l 52 370 l 68 465 l 222 465 l 277 797 q 116 751 199 751 q 98 751 109 751 l 113 844 q 336 946 273 856 l 412 946 l 332 465 l 488 465 l 472 370 m 321 0 l 218 0 l 943 926 l 1044 926 l 321 0 m 1065 0 l 954 0 l 975 124 l 716 124 l 732 218 l 1046 574 l 1161 574 l 1101 216 l 1192 216 l 1177 124 l 1086 124 l 1065 0 m 998 208 l 1038 447 l 825 207 l 998 208 z "},"¾":{"ha":1222,"x_min":32,"x_max":1192,"o":"m 136 539 q 178 471 143 497 q 260 446 212 446 q 343 471 312 446 q 374 534 374 496 q 356 585 374 565 q 315 608 338 605 q 205 612 291 612 l 220 699 q 250 698 237 698 q 399 780 399 698 q 372 831 399 812 q 307 850 345 850 q 180 769 220 850 l 81 810 q 310 939 161 939 q 457 896 400 939 q 515 789 515 852 q 399 659 515 694 q 490 532 490 626 q 430 410 490 463 q 258 357 370 357 q 32 514 79 357 l 136 539 m 321 0 l 218 0 l 942 926 l 1044 926 l 321 0 m 1065 0 l 954 0 l 975 124 l 716 124 l 732 218 l 1046 574 l 1160 574 l 1101 216 l 1192 216 l 1177 124 l 1085 124 l 1065 0 m 998 208 l 1038 447 l 825 207 l 998 208 z "},"₣":{"ha":690,"x_min":-12,"x_max":768,"o":"m 67 136 l -12 136 l 9 266 l 89 266 l 199 926 l 768 926 l 744 781 l 345 781 l 302 530 l 635 530 l 612 393 l 279 393 l 258 266 l 427 266 l 405 136 l 237 136 l 214 0 l 44 0 l 67 136 z "},"Ğ":{"ha":899,"x_min":70,"x_max":859,"o":"m 753 0 l 682 0 l 654 125 q 401 -17 578 -17 q 161 86 253 -17 q 70 382 70 189 q 194 786 70 620 q 521 952 318 952 q 859 678 787 952 l 712 642 q 517 809 665 809 q 321 678 394 809 q 249 378 249 547 q 301 185 249 248 q 443 122 354 122 q 655 340 601 122 l 454 340 l 477 479 l 833 479 l 753 0 m 384 1198 l 473 1198 q 504 1125 473 1142 q 576 1108 535 1108 q 707 1198 677 1108 l 796 1198 q 712 1063 778 1114 q 557 1012 646 1012 q 428 1056 475 1012 q 382 1164 382 1099 q 384 1198 382 1176 z "},"ğ":{"ha":705,"x_min":-19,"x_max":732,"o":"m 91 65 q 33 172 33 105 q 59 261 33 222 q 168 340 86 299 q 90 481 90 396 q 172 647 90 587 q 398 707 254 707 q 484 696 449 707 q 564 833 517 798 q 686 868 612 868 q 732 865 707 868 l 731 747 q 680 750 694 750 q 608 738 644 750 q 552 671 572 726 q 658 507 658 618 q 582 347 658 410 q 365 284 506 284 q 231 304 305 284 q 169 220 169 273 q 191 174 169 191 q 279 157 212 157 l 361 157 q 537 137 481 157 q 625 74 593 117 q 656 -20 656 30 q 574 -176 656 -106 q 286 -246 492 -246 q -19 -84 -19 -246 q 9 4 -19 -28 q 91 65 38 36 m 364 375 q 467 411 430 375 q 503 507 503 446 q 391 609 503 609 q 287 573 325 609 q 249 479 249 538 q 364 375 249 375 m 159 31 q 115 -42 115 -6 q 165 -117 115 -87 q 315 -146 215 -146 q 510 -42 510 -146 q 479 8 510 -1 q 324 18 449 18 q 159 31 194 18 m 198 1051 l 288 1051 q 318 979 288 996 q 390 962 349 962 q 521 1051 491 962 l 610 1051 q 526 916 592 967 q 372 865 460 865 q 242 909 289 865 q 196 1017 196 953 q 198 1051 196 1029 z "},"İ":{"ha":375,"x_min":44,"x_max":383,"o":"m 216 0 l 44 0 l 199 926 l 370 926 l 216 0 m 306 1025 q 252 1047 273 1025 q 231 1098 231 1068 q 252 1151 231 1128 q 306 1173 273 1173 q 360 1153 337 1173 q 383 1099 383 1133 q 360 1045 383 1065 q 306 1025 338 1025 z "},"Ş":{"ha":768,"x_min":-11,"x_max":756,"o":"m 328 -19 l 304 -68 q 443 -159 443 -68 q 398 -252 443 -212 q 283 -293 354 -293 q 137 -252 219 -293 l 168 -196 q 275 -231 242 -231 q 327 -214 307 -231 q 347 -174 347 -197 q 254 -121 347 -121 q 216 -123 243 -121 l 269 -14 q -11 211 56 24 l 140 264 q 361 119 195 119 q 503 163 456 119 q 549 262 549 207 q 531 318 549 294 q 488 353 514 341 q 382 388 461 366 q 217 448 271 420 q 128 531 162 477 q 94 660 94 585 q 185 867 94 787 q 435 948 277 948 q 756 750 668 948 l 604 694 q 428 809 555 809 q 308 773 352 809 q 264 683 264 736 q 294 615 264 642 q 390 570 323 589 l 517 533 q 621 484 572 517 q 695 399 671 450 q 720 292 720 348 q 626 73 720 165 q 351 -20 532 -20 q 328 -19 344 -20 z "},"ş":{"ha":636,"x_min":-25,"x_max":614,"o":"m 120 203 q 283 100 160 100 q 381 125 345 100 q 416 190 416 151 q 392 236 416 219 q 311 269 368 253 q 173 317 218 295 q 98 383 128 338 q 67 486 67 428 q 136 643 67 576 q 329 709 204 709 q 614 547 532 709 l 483 505 q 333 595 437 595 q 254 573 286 595 q 221 515 221 551 q 237 472 221 489 q 301 441 253 455 q 464 385 411 409 q 548 316 517 361 q 579 214 579 272 q 504 51 579 117 q 282 -15 429 -15 q -25 168 47 -15 l 120 203 m 263 0 l 235 -63 q 318 -87 283 -63 q 353 -154 353 -112 q 311 -236 353 -198 q 208 -273 269 -273 q 81 -233 163 -273 l 112 -180 q 206 -211 163 -211 q 264 -166 264 -211 q 151 -116 264 -116 l 208 0 l 263 0 z "},"Ć":{"ha":821,"x_min":70,"x_max":838,"o":"m 777 254 q 410 -24 658 -24 q 164 84 259 -24 q 70 380 70 193 q 191 782 70 614 q 503 950 313 950 q 739 864 652 950 q 838 625 825 778 l 687 598 q 500 811 667 811 q 306 651 365 811 q 246 347 246 491 q 296 177 246 234 q 423 120 346 120 q 552 175 494 120 q 641 310 610 231 l 777 254 m 726 1221 l 771 1128 l 488 1000 l 460 1072 l 726 1221 z "},"ć":{"ha":664,"x_min":48,"x_max":650,"o":"m 616 205 q 323 -15 518 -15 q 125 67 201 -15 q 48 296 48 149 q 142 587 48 463 q 379 710 237 710 q 559 647 487 710 q 650 469 631 585 l 521 444 q 386 580 494 580 q 256 489 306 580 q 205 279 205 398 q 243 152 205 189 q 334 114 281 114 q 488 250 435 114 l 616 205 m 594 1008 l 639 916 l 356 787 l 328 860 l 594 1008 z "},"Č":{"ha":821,"x_min":70,"x_max":838,"o":"m 777 254 q 410 -24 658 -24 q 164 84 259 -24 q 70 380 70 193 q 191 782 70 614 q 503 950 313 950 q 739 864 652 950 q 838 625 825 778 l 687 598 q 500 811 667 811 q 306 651 365 811 q 246 347 246 491 q 296 177 246 234 q 423 120 346 120 q 552 175 494 120 q 641 310 610 231 l 777 254 m 534 995 l 340 1190 l 460 1204 l 549 1115 l 686 1204 l 807 1190 l 534 995 z "},"č":{"ha":664,"x_min":48,"x_max":690,"o":"m 616 205 q 323 -15 518 -15 q 125 67 201 -15 q 48 296 48 149 q 142 587 48 463 q 379 710 237 710 q 559 647 487 710 q 650 469 631 585 l 521 444 q 386 580 494 580 q 256 489 306 580 q 205 279 205 398 q 243 152 205 189 q 334 114 281 114 q 488 250 435 114 l 616 205 m 417 783 l 223 978 l 343 991 l 433 903 l 570 991 l 690 978 l 417 783 z "},"đ":{"ha":743,"x_min":44,"x_max":819,"o":"m 583 850 l 596 926 l 748 926 l 735 850 l 819 850 l 804 767 l 721 767 l 593 0 l 445 0 l 469 142 q 250 -16 385 -16 q 101 59 157 -16 q 44 267 44 133 q 130 582 44 450 q 349 713 216 713 q 537 576 492 713 l 569 767 l 375 767 l 389 850 l 583 850 m 312 109 q 452 207 400 109 q 505 423 505 306 q 470 541 505 496 q 377 585 435 585 q 244 483 289 585 q 199 256 199 381 q 312 109 199 109 z "},"­":{"ha":334,"x_min":-9,"x_max":344,"o":"m 323 281 l -9 281 l 12 405 l 344 405 l 323 281 z "},"¯":{"ha":694,"x_min":20,"x_max":714,"o":"m 20 1228 l 714 1228 l 714 1086 l 20 1086 l 20 1228 z "},"·":{"ha":191,"x_min":0,"x_max":191,"o":"m 162 258 l 0 258 l 28 428 l 191 428 l 162 258 z "},"Ā":{"ha":837,"x_min":-39,"x_max":780,"o":"m 780 0 l 595 0 l 557 224 l 221 224 l 118 0 l -39 0 l 405 926 l 610 926 l 780 0 m 541 353 l 469 764 l 278 353 l 541 353 m 724 1051 l 327 1051 l 342 1139 l 739 1139 l 724 1051 z "},"ā":{"ha":744,"x_min":22,"x_max":672,"o":"m 608 0 l 458 0 q 456 30 456 18 q 469 149 456 79 q 371 27 435 71 q 231 -18 307 -18 q 80 40 138 -18 q 22 181 22 97 q 126 366 22 297 q 450 434 229 434 q 516 431 478 434 q 521 481 521 463 q 483 565 521 536 q 387 593 444 593 q 228 498 278 593 l 92 541 q 394 709 178 709 q 597 650 523 709 q 672 495 672 592 q 640 277 672 454 q 605 40 605 90 q 608 0 605 22 m 503 352 q 256 305 326 342 q 187 196 187 268 q 215 129 187 155 q 291 102 243 102 q 419 163 360 102 q 503 352 478 224 m 644 829 l 246 829 l 261 917 l 658 917 l 644 829 z "},"Ă":{"ha":837,"x_min":-39,"x_max":780,"o":"m 780 0 l 595 0 l 557 224 l 221 224 l 118 0 l -39 0 l 405 926 l 610 926 l 780 0 m 541 353 l 469 764 l 278 353 l 541 353 m 351 1198 l 440 1198 q 471 1125 440 1142 q 543 1108 502 1108 q 673 1198 644 1108 l 763 1198 q 679 1063 745 1114 q 524 1012 613 1012 q 395 1056 441 1012 q 349 1164 349 1099 q 351 1198 349 1176 z "},"ă":{"ha":744,"x_min":22,"x_max":689,"o":"m 608 0 l 458 0 q 456 30 456 18 q 469 149 456 79 q 371 27 435 71 q 231 -18 307 -18 q 80 40 138 -18 q 22 181 22 97 q 126 366 22 297 q 450 434 229 434 q 516 431 478 434 q 521 481 521 463 q 483 565 521 536 q 387 593 444 593 q 228 498 278 593 l 92 541 q 394 709 178 709 q 597 650 523 709 q 672 495 672 592 q 640 277 672 454 q 605 40 605 90 q 608 0 605 22 m 503 352 q 256 305 326 342 q 187 196 187 268 q 215 129 187 155 q 291 102 243 102 q 419 163 360 102 q 503 352 478 224 m 277 987 l 366 987 q 397 914 366 931 q 469 897 428 897 q 600 987 570 897 l 689 987 q 605 852 671 903 q 450 801 539 801 q 321 845 368 801 q 275 953 275 888 q 277 987 275 965 z "},"Ą":{"ha":837,"x_min":-39,"x_max":831,"o":"m 595 0 l 557 224 l 221 224 l 118 0 l -39 0 l 405 926 l 610 926 l 780 0 q 675 -113 675 -52 q 756 -177 675 -177 q 820 -164 787 -177 l 831 -219 q 715 -243 777 -243 q 575 -137 575 -243 q 701 0 575 -47 l 595 0 m 541 353 l 469 764 l 278 353 l 541 353 z "},"ą":{"ha":744,"x_min":22,"x_max":672,"o":"m 608 0 l 458 0 q 456 30 456 18 q 469 149 456 79 q 371 27 435 71 q 231 -18 307 -18 q 80 40 138 -18 q 22 181 22 97 q 126 366 22 297 q 450 434 229 434 q 516 431 478 434 q 521 481 521 463 q 483 565 521 536 q 387 593 444 593 q 228 498 278 593 l 92 541 q 394 709 178 709 q 597 650 523 709 q 672 495 672 592 q 640 277 672 454 q 605 40 605 90 q 608 0 605 22 m 503 352 q 256 305 326 342 q 187 196 187 268 q 215 129 187 155 q 291 102 243 102 q 419 163 360 102 q 503 352 478 224 m 608 0 q 496 -118 496 -55 q 563 -172 496 -172 q 625 -160 590 -172 l 633 -210 q 521 -233 577 -233 q 430 -207 462 -233 q 398 -142 398 -180 q 533 0 398 -53 l 608 0 z "},"Ĉ":{"ha":821,"x_min":70,"x_max":838,"o":"m 777 254 q 410 -24 658 -24 q 164 84 259 -24 q 70 380 70 193 q 191 782 70 614 q 503 950 313 950 q 739 864 652 950 q 838 625 825 778 l 687 598 q 500 811 667 811 q 306 651 365 811 q 246 347 246 491 q 296 177 246 234 q 423 120 346 120 q 552 175 494 120 q 641 310 610 231 l 777 254 m 591 1214 l 785 1019 l 664 1004 l 575 1094 l 437 1004 l 317 1019 l 591 1214 z "},"ĉ":{"ha":664,"x_min":48,"x_max":650,"o":"m 616 205 q 323 -15 518 -15 q 125 67 201 -15 q 48 296 48 149 q 142 587 48 463 q 379 710 237 710 q 559 647 487 710 q 650 469 631 585 l 521 444 q 386 580 494 580 q 256 489 306 580 q 205 279 205 398 q 243 152 205 189 q 334 114 281 114 q 488 250 435 114 l 616 205 m 441 1001 l 635 806 l 515 791 l 426 881 l 288 791 l 168 806 l 441 1001 z "},"Ċ":{"ha":821,"x_min":70,"x_max":838,"o":"m 777 254 q 410 -24 658 -24 q 164 84 259 -24 q 70 380 70 193 q 191 782 70 614 q 503 950 313 950 q 739 864 652 950 q 838 625 825 778 l 687 598 q 500 811 667 811 q 306 651 365 811 q 246 347 246 491 q 296 177 246 234 q 423 120 346 120 q 552 175 494 120 q 641 310 610 231 l 777 254 m 555 1025 q 501 1047 522 1025 q 479 1098 479 1068 q 500 1151 479 1128 q 555 1173 522 1173 q 609 1153 586 1173 q 632 1099 632 1133 q 609 1045 632 1065 q 555 1025 587 1025 z "},"ċ":{"ha":664,"x_min":48,"x_max":650,"o":"m 616 205 q 323 -15 518 -15 q 125 67 201 -15 q 48 296 48 149 q 142 587 48 463 q 379 710 237 710 q 559 647 487 710 q 650 469 631 585 l 521 444 q 386 580 494 580 q 256 489 306 580 q 205 279 205 398 q 243 152 205 189 q 334 114 281 114 q 488 250 435 114 l 616 205 m 431 806 q 377 827 399 806 q 356 878 356 848 q 377 931 356 908 q 431 954 398 954 q 486 933 463 954 q 509 879 509 913 q 486 825 509 845 q 431 806 463 806 z "},"Ď":{"ha":888,"x_min":44,"x_max":854,"o":"m 44 0 l 199 926 l 471 926 q 623 909 565 926 q 734 843 680 892 q 821 710 787 795 q 854 515 854 625 q 806 272 854 385 q 688 98 758 159 q 553 18 618 37 q 364 0 487 0 l 44 0 m 237 140 l 385 140 q 503 159 458 140 q 588 225 547 178 q 654 359 629 272 q 679 540 679 447 q 653 677 679 616 q 579 763 628 738 q 446 789 530 789 l 346 789 l 237 140 m 498 996 l 304 1191 l 424 1204 l 513 1116 l 650 1204 l 771 1191 l 498 996 z "},"ď":{"ha":887,"x_min":44,"x_max":989,"o":"m 593 0 l 445 0 l 469 142 q 250 -16 385 -16 q 101 59 157 -16 q 44 267 44 133 q 130 582 44 450 q 349 713 216 713 q 537 576 492 713 l 596 926 l 748 926 l 593 0 m 312 109 q 452 207 400 109 q 505 423 505 306 q 470 541 505 496 q 377 585 435 585 q 244 483 289 585 q 199 256 199 381 q 312 109 199 109 m 842 656 l 779 656 l 850 926 l 989 926 l 842 656 z "},"Đ":{"ha":888,"x_min":21,"x_max":855,"o":"m 200 926 l 471 926 q 624 909 566 926 q 735 843 682 892 q 822 709 788 794 q 855 514 855 625 q 806 271 855 385 q 688 97 757 158 q 553 18 618 37 q 365 0 488 0 l 45 0 l 114 408 l 21 408 l 43 537 l 136 537 l 200 926 m 305 537 l 522 537 l 500 408 l 283 408 l 238 140 l 385 140 q 504 159 459 140 q 589 225 548 178 q 654 360 629 273 q 680 540 680 448 q 654 676 680 616 q 579 763 629 737 q 447 789 530 789 l 347 789 l 305 537 z "},"Ē":{"ha":745,"x_min":44,"x_max":784,"o":"m 646 0 l 44 0 l 199 926 l 784 926 l 760 781 l 340 781 l 300 541 l 648 541 l 625 404 l 277 404 l 234 145 l 670 145 l 646 0 m 707 1041 l 310 1041 l 325 1129 l 722 1129 l 707 1041 z "},"ē":{"ha":724,"x_min":47,"x_max":677,"o":"m 639 195 q 338 -17 544 -17 q 124 66 202 -17 q 47 288 47 150 q 145 586 47 465 q 397 707 243 707 q 606 620 535 707 q 677 381 677 532 q 675 327 677 356 l 201 327 q 196 275 196 298 q 234 150 196 197 q 340 102 271 102 q 503 231 448 102 l 639 195 m 533 425 q 397 600 533 600 q 217 425 257 600 l 533 425 m 646 829 l 249 829 l 264 917 l 661 917 l 646 829 z "},"Ĕ":{"ha":745,"x_min":44,"x_max":784,"o":"m 646 0 l 44 0 l 199 926 l 784 926 l 760 781 l 340 781 l 300 541 l 648 541 l 625 404 l 277 404 l 234 145 l 670 145 l 646 0 m 334 1198 l 423 1198 q 454 1125 423 1142 q 526 1108 485 1108 q 656 1198 627 1108 l 746 1198 q 662 1063 728 1114 q 507 1012 596 1012 q 378 1056 425 1012 q 332 1164 332 1099 q 334 1198 332 1176 z "},"ĕ":{"ha":724,"x_min":47,"x_max":692,"o":"m 639 195 q 338 -17 544 -17 q 124 66 202 -17 q 47 288 47 150 q 145 586 47 465 q 397 707 243 707 q 606 620 535 707 q 677 381 677 532 q 675 327 677 356 l 201 327 q 196 275 196 298 q 234 150 196 197 q 340 102 271 102 q 503 231 448 102 l 639 195 m 533 425 q 397 600 533 600 q 217 425 257 600 l 533 425 m 279 987 l 369 987 q 400 914 369 931 q 471 897 431 897 q 602 987 572 897 l 692 987 q 608 852 673 903 q 453 801 542 801 q 324 845 370 801 q 277 953 277 888 q 279 987 277 965 z "},"Ė":{"ha":745,"x_min":44,"x_max":784,"o":"m 646 0 l 44 0 l 199 926 l 784 926 l 760 781 l 340 781 l 300 541 l 648 541 l 625 404 l 277 404 l 234 145 l 670 145 l 646 0 m 515 1025 q 461 1047 482 1025 q 439 1098 439 1068 q 460 1151 439 1128 q 515 1173 481 1173 q 569 1153 546 1173 q 592 1099 592 1133 q 569 1045 592 1065 q 515 1025 547 1025 z "},"ė":{"ha":724,"x_min":47,"x_max":677,"o":"m 639 195 q 338 -17 544 -17 q 124 66 202 -17 q 47 288 47 150 q 145 586 47 465 q 397 707 243 707 q 606 620 535 707 q 677 381 677 532 q 675 327 677 356 l 201 327 q 196 275 196 298 q 234 150 196 197 q 340 102 271 102 q 503 231 448 102 l 639 195 m 533 425 q 397 600 533 600 q 217 425 257 600 l 533 425 m 448 806 q 394 827 416 806 q 373 878 373 848 q 394 931 373 908 q 448 954 415 954 q 503 933 479 954 q 526 879 526 913 q 503 825 526 845 q 448 806 480 806 z "},"Ę":{"ha":745,"x_min":44,"x_max":784,"o":"m 44 0 l 199 926 l 784 926 l 760 781 l 340 781 l 300 541 l 648 541 l 625 404 l 277 404 l 234 145 l 670 145 l 646 0 q 541 -113 541 -52 q 623 -177 541 -177 q 686 -164 653 -177 l 698 -219 q 581 -243 643 -243 q 441 -137 441 -243 q 567 0 441 -47 l 44 0 z "},"ę":{"ha":724,"x_min":47,"x_max":677,"o":"m 521 -155 l 529 -205 q 418 -229 475 -229 q 326 -201 356 -229 q 295 -138 295 -174 q 390 -14 295 -65 q 334 -17 353 -17 q 125 65 203 -17 q 47 288 47 148 q 145 586 47 465 q 397 707 243 707 q 600 627 523 707 q 677 381 677 546 q 675 327 677 356 l 201 327 q 196 275 196 298 q 234 150 196 197 q 340 102 271 102 q 503 231 448 102 l 639 195 q 493 18 593 90 q 393 -114 393 -54 q 460 -168 393 -168 q 521 -155 486 -168 m 533 425 q 397 600 533 600 q 217 425 257 600 l 533 425 z "},"Ě":{"ha":745,"x_min":44,"x_max":784,"o":"m 646 0 l 44 0 l 199 926 l 784 926 l 760 781 l 340 781 l 300 541 l 648 541 l 625 404 l 277 404 l 234 145 l 670 145 l 646 0 m 500 996 l 306 1191 l 426 1204 l 515 1116 l 652 1204 l 773 1191 l 500 996 z "},"ě":{"ha":724,"x_min":47,"x_max":699,"o":"m 639 195 q 338 -17 544 -17 q 124 66 202 -17 q 47 288 47 150 q 145 586 47 465 q 397 707 243 707 q 606 620 535 707 q 677 381 677 532 q 675 327 677 356 l 201 327 q 196 275 196 298 q 234 150 196 197 q 340 102 271 102 q 503 231 448 102 l 639 195 m 533 425 q 397 600 533 600 q 217 425 257 600 l 533 425 m 425 783 l 231 978 l 351 991 l 441 903 l 578 991 l 699 978 l 425 783 z "},"Ĝ":{"ha":899,"x_min":70,"x_max":859,"o":"m 753 0 l 682 0 l 654 125 q 401 -17 578 -17 q 161 86 253 -17 q 70 382 70 189 q 194 786 70 620 q 521 952 318 952 q 859 678 787 952 l 712 642 q 517 809 665 809 q 321 678 394 809 q 249 378 249 547 q 301 185 249 248 q 443 122 354 122 q 655 340 601 122 l 454 340 l 477 479 l 833 479 l 753 0 m 606 1214 l 800 1019 l 679 1004 l 590 1094 l 452 1004 l 332 1019 l 606 1214 z "},"ĝ":{"ha":705,"x_min":-19,"x_max":732,"o":"m 91 65 q 33 172 33 105 q 59 261 33 222 q 168 340 86 299 q 90 481 90 396 q 172 647 90 587 q 398 707 254 707 q 484 696 449 707 q 564 833 517 798 q 686 868 612 868 q 732 865 707 868 l 731 747 q 680 750 694 750 q 608 738 644 750 q 552 671 572 726 q 658 507 658 618 q 582 347 658 410 q 365 284 506 284 q 231 304 305 284 q 169 220 169 273 q 191 174 169 191 q 279 157 212 157 l 361 157 q 537 137 481 157 q 625 74 593 117 q 656 -20 656 30 q 574 -176 656 -106 q 286 -246 492 -246 q -19 -84 -19 -246 q 9 4 -19 -28 q 91 65 38 36 m 364 375 q 467 411 430 375 q 503 507 503 446 q 391 609 503 609 q 287 573 325 609 q 249 479 249 538 q 364 375 249 375 m 159 31 q 115 -42 115 -6 q 165 -117 115 -87 q 315 -146 215 -146 q 510 -42 510 -146 q 479 8 510 -1 q 324 18 449 18 q 159 31 194 18 m 465 1126 l 659 930 l 538 916 l 450 1006 l 312 916 l 192 930 l 465 1126 z "},"Ġ":{"ha":899,"x_min":70,"x_max":859,"o":"m 753 0 l 682 0 l 654 125 q 401 -17 578 -17 q 161 86 253 -17 q 70 382 70 189 q 194 786 70 620 q 521 952 318 952 q 859 678 787 952 l 712 642 q 517 809 665 809 q 321 678 394 809 q 249 378 249 547 q 301 185 249 248 q 443 122 354 122 q 655 340 601 122 l 454 340 l 477 479 l 833 479 l 753 0 m 570 1025 q 516 1047 537 1025 q 494 1098 494 1068 q 515 1151 494 1128 q 570 1173 536 1173 q 624 1153 601 1173 q 647 1099 647 1133 q 624 1045 647 1065 q 570 1025 602 1025 z "},"ġ":{"ha":705,"x_min":-19,"x_max":732,"o":"m 91 65 q 33 172 33 105 q 59 261 33 222 q 168 340 86 299 q 90 481 90 396 q 172 647 90 587 q 398 707 254 707 q 484 696 449 707 q 564 833 517 798 q 686 868 612 868 q 732 865 707 868 l 731 747 q 680 750 694 750 q 608 738 644 750 q 552 671 572 726 q 658 507 658 618 q 582 347 658 410 q 365 284 506 284 q 231 304 305 284 q 169 220 169 273 q 191 174 169 191 q 279 157 212 157 l 361 157 q 537 137 481 157 q 625 74 593 117 q 656 -20 656 30 q 574 -176 656 -106 q 286 -246 492 -246 q -19 -84 -19 -246 q 9 4 -19 -28 q 91 65 38 36 m 364 375 q 467 411 430 375 q 503 507 503 446 q 391 609 503 609 q 287 573 325 609 q 249 479 249 538 q 364 375 249 375 m 159 31 q 115 -42 115 -6 q 165 -117 115 -87 q 315 -146 215 -146 q 510 -42 510 -146 q 479 8 510 -1 q 324 18 449 18 q 159 31 194 18 m 416 846 q 362 868 384 846 q 341 919 341 889 q 362 971 341 949 q 416 994 383 994 q 471 974 448 994 q 494 920 494 954 q 471 866 494 886 q 416 846 448 846 z "},"Ģ":{"ha":899,"x_min":70,"x_max":859,"o":"m 753 0 l 682 0 l 654 125 q 401 -17 578 -17 q 161 86 253 -17 q 70 382 70 189 q 194 786 70 620 q 521 952 318 952 q 859 678 787 952 l 712 642 q 517 809 665 809 q 321 678 394 809 q 249 378 249 547 q 301 185 249 248 q 443 122 354 122 q 655 340 601 122 l 454 340 l 477 479 l 833 479 l 753 0 m 316 -325 l 253 -325 l 324 -74 l 463 -74 l 316 -325 z "},"ģ":{"ha":705,"x_min":-19,"x_max":732,"o":"m 91 65 q 33 172 33 105 q 59 261 33 222 q 168 340 86 299 q 90 481 90 396 q 172 647 90 587 q 398 707 254 707 q 484 696 449 707 q 564 833 517 798 q 686 868 612 868 q 732 865 707 868 l 731 747 q 680 750 694 750 q 608 738 644 750 q 552 671 572 726 q 658 507 658 618 q 582 347 658 410 q 365 284 506 284 q 231 304 305 284 q 169 220 169 273 q 191 174 169 191 q 279 157 212 157 l 361 157 q 537 137 481 157 q 625 74 593 117 q 656 -20 656 30 q 574 -176 656 -106 q 286 -246 492 -246 q -19 -84 -19 -246 q 9 4 -19 -28 q 91 65 38 36 m 364 375 q 467 411 430 375 q 503 507 503 446 q 391 609 503 609 q 287 573 325 609 q 249 479 249 538 q 364 375 249 375 m 159 31 q 115 -42 115 -6 q 165 -117 115 -87 q 315 -146 215 -146 q 510 -42 510 -146 q 479 8 510 -1 q 324 18 449 18 q 159 31 194 18 m 443 1086 l 506 1086 l 435 817 l 296 817 l 443 1086 z "},"Ĥ":{"ha":897,"x_min":44,"x_max":892,"o":"m 738 0 l 572 0 l 639 401 l 277 401 l 210 0 l 44 0 l 199 926 l 365 926 l 301 547 l 663 547 l 727 926 l 892 926 l 738 0 m 605 1214 l 799 1019 l 678 1004 l 589 1094 l 452 1004 l 332 1019 l 605 1214 z "},"ĥ":{"ha":747,"x_min":35,"x_max":680,"o":"m 597 0 l 446 0 l 513 408 q 526 495 526 479 q 437 586 526 586 q 322 535 377 586 q 244 340 268 484 l 187 0 l 35 0 l 190 926 l 342 926 l 283 570 q 494 710 368 710 q 626 665 572 710 q 680 524 680 621 q 665 408 680 496 l 597 0 m 321 1214 l 515 1019 l 394 1004 l 305 1094 l 168 1004 l 47 1019 l 321 1214 z "},"Ħ":{"ha":897,"x_min":44,"x_max":964,"o":"m 63 668 l 85 798 l 178 798 l 199 926 l 365 926 l 343 798 l 705 798 l 727 926 l 892 926 l 871 798 l 964 798 l 942 668 l 849 668 l 738 0 l 572 0 l 639 401 l 277 401 l 210 0 l 44 0 l 156 668 l 63 668 m 321 668 l 301 547 l 663 547 l 684 668 l 321 668 z "},"ħ":{"ha":747,"x_min":35,"x_max":680,"o":"m 80 767 l 94 850 l 178 850 l 190 926 l 342 926 l 330 850 l 524 850 l 510 767 l 315 767 l 283 570 q 494 710 368 710 q 626 665 572 710 q 680 524 680 621 q 665 408 680 496 l 597 0 l 446 0 l 513 408 q 526 495 526 479 q 437 586 526 586 q 322 535 377 586 q 244 340 268 484 l 187 0 l 35 0 l 163 767 l 80 767 z "},"Ĩ":{"ha":375,"x_min":44,"x_max":529,"o":"m 216 0 l 44 0 l 199 926 l 370 926 l 216 0 m 494 1174 l 529 1107 q 386 1027 469 1027 q 286 1059 345 1027 q 217 1085 239 1085 q 122 1031 185 1085 l 87 1096 q 235 1179 164 1179 q 323 1152 273 1179 q 406 1124 378 1124 q 494 1174 448 1124 z "},"ĩ":{"ha":345,"x_min":31,"x_max":473,"o":"m 195 0 l 35 0 l 151 690 l 310 690 l 195 0 m 438 961 l 473 894 q 330 814 414 814 q 230 846 289 814 q 161 872 183 872 q 66 818 130 872 l 31 883 q 179 966 109 966 q 267 939 217 966 q 350 911 322 911 q 438 961 393 911 z "},"Ī":{"ha":375,"x_min":44,"x_max":524,"o":"m 216 0 l 44 0 l 199 926 l 370 926 l 216 0 m 510 1051 l 113 1051 l 127 1139 l 524 1139 l 510 1051 z "},"ī":{"ha":345,"x_min":35,"x_max":467,"o":"m 195 0 l 35 0 l 151 690 l 310 690 l 195 0 m 452 829 l 55 829 l 70 917 l 467 917 l 452 829 z "},"Ĭ":{"ha":375,"x_min":44,"x_max":534,"o":"m 216 0 l 44 0 l 199 926 l 370 926 l 216 0 m 121 1198 l 211 1198 q 242 1125 211 1142 q 313 1108 273 1108 q 444 1198 414 1108 l 534 1198 q 450 1063 515 1114 q 295 1012 384 1012 q 166 1056 212 1012 q 119 1164 119 1099 q 121 1198 119 1176 z "},"ĭ":{"ha":345,"x_min":35,"x_max":488,"o":"m 195 0 l 35 0 l 151 690 l 310 690 l 195 0 m 75 987 l 165 987 q 196 914 165 931 q 267 897 227 897 q 398 987 368 897 l 488 987 q 404 852 469 903 q 249 801 338 801 q 120 845 166 801 q 73 953 73 888 q 75 987 73 965 z "},"Į":{"ha":375,"x_min":26,"x_max":372,"o":"m 45 0 l 201 926 l 372 926 l 217 0 q 125 -114 125 -58 q 144 -158 125 -139 q 193 -176 163 -176 q 248 -164 218 -176 l 260 -219 q 161 -243 205 -243 q 62 -215 98 -243 q 26 -138 26 -187 q 138 0 26 -62 l 45 0 z "},"į":{"ha":345,"x_min":-15,"x_max":351,"o":"m 323 770 l 164 770 l 192 935 l 351 935 l 323 770 m 195 0 l 35 0 l 151 690 l 310 690 l 195 0 m 195 0 q 83 -118 83 -55 q 150 -172 83 -172 q 212 -160 177 -172 l 220 -210 q 108 -233 164 -233 q 17 -207 49 -233 q -15 -142 -15 -180 q 120 0 -15 -53 l 195 0 z "},"Ĳ":{"ha":798,"x_min":-44,"x_max":802,"o":"m 127 0 l -44 0 l 111 926 l 282 926 l 127 0 m 220 -2 l 245 136 q 338 131 296 131 q 478 172 443 131 q 531 313 514 212 l 633 926 l 802 926 l 705 340 q 652 137 682 205 q 551 26 622 70 q 361 -17 480 -17 q 220 -2 298 -17 z "},"ĳ":{"ha":689,"x_min":35,"x_max":695,"o":"m 323 770 l 164 770 l 192 935 l 351 935 l 323 770 m 195 0 l 35 0 l 151 690 l 310 690 l 195 0 m 667 772 l 508 772 l 536 935 l 695 935 l 667 772 m 654 690 l 549 61 q 502 -126 528 -66 q 416 -223 477 -186 q 263 -260 355 -260 q 159 -252 208 -260 l 168 -122 q 243 -131 208 -131 q 344 -96 319 -131 q 385 35 369 -60 l 494 690 l 654 690 z "},"Ĵ":{"ha":520,"x_min":-58,"x_max":669,"o":"m -58 -2 l -31 136 q 61 131 19 131 q 201 172 166 131 q 254 313 237 212 l 356 926 l 526 926 l 427 340 q 375 137 405 205 q 274 26 345 70 q 85 -17 203 -17 q -58 -2 22 -17 m 475 1214 l 669 1019 l 549 1004 l 460 1094 l 322 1004 l 202 1019 l 475 1214 z "},"ĵ":{"ha":345,"x_min":-185,"x_max":465,"o":"m 271 1001 l 465 806 l 345 791 l 256 881 l 118 791 l -2 806 l 271 1001 m 310 690 l 205 61 q 159 -124 184 -64 q 73 -222 134 -184 q -81 -260 13 -260 q -185 -252 -136 -260 l -176 -122 q -101 -131 -136 -131 q 0 -96 -25 -131 q 41 35 25 -60 l 151 690 l 310 690 z "},"Ķ":{"ha":857,"x_min":44,"x_max":897,"o":"m 777 0 l 602 0 l 464 465 l 248 229 l 210 0 l 44 0 l 199 926 l 365 926 l 297 522 q 276 425 295 511 q 328 493 300 463 l 719 926 l 897 926 l 593 595 l 777 0 m 308 -325 l 245 -325 l 316 -74 l 455 -74 l 308 -325 z "},"ķ":{"ha":753,"x_min":35,"x_max":758,"o":"m 686 0 l 522 0 l 402 368 l 220 199 l 187 0 l 35 0 l 190 926 l 342 926 l 249 368 l 596 690 l 758 690 l 524 472 l 686 0 m 262 -325 l 199 -325 l 271 -74 l 410 -74 l 262 -325 z "},"ĸ":{"ha":753,"x_min":35,"x_max":758,"o":"m 686 0 l 522 0 l 402 368 l 220 199 l 187 0 l 35 0 l 151 690 l 302 690 l 249 368 l 596 690 l 758 690 l 524 472 l 686 0 z "},"Ĺ":{"ha":678,"x_min":44,"x_max":624,"o":"m 600 0 l 44 0 l 199 926 l 375 926 l 244 145 l 624 145 l 600 0 m 496 1221 l 541 1128 l 258 1000 l 229 1072 l 496 1221 z "},"ĺ":{"ha":345,"x_min":35,"x_max":509,"o":"m 195 0 l 35 0 l 190 926 l 349 926 l 195 0 m 464 1221 l 509 1128 l 226 1000 l 197 1072 l 464 1221 z "},"Ļ":{"ha":678,"x_min":44,"x_max":624,"o":"m 600 0 l 44 0 l 199 926 l 375 926 l 244 145 l 624 145 l 600 0 m 241 -325 l 178 -325 l 250 -74 l 389 -74 l 241 -325 z "},"ļ":{"ha":345,"x_min":-30,"x_max":349,"o":"m 195 0 l 35 0 l 190 926 l 349 926 l 195 0 m 33 -325 l -30 -325 l 41 -74 l 180 -74 l 33 -325 z "},"Ľ":{"ha":678,"x_min":44,"x_max":680,"o":"m 600 0 l 44 0 l 199 926 l 375 926 l 244 145 l 624 145 l 600 0 m 533 656 l 470 656 l 541 926 l 680 926 l 533 656 z "},"ľ":{"ha":488,"x_min":35,"x_max":590,"o":"m 195 0 l 35 0 l 190 926 l 349 926 l 195 0 m 443 656 l 380 656 l 451 926 l 590 926 l 443 656 z "},"Ŀ":{"ha":678,"x_min":44,"x_max":646,"o":"m 600 0 l 44 0 l 199 926 l 375 926 l 244 145 l 624 145 l 600 0 m 617 387 l 455 387 l 484 557 l 646 557 l 617 387 z "},"ŀ":{"ha":507,"x_min":35,"x_max":543,"o":"m 195 0 l 35 0 l 190 926 l 349 926 l 195 0 m 515 387 l 353 387 l 381 557 l 543 557 l 515 387 z "},"Ń":{"ha":902,"x_min":44,"x_max":897,"o":"m 742 0 l 610 0 l 294 696 l 178 0 l 44 0 l 199 926 l 370 926 l 659 290 l 765 926 l 897 926 l 742 0 m 758 1221 l 802 1128 l 519 1000 l 491 1072 l 758 1221 z "},"ń":{"ha":746,"x_min":35,"x_max":677,"o":"m 596 0 l 444 0 l 515 414 q 522 494 522 461 q 501 558 522 532 q 436 585 479 585 q 314 514 367 585 q 239 311 261 444 l 187 0 l 35 0 l 151 690 l 292 690 l 264 529 q 384 679 329 650 q 491 709 439 709 q 622 657 566 709 q 677 515 677 606 q 663 400 677 479 l 596 0 m 625 1008 l 669 916 l 387 787 l 358 860 l 625 1008 z "},"Ņ":{"ha":902,"x_min":44,"x_max":897,"o":"m 742 0 l 610 0 l 294 696 l 178 0 l 44 0 l 199 926 l 370 926 l 659 290 l 765 926 l 897 926 l 742 0 m 313 -325 l 250 -325 l 321 -74 l 460 -74 l 313 -325 z "},"ņ":{"ha":746,"x_min":35,"x_max":677,"o":"m 596 0 l 444 0 l 515 414 q 522 494 522 461 q 501 558 522 532 q 436 585 479 585 q 314 514 367 585 q 239 311 261 444 l 187 0 l 35 0 l 151 690 l 292 690 l 264 529 q 384 679 329 650 q 491 709 439 709 q 622 657 566 709 q 677 515 677 606 q 663 400 677 479 l 596 0 m 231 -325 l 168 -325 l 239 -74 l 378 -74 l 231 -325 z "},"Ň":{"ha":902,"x_min":44,"x_max":897,"o":"m 742 0 l 610 0 l 294 696 l 178 0 l 44 0 l 199 926 l 370 926 l 659 290 l 765 926 l 897 926 l 742 0 m 593 995 l 399 1190 l 519 1204 l 608 1115 l 745 1204 l 866 1190 l 593 995 z "},"ň":{"ha":746,"x_min":35,"x_max":713,"o":"m 596 0 l 444 0 l 515 414 q 522 494 522 461 q 501 558 522 532 q 436 585 479 585 q 314 514 367 585 q 239 311 261 444 l 187 0 l 35 0 l 151 690 l 292 690 l 264 529 q 384 679 329 650 q 491 709 439 709 q 622 657 566 709 q 677 515 677 606 q 663 400 677 479 l 596 0 m 440 783 l 246 978 l 366 991 l 456 903 l 593 991 l 713 978 l 440 783 z "},"ŉ":{"ha":930,"x_min":131,"x_max":861,"o":"m 780 0 l 628 0 l 699 414 q 706 494 706 461 q 685 558 706 532 q 620 585 663 585 q 498 514 551 585 q 423 311 445 444 l 371 0 l 219 0 l 334 690 l 475 690 l 448 529 q 568 679 513 650 q 675 709 623 709 q 805 657 750 709 q 861 515 861 606 q 847 400 861 479 l 780 0 m 185 600 l 131 600 l 234 776 l 160 776 l 185 926 l 333 926 l 309 786 l 185 600 z "},"Ŋ":{"ha":897,"x_min":44,"x_max":846,"o":"m 199 926 l 350 926 l 314 710 q 402 854 372 814 q 488 923 432 894 q 608 952 545 952 q 777 882 707 952 q 846 695 846 812 q 827 537 846 648 l 766 171 q 705 -79 738 2 q 593 -210 672 -159 q 396 -260 515 -260 q 274 -250 332 -260 l 285 -104 q 391 -116 343 -116 q 503 -91 465 -116 q 558 -21 541 -66 q 595 137 576 24 l 668 574 q 680 687 680 643 q 649 777 680 740 q 557 813 618 813 q 386 712 460 813 q 279 417 312 611 l 210 0 l 44 0 l 199 926 z "},"ŋ":{"ha":746,"x_min":35,"x_max":677,"o":"m 151 690 l 292 690 l 264 529 q 384 679 329 650 q 491 709 439 709 q 622 657 566 709 q 677 515 677 606 q 663 400 677 479 l 606 61 q 561 -124 585 -64 q 475 -222 536 -184 q 321 -260 415 -260 q 216 -252 266 -260 l 224 -127 q 305 -135 269 -135 q 385 -118 358 -135 q 425 -71 412 -100 q 450 35 437 -41 l 513 414 q 522 495 522 463 q 500 558 522 532 q 436 585 479 585 q 314 514 367 585 q 239 311 261 444 l 187 0 l 35 0 l 151 690 z "},"Ō":{"ha":898,"x_min":71,"x_max":868,"o":"m 71 394 q 190 780 71 607 q 509 952 309 952 q 772 840 676 952 q 868 533 868 728 q 747 145 868 315 q 424 -25 625 -25 q 174 90 277 -25 q 71 394 71 205 m 246 365 q 300 172 246 229 q 430 114 353 114 q 627 262 564 114 q 690 570 690 411 q 499 813 690 813 q 309 660 372 813 q 246 365 246 507 m 767 1051 l 370 1051 l 385 1139 l 781 1139 l 767 1051 z "},"ō":{"ha":729,"x_min":48,"x_max":682,"o":"m 343 -18 q 195 16 267 -18 q 86 124 123 50 q 48 299 48 197 q 145 584 48 464 q 399 705 242 705 q 605 618 528 705 q 682 386 682 532 q 590 109 682 236 q 343 -18 498 -18 m 345 106 q 480 202 437 106 q 524 401 524 297 q 385 581 524 581 q 246 478 288 581 q 204 274 204 376 q 245 147 204 188 q 345 106 286 106 m 640 829 l 243 829 l 258 917 l 654 917 l 640 829 z "},"Ŏ":{"ha":898,"x_min":71,"x_max":868,"o":"m 71 394 q 190 780 71 607 q 509 952 309 952 q 772 840 676 952 q 868 533 868 728 q 747 145 868 315 q 424 -25 625 -25 q 174 90 277 -25 q 71 394 71 205 m 246 365 q 300 172 246 229 q 430 114 353 114 q 627 262 564 114 q 690 570 690 411 q 499 813 690 813 q 309 660 372 813 q 246 365 246 507 m 360 1198 l 450 1198 q 480 1125 450 1142 q 552 1108 511 1108 q 683 1198 653 1108 l 772 1198 q 688 1063 754 1114 q 534 1012 623 1012 q 405 1056 451 1012 q 358 1164 358 1099 q 360 1198 358 1176 z "},"ŏ":{"ha":729,"x_min":48,"x_max":682,"o":"m 343 -18 q 195 16 267 -18 q 86 124 123 50 q 48 299 48 197 q 145 584 48 464 q 399 705 242 705 q 605 618 528 705 q 682 386 682 532 q 590 109 682 236 q 343 -18 498 -18 m 345 106 q 480 202 437 106 q 524 401 524 297 q 385 581 524 581 q 246 478 288 581 q 204 274 204 376 q 245 147 204 188 q 345 106 286 106 m 244 987 l 334 987 q 365 914 334 931 q 436 897 395 897 q 567 987 537 897 l 656 987 q 572 852 638 903 q 418 801 507 801 q 289 845 335 801 q 242 953 242 888 q 244 987 242 965 z "},"Ő":{"ha":898,"x_min":71,"x_max":886,"o":"m 71 394 q 190 780 71 607 q 509 952 309 952 q 772 840 676 952 q 868 533 868 728 q 747 145 868 315 q 424 -25 625 -25 q 174 90 277 -25 q 71 394 71 205 m 246 365 q 300 172 246 229 q 430 114 353 114 q 627 262 564 114 q 690 570 690 411 q 499 813 690 813 q 309 660 372 813 q 246 365 246 507 m 600 1217 l 654 1137 l 416 995 l 380 1052 l 600 1217 m 831 1217 l 886 1137 l 647 995 l 611 1052 l 831 1217 z "},"ő":{"ha":729,"x_min":48,"x_max":765,"o":"m 343 -18 q 195 16 267 -18 q 86 124 123 50 q 48 299 48 197 q 145 584 48 464 q 399 705 242 705 q 605 618 528 705 q 682 386 682 532 q 590 109 682 236 q 343 -18 498 -18 m 345 106 q 480 202 437 106 q 524 401 524 297 q 385 581 524 581 q 246 478 288 581 q 204 274 204 376 q 245 147 204 188 q 345 106 286 106 m 479 1004 l 534 925 l 295 783 l 259 840 l 479 1004 m 711 1004 l 765 925 l 526 783 l 490 840 l 711 1004 z "},"Ŕ":{"ha":888,"x_min":44,"x_max":871,"o":"m 765 0 l 588 0 l 490 380 l 273 380 l 210 0 l 44 0 l 199 926 l 547 926 q 713 906 652 926 q 822 821 774 887 q 871 671 871 755 q 817 502 871 580 q 652 399 764 425 l 765 0 m 296 515 l 526 515 q 665 562 631 515 q 699 661 699 609 q 675 738 699 706 q 620 780 652 770 q 524 791 588 791 l 342 791 l 296 515 m 670 1221 l 715 1128 l 432 1000 l 404 1072 l 670 1221 z "},"ŕ":{"ha":482,"x_min":35,"x_max":576,"o":"m 187 0 l 35 0 l 151 690 l 290 690 l 259 502 q 498 709 348 709 q 516 708 504 709 l 496 538 q 463 540 474 540 q 356 510 406 540 q 278 430 307 480 q 231 264 250 379 l 187 0 m 531 1008 l 576 916 l 293 787 l 264 860 l 531 1008 z "},"Ŗ":{"ha":888,"x_min":44,"x_max":871,"o":"m 765 0 l 588 0 l 490 380 l 273 380 l 210 0 l 44 0 l 199 926 l 547 926 q 713 906 652 926 q 822 821 774 887 q 871 671 871 755 q 817 502 871 580 q 652 399 764 425 l 765 0 m 296 515 l 526 515 q 665 562 631 515 q 699 661 699 609 q 675 738 699 706 q 620 780 652 770 q 524 791 588 791 l 342 791 l 296 515 m 304 -325 l 241 -325 l 313 -74 l 452 -74 l 304 -325 z "},"ŗ":{"ha":482,"x_min":-33,"x_max":516,"o":"m 187 0 l 35 0 l 151 690 l 290 690 l 259 502 q 498 709 348 709 q 516 708 504 709 l 496 538 q 463 540 474 540 q 356 510 406 540 q 278 430 307 480 q 231 264 250 379 l 187 0 m 30 -325 l -33 -325 l 38 -74 l 177 -74 l 30 -325 z "},"Ř":{"ha":888,"x_min":44,"x_max":871,"o":"m 765 0 l 588 0 l 490 380 l 273 380 l 210 0 l 44 0 l 199 926 l 547 926 q 713 906 652 926 q 822 821 774 887 q 871 671 871 755 q 817 502 871 580 q 652 399 764 425 l 765 0 m 296 515 l 526 515 q 665 562 631 515 q 699 661 699 609 q 675 738 699 706 q 620 780 652 770 q 524 791 588 791 l 342 791 l 296 515 m 505 995 l 311 1190 l 431 1204 l 521 1115 l 658 1204 l 779 1190 l 505 995 z "},"ř":{"ha":482,"x_min":35,"x_max":613,"o":"m 187 0 l 35 0 l 151 690 l 290 690 l 259 502 q 498 709 348 709 q 516 708 504 709 l 496 538 q 463 540 474 540 q 356 510 406 540 q 278 430 307 480 q 231 264 250 379 l 187 0 m 340 783 l 146 978 l 266 991 l 355 903 l 492 991 l 613 978 l 340 783 z "},"Ś":{"ha":768,"x_min":-11,"x_max":756,"o":"m 756 750 l 604 694 q 428 809 555 809 q 308 773 351 809 q 264 683 264 736 q 294 615 264 642 q 390 570 323 589 l 517 533 q 621 484 572 517 q 695 399 671 450 q 720 292 720 348 q 626 73 720 165 q 351 -20 532 -20 q -11 211 72 -20 l 140 264 q 361 119 195 119 q 503 163 456 119 q 549 262 549 207 q 531 318 549 294 q 488 353 514 341 q 382 388 461 366 q 217 448 271 420 q 128 531 162 477 q 94 660 94 585 q 185 867 94 787 q 435 948 277 948 q 756 750 668 948 m 650 1221 l 694 1128 l 412 1000 l 383 1072 l 650 1221 z "},"ś":{"ha":636,"x_min":-25,"x_max":614,"o":"m 120 203 q 283 100 160 100 q 381 125 345 100 q 416 190 416 151 q 392 236 416 219 q 311 269 368 253 q 173 317 218 295 q 98 383 128 338 q 67 486 67 428 q 136 643 67 576 q 329 709 204 709 q 614 547 532 709 l 483 505 q 333 595 437 595 q 254 573 286 595 q 221 515 221 551 q 237 472 221 489 q 301 441 253 455 q 464 385 411 409 q 548 316 517 361 q 579 214 579 272 q 504 51 579 117 q 282 -15 429 -15 q -25 168 47 -15 l 120 203 m 544 1008 l 589 916 l 306 787 l 277 860 l 544 1008 z "},"Ŝ":{"ha":768,"x_min":-11,"x_max":756,"o":"m 756 750 l 604 694 q 428 809 555 809 q 308 773 351 809 q 264 683 264 736 q 294 615 264 642 q 390 570 323 589 l 517 533 q 621 484 572 517 q 695 399 671 450 q 720 292 720 348 q 626 73 720 165 q 351 -20 532 -20 q -11 211 72 -20 l 140 264 q 361 119 195 119 q 503 163 456 119 q 549 262 549 207 q 531 318 549 294 q 488 353 514 341 q 382 388 461 366 q 217 448 271 420 q 128 531 162 477 q 94 660 94 585 q 185 867 94 787 q 435 948 277 948 q 756 750 668 948 m 508 1214 l 702 1019 l 581 1004 l 492 1094 l 355 1004 l 235 1019 l 508 1214 z "},"ŝ":{"ha":636,"x_min":-25,"x_max":614,"o":"m 120 203 q 283 100 160 100 q 381 125 345 100 q 416 190 416 151 q 392 236 416 219 q 311 269 368 253 q 173 317 218 295 q 98 383 128 338 q 67 486 67 428 q 136 643 67 576 q 329 709 204 709 q 614 547 532 709 l 483 505 q 333 595 437 595 q 254 573 286 595 q 221 515 221 551 q 237 472 221 489 q 301 441 253 455 q 464 385 411 409 q 548 316 517 361 q 579 214 579 272 q 504 51 579 117 q 282 -15 429 -15 q -25 168 47 -15 l 120 203 m 404 1001 l 597 806 l 477 791 l 388 881 l 250 791 l 130 806 l 404 1001 z "},"Ţ":{"ha":641,"x_min":73,"x_max":739,"o":"m 714 781 l 479 781 l 348 0 l 178 0 l 309 781 l 73 781 l 98 926 l 739 926 l 714 781 m 173 -325 l 110 -325 l 181 -74 l 320 -74 l 173 -325 z "},"ţ":{"ha":446,"x_min":42,"x_max":463,"o":"m 358 -1 q 261 -12 290 -12 q 121 32 165 -12 q 77 136 77 75 q 92 260 77 168 l 144 566 l 42 566 l 63 690 l 167 690 l 208 876 l 347 885 l 314 690 l 463 690 l 442 566 l 293 566 l 241 258 q 232 185 232 201 q 330 119 232 119 q 379 124 350 119 l 358 -1 m 125 -325 l 62 -325 l 134 -74 l 273 -74 l 125 -325 z "},"Ť":{"ha":641,"x_min":73,"x_max":739,"o":"m 714 781 l 479 781 l 348 0 l 178 0 l 309 781 l 73 781 l 98 926 l 739 926 l 714 781 m 429 996 l 235 1191 l 355 1204 l 445 1116 l 582 1204 l 703 1191 l 429 996 z "},"ť":{"ha":491,"x_min":42,"x_max":612,"o":"m 358 -1 q 261 -12 290 -12 q 121 32 165 -12 q 77 136 77 75 q 92 260 77 168 l 144 566 l 42 566 l 63 690 l 167 690 l 208 876 l 347 885 l 314 690 l 463 690 l 442 566 l 293 566 l 241 258 q 232 185 232 201 q 330 119 232 119 q 379 124 350 119 l 358 -1 m 465 764 l 401 764 l 473 1033 l 612 1033 l 465 764 z "},"Ŧ":{"ha":641,"x_min":72,"x_max":739,"o":"m 634 602 l 612 472 l 427 472 l 349 0 l 178 0 l 257 472 l 72 472 l 94 602 l 279 602 l 309 781 l 73 781 l 98 926 l 739 926 l 714 781 l 479 781 l 449 602 l 634 602 z "},"ŧ":{"ha":446,"x_min":20,"x_max":463,"o":"m 20 382 l 35 466 l 127 466 l 144 566 l 41 566 l 62 690 l 167 690 l 208 876 l 346 885 l 313 690 l 463 690 l 441 566 l 292 566 l 276 466 l 416 466 l 402 382 l 262 382 l 241 258 q 232 185 232 203 q 329 119 232 119 q 379 124 350 119 l 358 -1 q 260 -12 290 -12 q 119 32 163 -12 q 76 136 76 76 q 92 260 76 169 l 113 382 l 20 382 z "},"Ũ":{"ha":840,"x_min":87,"x_max":845,"o":"m 845 926 l 745 328 q 695 145 725 210 q 584 30 665 81 q 392 -21 504 -21 q 256 2 322 -21 q 139 89 190 25 q 87 259 87 152 q 100 390 87 313 l 190 926 l 361 926 l 269 381 q 254 263 254 293 q 302 155 254 189 q 414 122 351 122 q 511 144 469 122 q 577 210 553 165 q 619 368 600 255 l 712 926 l 845 926 m 743 1174 l 779 1107 q 635 1027 719 1027 q 535 1059 594 1027 q 467 1085 488 1085 q 372 1031 435 1085 l 336 1096 q 484 1179 414 1179 q 572 1152 522 1179 q 655 1124 627 1124 q 743 1174 698 1124 z "},"ũ":{"ha":734,"x_min":66,"x_max":700,"o":"m 585 0 l 444 0 l 469 151 q 235 -13 381 -13 q 110 39 153 -13 q 66 155 66 92 q 84 292 66 189 l 151 690 l 302 690 l 231 262 q 221 189 221 203 q 242 136 221 156 q 297 117 263 117 q 393 155 344 117 q 462 246 441 194 q 499 398 482 298 l 548 690 l 700 690 l 585 0 m 644 961 l 680 894 q 536 814 620 814 q 436 846 495 814 q 368 872 389 872 q 273 818 336 872 l 237 883 q 385 966 315 966 q 473 939 423 966 q 556 911 528 911 q 644 961 599 911 z "},"Ū":{"ha":840,"x_min":87,"x_max":845,"o":"m 845 926 l 745 328 q 695 145 725 210 q 584 30 665 81 q 392 -21 504 -21 q 256 2 322 -21 q 139 89 190 25 q 87 259 87 152 q 100 390 87 313 l 190 926 l 361 926 l 269 381 q 254 263 254 293 q 302 155 254 189 q 414 122 351 122 q 511 144 469 122 q 577 210 553 165 q 619 368 600 255 l 712 926 l 845 926 m 745 1051 l 348 1051 l 363 1139 l 760 1139 l 745 1051 z "},"ū":{"ha":734,"x_min":66,"x_max":700,"o":"m 585 0 l 444 0 l 469 151 q 235 -13 381 -13 q 110 39 153 -13 q 66 155 66 92 q 84 292 66 189 l 151 690 l 302 690 l 231 262 q 221 189 221 203 q 242 136 221 156 q 297 117 263 117 q 393 155 344 117 q 462 246 441 194 q 499 398 482 298 l 548 690 l 700 690 l 585 0 m 647 829 l 250 829 l 264 917 l 661 917 l 647 829 z "},"Ŭ":{"ha":840,"x_min":87,"x_max":845,"o":"m 845 926 l 745 328 q 695 145 725 210 q 584 30 665 81 q 392 -21 504 -21 q 256 2 322 -21 q 139 89 190 25 q 87 259 87 152 q 100 390 87 313 l 190 926 l 361 926 l 269 381 q 254 263 254 293 q 302 155 254 189 q 414 122 351 122 q 511 144 469 122 q 577 210 553 165 q 619 368 600 255 l 712 926 l 845 926 m 367 1198 l 456 1198 q 487 1125 456 1142 q 559 1108 518 1108 q 690 1198 660 1108 l 779 1198 q 695 1063 761 1114 q 541 1012 629 1012 q 411 1056 458 1012 q 365 1164 365 1099 q 367 1198 365 1176 z "},"ŭ":{"ha":734,"x_min":66,"x_max":700,"o":"m 585 0 l 444 0 l 469 151 q 235 -13 381 -13 q 110 39 153 -13 q 66 155 66 92 q 84 292 66 189 l 151 690 l 302 690 l 231 262 q 221 189 221 203 q 242 136 221 156 q 297 117 263 117 q 393 155 344 117 q 462 246 441 194 q 499 398 482 298 l 548 690 l 700 690 l 585 0 m 276 987 l 366 987 q 396 914 366 931 q 468 897 427 897 q 599 987 569 897 l 688 987 q 604 852 670 903 q 450 801 538 801 q 320 845 367 801 q 274 953 274 888 q 276 987 274 965 z "},"Ů":{"ha":840,"x_min":87,"x_max":845,"o":"m 845 926 l 745 328 q 695 145 725 210 q 584 30 665 81 q 392 -21 504 -21 q 256 2 322 -21 q 139 89 190 25 q 87 259 87 152 q 100 390 87 313 l 190 926 l 361 926 l 269 381 q 254 263 254 293 q 302 155 254 189 q 414 122 351 122 q 511 144 469 122 q 577 210 553 165 q 619 368 600 255 l 712 926 l 845 926 m 549 981 q 460 1017 497 981 q 424 1106 424 1054 q 461 1196 424 1158 q 549 1233 498 1233 q 636 1200 596 1233 q 675 1104 675 1166 q 639 1018 675 1055 q 549 981 603 981 m 550 1051 q 592 1068 578 1051 q 606 1104 606 1086 q 591 1146 606 1130 q 553 1162 576 1162 q 512 1148 530 1162 q 494 1107 494 1134 q 509 1068 494 1084 q 550 1051 523 1051 z "},"ů":{"ha":734,"x_min":66,"x_max":700,"o":"m 585 0 l 444 0 l 469 151 q 235 -13 381 -13 q 110 39 153 -13 q 66 155 66 92 q 84 292 66 189 l 151 690 l 302 690 l 231 262 q 221 189 221 203 q 242 136 221 156 q 297 117 263 117 q 393 155 344 117 q 462 246 441 194 q 499 398 482 298 l 548 690 l 700 690 l 585 0 m 457 768 q 368 805 405 768 q 332 894 332 842 q 369 983 332 946 q 457 1021 406 1021 q 544 987 504 1021 q 583 892 583 954 q 547 806 583 843 q 457 768 511 768 m 458 839 q 500 856 486 839 q 513 892 513 873 q 499 934 513 918 q 460 950 484 950 q 420 936 437 950 q 402 895 402 922 q 416 856 402 872 q 458 839 431 839 z "},"Ű":{"ha":840,"x_min":87,"x_max":866,"o":"m 845 926 l 745 328 q 695 145 725 210 q 584 30 665 81 q 392 -21 504 -21 q 256 2 322 -21 q 139 89 190 25 q 87 259 87 152 q 100 390 87 313 l 190 926 l 361 926 l 269 381 q 254 263 254 293 q 302 155 254 189 q 414 122 351 122 q 511 144 469 122 q 577 210 553 165 q 619 368 600 255 l 712 926 l 845 926 m 581 1217 l 635 1137 l 396 995 l 360 1052 l 581 1217 m 812 1217 l 866 1137 l 627 995 l 591 1052 l 812 1217 z "},"ű":{"ha":734,"x_min":66,"x_max":771,"o":"m 585 0 l 444 0 l 469 151 q 235 -13 381 -13 q 110 39 153 -13 q 66 155 66 92 q 84 292 66 189 l 151 690 l 302 690 l 231 262 q 221 189 221 203 q 242 136 221 156 q 297 117 263 117 q 393 155 344 117 q 462 246 441 194 q 499 398 482 298 l 548 690 l 700 690 l 585 0 m 486 1004 l 540 925 l 301 783 l 265 840 l 486 1004 m 717 1004 l 771 925 l 532 783 l 496 840 l 717 1004 z "},"Ų":{"ha":840,"x_min":87,"x_max":845,"o":"m 190 926 l 361 926 l 269 381 q 254 263 254 293 q 302 155 254 189 q 414 122 351 122 q 511 144 469 122 q 577 210 553 165 q 619 368 600 255 l 712 926 l 845 926 l 745 328 q 688 133 721 186 q 577 20 656 81 q 495 -52 515 -27 q 475 -111 475 -77 q 555 -172 475 -172 q 618 -160 587 -172 l 631 -214 q 514 -239 575 -239 q 374 -132 374 -239 q 460 -16 374 -57 q 388 -22 413 -22 q 232 12 302 -22 q 124 108 161 45 q 87 259 87 170 q 100 390 87 313 l 190 926 z "},"ų":{"ha":734,"x_min":66,"x_max":700,"o":"m 585 0 l 444 0 l 469 151 q 235 -13 381 -13 q 110 39 153 -13 q 66 155 66 92 q 84 292 66 189 l 151 690 l 302 690 l 231 262 q 221 189 221 203 q 242 136 221 156 q 297 117 263 117 q 393 155 344 117 q 462 246 441 194 q 499 398 482 298 l 548 690 l 700 690 l 585 0 m 585 0 q 473 -118 473 -55 q 540 -172 473 -172 q 602 -160 567 -172 l 610 -210 q 498 -233 554 -233 q 407 -207 439 -233 q 375 -142 375 -180 q 510 0 375 -53 l 585 0 z "},"Ŵ":{"ha":1208,"x_min":100,"x_max":1292,"o":"m 903 -7 l 736 -7 l 655 690 l 370 -7 l 209 -7 l 100 926 l 279 926 l 341 227 l 625 926 l 790 926 l 864 227 l 1145 926 l 1292 926 l 903 -7 m 756 1214 l 950 1019 l 829 1004 l 741 1094 l 603 1004 l 483 1019 l 756 1214 z "},"ŵ":{"ha":971,"x_min":62,"x_max":1015,"o":"m 699 0 l 557 0 l 505 490 l 305 0 l 165 0 l 62 690 l 219 690 l 281 213 l 481 690 l 618 690 l 668 214 l 881 690 l 1015 690 l 699 0 m 590 1001 l 784 806 l 663 791 l 574 881 l 437 791 l 317 806 l 590 1001 z "},"Ŷ":{"ha":720,"x_min":58,"x_max":836,"o":"m 402 0 l 228 0 l 293 390 l 58 926 l 248 926 l 412 526 l 675 926 l 836 926 l 466 382 l 402 0 m 517 1214 l 711 1019 l 590 1004 l 501 1094 l 363 1004 l 243 1019 l 517 1214 z "},"ŷ":{"ha":633,"x_min":-39,"x_max":681,"o":"m -39 -245 l -32 -113 q 59 -119 7 -119 q 139 -99 107 -119 q 196 -24 170 -79 l 222 31 l 53 690 l 216 690 l 320 215 l 548 690 l 681 690 l 327 -24 q 251 -161 277 -123 q 174 -225 224 -199 q 43 -251 123 -251 q -39 -245 5 -251 m 431 1001 l 625 806 l 504 791 l 415 881 l 277 791 l 157 806 l 431 1001 z "},"Ź":{"ha":730,"x_min":-30,"x_max":788,"o":"m 650 0 l -30 0 l -7 136 l 551 781 l 115 781 l 139 926 l 788 926 l 770 810 l 193 145 l 674 145 l 650 0 m 656 1221 l 701 1128 l 418 1000 l 390 1072 l 656 1221 z "},"ź":{"ha":585,"x_min":-23,"x_max":600,"o":"m 496 0 l -23 0 l -4 124 l 383 570 l 90 570 l 110 690 l 600 690 l 582 583 l 186 124 l 516 124 l 496 0 m 546 1008 l 591 916 l 308 787 l 279 860 l 546 1008 z "},"Ż":{"ha":730,"x_min":-30,"x_max":788,"o":"m 650 0 l -30 0 l -7 136 l 551 781 l 115 781 l 139 926 l 788 926 l 770 810 l 193 145 l 674 145 l 650 0 m 480 1025 q 426 1047 448 1025 q 405 1098 405 1068 q 426 1151 405 1128 q 480 1173 447 1173 q 534 1153 511 1173 q 557 1099 557 1133 q 535 1045 557 1065 q 480 1025 512 1025 z "},"ż":{"ha":585,"x_min":-23,"x_max":600,"o":"m 496 0 l -23 0 l -4 124 l 383 570 l 90 570 l 110 690 l 600 690 l 582 583 l 186 124 l 516 124 l 496 0 m 375 806 q 321 827 342 806 q 300 878 300 848 q 321 931 300 908 q 375 954 342 954 q 429 933 406 954 q 452 879 452 913 q 430 825 452 845 q 375 806 407 806 z "},"ſ":{"ha":814,"x_min":245,"x_max":740,"o":"m 397 0 l 245 0 l 360 690 q 644 958 406 958 q 740 949 706 958 l 727 823 q 656 831 694 831 q 580 815 610 831 q 537 775 550 799 q 514 690 524 751 l 397 0 z "},"Ǻ":{"ha":837,"x_min":-39,"x_max":780,"o":"m 687 1225 l 372 1119 l 348 1192 l 647 1321 l 687 1225 m 402 919 q 382 985 382 949 q 419 1076 382 1038 q 508 1113 456 1113 q 595 1079 556 1113 q 634 989 634 1045 q 612 915 634 949 l 780 0 l 595 0 l 557 224 l 221 224 l 118 0 l -39 0 l 402 919 m 509 932 q 551 949 537 932 q 564 984 564 966 q 551 1025 564 1008 q 511 1043 538 1043 q 471 1029 488 1043 q 453 987 453 1015 q 467 948 453 965 q 509 932 481 932 m 541 353 l 473 793 l 278 353 l 541 353 m 269 926 z "},"ǻ":{"ha":744,"x_min":22,"x_max":672,"o":"m 608 0 l 458 0 q 456 30 456 18 q 469 149 456 79 q 371 27 435 71 q 231 -18 307 -18 q 80 40 138 -18 q 22 181 22 97 q 126 366 22 297 q 450 434 229 434 q 516 431 478 434 q 521 481 521 463 q 483 565 521 536 q 387 593 444 593 q 228 498 278 593 l 92 541 q 394 709 178 709 q 597 650 523 709 q 672 495 672 592 q 640 277 672 454 q 605 40 605 90 q 608 0 605 22 m 503 352 q 256 305 326 342 q 187 196 187 268 q 215 129 187 155 q 291 102 243 102 q 419 163 360 102 q 503 352 478 224 m 441 768 q 352 805 389 768 q 315 894 315 842 q 352 983 315 946 q 441 1021 389 1021 q 527 987 488 1021 q 567 892 567 954 q 531 806 567 843 q 441 768 494 768 m 441 839 q 484 856 470 839 q 497 892 497 873 q 483 934 497 918 q 444 950 468 950 q 404 936 421 950 q 386 895 386 922 q 400 856 386 872 q 441 839 414 839 m 579 1261 l 624 1168 l 341 1040 l 313 1112 l 579 1261 z "},"Ǽ":{"ha":1164,"x_min":-81,"x_max":1203,"o":"m 1065 0 l 451 0 l 491 238 l 227 238 l 75 0 l -81 0 l 526 926 l 1203 926 l 1179 781 l 747 781 l 707 540 l 1067 540 l 1044 404 l 684 404 l 642 145 l 1090 145 l 1065 0 m 512 364 l 583 789 l 309 364 l 512 364 m 1016 1221 l 1061 1128 l 778 1000 l 749 1072 l 1016 1221 z "},"ǽ":{"ha":1152,"x_min":22,"x_max":1107,"o":"m 1065 190 q 762 -17 966 -17 q 507 146 574 -17 q 237 -18 400 -18 q 82 38 142 -18 q 22 182 22 94 q 450 433 22 433 q 513 431 477 433 q 519 473 519 455 q 384 593 519 593 q 228 499 277 593 l 94 542 q 393 707 184 707 q 613 621 545 707 q 827 707 695 707 q 1030 623 953 707 q 1107 400 1107 540 q 1102 326 1107 368 l 627 326 q 622 274 622 297 q 661 149 622 195 q 768 103 700 103 q 930 229 876 103 l 1065 190 m 963 424 l 963 439 q 930 549 963 501 q 823 597 897 597 q 704 544 751 597 q 646 424 657 490 l 963 424 m 500 351 q 259 309 335 343 q 184 197 184 275 q 214 127 184 151 q 290 102 243 102 q 421 168 363 102 q 500 351 479 233 m 749 1008 l 793 916 l 511 787 l 482 860 l 749 1008 z "},"Ǿ":{"ha":898,"x_min":-15,"x_max":946,"o":"m 197 64 l 119 -21 l -15 -21 l 128 150 q 71 393 71 258 q 191 778 71 604 q 509 952 311 952 q 743 869 651 952 l 812 943 l 946 943 l 812 785 q 869 538 869 672 q 745 142 869 309 q 427 -25 622 -25 q 197 64 300 -25 m 638 758 q 499 813 586 813 q 310 660 374 813 q 246 344 246 507 q 252 284 246 321 l 638 758 m 297 174 q 434 114 351 114 q 626 257 561 114 q 691 577 691 400 q 684 650 691 610 l 297 174 m 679 1221 l 724 1128 l 441 1000 l 412 1072 l 679 1221 z "},"ǿ":{"ha":729,"x_min":1,"x_max":724,"o":"m 153 40 l 102 -20 l 1 -20 l 99 99 q 48 298 48 184 q 144 584 48 462 q 393 705 240 705 q 572 648 502 705 l 625 707 l 724 707 l 626 593 q 683 395 683 509 q 586 105 683 227 q 339 -18 489 -18 q 153 40 237 -18 m 477 549 q 384 581 443 581 q 248 480 291 581 q 204 267 204 378 q 210 216 204 243 l 477 549 m 245 146 q 341 106 287 106 q 479 201 434 106 q 524 412 524 296 q 516 477 524 445 l 245 146 m 553 1008 l 597 916 l 315 787 l 286 860 l 553 1008 z "},"΄":{"ha":694,"x_min":-185,"x_max":93,"o":"m -5 991 l 93 926 l -126 682 l -185 722 l -5 991 z "},"΅":{"ha":694,"x_min":248,"x_max":652,"o":"m 599 1194 l 652 1105 l 430 975 l 399 1036 l 599 1194 m 323 806 q 269 827 290 806 q 248 878 248 848 q 269 931 248 908 q 323 954 290 954 q 377 933 354 954 q 400 879 400 913 q 377 825 400 845 q 323 806 355 806 m 550 806 q 495 827 517 806 q 474 878 474 849 q 495 931 474 908 q 550 954 517 954 q 604 933 581 954 q 627 879 627 913 q 605 825 627 845 q 550 806 582 806 z "},"Ά":{"ha":837,"x_min":-39,"x_max":780,"o":"m 780 0 l 595 0 l 557 224 l 221 224 l 118 0 l -39 0 l 405 926 l 610 926 l 780 0 m 541 353 l 469 764 l 278 353 l 541 353 m 208 991 l 306 926 l 87 682 l 28 722 l 208 991 z "},"·":{"ha":191,"x_min":0,"x_max":191,"o":"m 162 258 l 0 258 l 28 428 l 191 428 l 162 258 z "},"Έ":{"ha":745,"x_min":-134,"x_max":784,"o":"m 646 0 l 44 0 l 199 926 l 784 926 l 760 781 l 340 781 l 300 541 l 648 541 l 625 404 l 277 404 l 234 145 l 670 145 l 646 0 m 46 991 l 144 926 l -75 682 l -134 722 l 46 991 z "},"Ή":{"ha":897,"x_min":-134,"x_max":892,"o":"m 738 0 l 572 0 l 639 401 l 277 401 l 210 0 l 44 0 l 199 926 l 365 926 l 301 547 l 663 547 l 727 926 l 892 926 l 738 0 m 46 991 l 144 926 l -75 682 l -134 722 l 46 991 z "},"Ί":{"ha":375,"x_min":-134,"x_max":370,"o":"m 216 0 l 44 0 l 199 926 l 370 926 l 216 0 m 46 991 l 144 926 l -75 682 l -134 722 l 46 991 z "},"Ό":{"ha":898,"x_min":-91,"x_max":868,"o":"m 71 394 q 190 780 71 607 q 509 952 309 952 q 772 840 676 952 q 868 533 868 728 q 747 145 868 315 q 424 -25 625 -25 q 174 90 277 -25 q 71 394 71 205 m 246 365 q 300 172 246 229 q 430 114 353 114 q 627 262 564 114 q 690 570 690 411 q 499 813 690 813 q 309 660 372 813 q 246 365 246 507 m 90 991 l 187 926 l -32 682 l -91 722 l 90 991 z "},"Ύ":{"ha":741,"x_min":-222,"x_max":857,"o":"m 423 0 l 249 0 l 314 390 l 79 926 l 269 926 l 433 526 l 696 926 l 857 926 l 487 382 l 423 0 m -41 991 l 56 926 l -163 682 l -222 722 l -41 991 z "},"Ώ":{"ha":937,"x_min":-125,"x_max":889,"o":"m -14 0 l 9 144 l 235 144 q 66 452 66 241 q 194 809 66 673 q 515 945 322 945 q 786 846 684 945 q 889 587 889 747 q 826 326 889 446 q 631 144 764 205 l 865 144 l 840 0 l 473 0 l 497 144 q 663 338 619 220 q 707 565 707 455 q 654 748 707 686 q 511 810 602 810 q 314 702 385 810 q 242 432 242 594 q 271 268 242 336 q 377 144 299 199 l 353 0 l -14 0 m 56 991 l 153 926 l -66 682 l -125 722 l 56 991 z "},"ΐ":{"ha":345,"x_min":35,"x_max":477,"o":"m 195 0 l 35 0 l 151 690 l 310 690 l 195 0 m 424 1194 l 477 1105 l 255 975 l 224 1036 l 424 1194 m 148 806 q 94 827 115 806 q 73 878 73 848 q 94 931 73 908 q 148 954 115 954 q 202 933 179 954 q 225 879 225 913 q 202 825 225 845 q 148 806 180 806 m 375 806 q 320 827 342 806 q 299 878 299 849 q 320 931 299 908 q 375 954 342 954 q 429 933 406 954 q 452 879 452 913 q 430 825 452 845 q 375 806 407 806 z "},"Α":{"ha":837,"x_min":-39,"x_max":780,"o":"m 780 0 l 595 0 l 557 224 l 221 224 l 118 0 l -39 0 l 405 926 l 610 926 l 780 0 m 541 353 l 469 764 l 278 353 l 541 353 z "},"Β":{"ha":848,"x_min":45,"x_max":812,"o":"m 45 0 l 199 926 l 524 926 q 668 908 611 926 q 768 833 724 890 q 812 696 812 776 q 639 476 812 531 q 783 267 783 412 q 716 85 783 171 q 456 0 650 0 l 45 0 m 301 543 l 466 543 q 611 586 575 543 q 646 676 646 629 q 490 798 646 798 l 344 798 l 301 543 m 233 136 l 422 136 q 532 149 496 136 q 592 196 568 161 q 616 282 616 231 q 591 361 616 328 q 535 405 566 394 q 448 415 503 415 l 280 415 l 233 136 z "},"Γ":{"ha":633,"x_min":45,"x_max":731,"o":"m 45 0 l 199 926 l 731 926 l 707 783 l 341 783 l 210 0 l 45 0 z "},"Δ":{"ha":808,"x_min":-43,"x_max":770,"o":"m -43 0 l 395 926 l 604 926 l 770 0 l -43 0 m 176 144 l 559 144 l 469 783 l 460 783 l 176 144 z "},"Ε":{"ha":745,"x_min":44,"x_max":784,"o":"m 646 0 l 44 0 l 199 926 l 784 926 l 760 781 l 340 781 l 300 541 l 648 541 l 625 404 l 277 404 l 234 145 l 670 145 l 646 0 z "},"Ζ":{"ha":730,"x_min":-30,"x_max":788,"o":"m 650 0 l -30 0 l -7 136 l 551 781 l 115 781 l 139 926 l 788 926 l 770 810 l 193 145 l 674 145 l 650 0 z "},"Η":{"ha":897,"x_min":44,"x_max":892,"o":"m 738 0 l 572 0 l 639 401 l 277 401 l 210 0 l 44 0 l 199 926 l 365 926 l 301 547 l 663 547 l 727 926 l 892 926 l 738 0 z "},"Θ":{"ha":917,"x_min":71,"x_max":886,"o":"m 71 399 q 192 777 71 609 q 517 945 313 945 q 788 832 690 945 q 886 528 886 720 q 763 148 886 313 q 435 -18 640 -18 q 177 97 282 -18 q 71 399 71 212 m 247 372 q 303 179 247 237 q 440 120 359 120 q 644 262 580 120 q 709 566 709 404 q 507 806 709 806 q 311 659 374 806 q 247 372 247 513 m 608 538 l 593 408 l 353 408 l 368 538 l 608 538 z "},"Ι":{"ha":375,"x_min":44,"x_max":370,"o":"m 216 0 l 44 0 l 199 926 l 370 926 l 216 0 z "},"Κ":{"ha":857,"x_min":44,"x_max":897,"o":"m 777 0 l 602 0 l 464 465 l 248 229 l 210 0 l 44 0 l 199 926 l 365 926 l 297 522 q 276 425 295 511 q 328 493 300 463 l 719 926 l 897 926 l 593 595 l 777 0 z "},"Λ":{"ha":743,"x_min":-65,"x_max":713,"o":"m 92 0 l -65 0 l 353 926 l 564 926 l 713 0 l 526 0 l 423 770 l 411 770 l 92 0 z "},"Μ":{"ha":1107,"x_min":45,"x_max":1103,"o":"m 949 0 l 783 0 l 924 843 l 529 0 l 439 0 l 314 836 l 174 0 l 45 0 l 199 926 l 454 926 l 549 304 l 832 926 l 1103 926 l 949 0 z "},"Ν":{"ha":902,"x_min":44,"x_max":897,"o":"m 742 0 l 610 0 l 294 696 l 178 0 l 44 0 l 199 926 l 370 926 l 659 290 l 765 926 l 897 926 l 742 0 z "},"Ξ":{"ha":744,"x_min":-5,"x_max":789,"o":"m 125 783 l 149 926 l 789 926 l 766 783 l 125 783 m 166 407 l 189 542 l 622 542 l 600 407 l 166 407 m -5 0 l 18 144 l 659 144 l 635 0 l -5 0 z "},"Ο":{"ha":898,"x_min":71,"x_max":868,"o":"m 71 394 q 190 780 71 607 q 509 952 309 952 q 772 840 676 952 q 868 533 868 728 q 747 145 868 315 q 424 -25 625 -25 q 174 90 277 -25 q 71 394 71 205 m 246 365 q 300 172 246 229 q 430 114 353 114 q 627 262 564 114 q 690 570 690 411 q 499 813 690 813 q 309 660 372 813 q 246 365 246 507 z "},"Π":{"ha":861,"x_min":45,"x_max":857,"o":"m 45 0 l 199 926 l 857 926 l 703 0 l 537 0 l 668 783 l 341 783 l 210 0 l 45 0 z "},"Ρ":{"ha":829,"x_min":44,"x_max":850,"o":"m 217 0 l 44 0 l 199 926 l 447 926 q 623 921 568 926 q 732 884 679 916 q 817 794 785 853 q 850 663 850 736 q 797 493 850 567 q 674 395 745 418 q 503 371 604 371 l 279 371 l 217 0 m 349 791 l 302 507 l 467 507 q 588 518 553 507 q 649 567 623 530 q 675 659 675 605 q 652 741 675 709 q 595 782 628 773 q 479 791 563 791 l 349 791 z "},"Σ":{"ha":709,"x_min":-9,"x_max":753,"o":"m -9 0 l 12 132 l 352 492 l 140 791 l 162 926 l 753 926 l 731 791 l 340 791 l 549 505 l 207 144 l 654 144 l 631 0 l -9 0 z "},"Τ":{"ha":641,"x_min":73,"x_max":739,"o":"m 714 781 l 479 781 l 348 0 l 178 0 l 309 781 l 73 781 l 98 926 l 739 926 l 714 781 z "},"Υ":{"ha":720,"x_min":58,"x_max":836,"o":"m 402 0 l 228 0 l 293 390 l 58 926 l 248 926 l 412 526 l 675 926 l 836 926 l 466 382 l 402 0 z "},"Φ":{"ha":1036,"x_min":80,"x_max":1000,"o":"m 685 836 q 1000 513 1000 795 q 897 230 1000 353 q 559 85 794 106 l 540 -28 l 376 -28 l 395 90 q 80 414 80 132 q 186 700 80 577 q 522 840 292 822 l 541 954 l 705 954 l 685 836 m 501 721 q 304 619 364 701 q 244 419 244 536 q 416 211 244 248 l 501 721 m 579 206 q 836 509 836 244 q 665 716 836 681 l 579 206 z "},"Χ":{"ha":767,"x_min":-58,"x_max":832,"o":"m 709 0 l 527 0 l 379 354 l 112 0 l -58 0 l 314 481 l 121 926 l 304 926 l 434 616 l 666 926 l 832 926 l 496 494 l 709 0 z "},"Ψ":{"ha":1128,"x_min":122,"x_max":1136,"o":"m 425 0 l 454 171 q 209 237 295 176 q 122 452 122 298 q 146 651 122 508 l 192 926 l 357 926 l 312 651 q 289 465 289 515 q 477 307 289 317 l 581 926 l 746 926 l 643 307 q 773 329 727 311 q 846 381 819 347 q 887 464 873 415 q 924 651 901 513 l 970 926 l 1136 926 l 1090 651 q 1040 413 1061 480 q 966 288 1019 347 q 831 201 913 229 q 620 171 749 172 l 591 0 l 425 0 z "},"Ω":{"ha":937,"x_min":-14,"x_max":889,"o":"m -14 0 l 9 144 l 235 144 q 66 452 66 241 q 194 809 66 673 q 515 945 322 945 q 786 846 684 945 q 889 587 889 747 q 826 326 889 446 q 631 144 764 205 l 865 144 l 840 0 l 473 0 l 497 144 q 663 338 619 220 q 707 565 707 455 q 654 748 707 686 q 511 810 602 810 q 314 702 385 810 q 242 432 242 594 q 271 268 242 336 q 377 144 299 199 l 353 0 l -14 0 z "},"Ϊ":{"ha":375,"x_min":44,"x_max":522,"o":"m 216 0 l 44 0 l 199 926 l 370 926 l 216 0 m 218 1025 q 164 1047 185 1025 q 142 1098 142 1068 q 163 1151 142 1128 q 218 1173 184 1173 q 272 1153 249 1173 q 295 1099 295 1133 q 272 1045 295 1065 q 218 1025 250 1025 m 445 1025 q 390 1047 412 1025 q 369 1098 369 1069 q 390 1151 369 1128 q 445 1173 412 1173 q 499 1153 475 1173 q 522 1099 522 1133 q 499 1045 522 1065 q 445 1025 477 1025 z "},"Ϋ":{"ha":720,"x_min":58,"x_max":836,"o":"m 402 0 l 228 0 l 293 390 l 58 926 l 248 926 l 412 526 l 675 926 l 836 926 l 466 382 l 402 0 m 369 1025 q 315 1047 336 1025 q 294 1098 294 1068 q 315 1151 294 1128 q 369 1173 336 1173 q 423 1153 400 1173 q 446 1099 446 1133 q 424 1045 446 1065 q 369 1025 401 1025 m 596 1025 q 542 1047 563 1025 q 520 1098 520 1069 q 542 1151 520 1128 q 596 1173 563 1173 q 650 1153 627 1173 q 673 1099 673 1133 q 651 1045 673 1065 q 596 1025 628 1025 z "},"ά":{"ha":816,"x_min":49,"x_max":831,"o":"m 763 0 l 597 0 l 553 188 q 282 -18 440 -18 q 113 62 177 -18 q 49 280 49 143 q 142 579 49 450 q 391 709 235 709 q 529 659 481 709 q 598 535 576 610 l 674 690 l 831 690 l 665 363 l 763 0 m 534 355 q 464 549 496 515 q 389 584 432 584 q 263 500 317 584 q 209 286 209 416 q 242 157 209 209 q 326 105 276 105 q 429 161 383 105 q 534 355 474 216 m 539 1053 l 637 987 l 418 743 l 359 783 l 539 1053 z "},"έ":{"ha":643,"x_min":30,"x_max":624,"o":"m 409 409 l 391 302 q 274 296 309 302 q 215 263 239 290 q 191 193 191 235 q 222 121 191 146 q 304 96 253 96 q 468 218 420 96 l 604 193 q 287 -18 530 -18 q 92 36 155 -18 q 30 180 30 90 q 200 367 30 325 q 106 441 125 406 q 87 515 87 477 q 152 652 87 595 q 357 709 216 709 q 624 516 605 709 l 484 490 q 363 592 473 592 q 274 564 303 592 q 245 496 245 536 q 278 430 245 452 q 409 409 311 408 m 463 1053 l 560 987 l 341 743 l 282 783 l 463 1053 z "},"ή":{"ha":753,"x_min":35,"x_max":690,"o":"m 567 -241 l 415 -241 l 528 431 q 534 491 534 469 q 444 585 534 585 q 320 531 374 585 q 252 391 267 478 l 187 0 l 35 0 l 151 690 l 290 690 l 270 568 q 388 681 332 652 q 509 709 444 709 q 639 667 587 709 q 690 542 690 626 q 677 414 690 494 l 567 -241 m 525 1053 l 623 987 l 404 743 l 345 783 l 525 1053 z "},"ί":{"ha":345,"x_min":35,"x_max":405,"o":"m 195 0 l 35 0 l 151 690 l 310 690 l 195 0 m 307 1053 l 405 987 l 186 743 l 127 783 l 307 1053 z "},"ΰ":{"ha":730,"x_min":66,"x_max":703,"o":"m 297 690 l 229 286 q 218 186 218 216 q 326 106 218 106 q 407 122 373 106 q 454 168 440 138 q 484 286 469 198 l 551 690 l 703 690 l 638 304 q 590 112 616 169 q 498 18 564 55 q 322 -18 431 -18 q 123 33 179 -18 q 66 174 66 84 q 77 286 66 221 l 145 690 l 297 690 m 623 1194 l 676 1105 l 454 975 l 422 1036 l 623 1194 m 347 806 q 293 827 314 806 q 271 878 271 848 q 292 931 271 908 q 347 954 313 954 q 401 933 378 954 q 424 879 424 913 q 401 825 424 845 q 347 806 378 806 m 574 806 q 519 827 541 806 q 498 878 498 849 q 519 931 498 908 q 574 954 541 954 q 628 933 604 954 q 651 879 651 913 q 628 825 651 845 q 574 806 606 806 z "},"α":{"ha":816,"x_min":49,"x_max":831,"o":"m 763 0 l 597 0 l 553 188 q 282 -18 440 -18 q 113 62 177 -18 q 49 280 49 143 q 142 579 49 450 q 391 709 235 709 q 529 659 481 709 q 598 535 576 610 l 674 690 l 831 690 l 665 363 l 763 0 m 534 355 q 464 549 496 515 q 389 584 432 584 q 263 500 317 584 q 209 286 209 416 q 242 157 209 209 q 326 105 276 105 q 429 161 383 105 q 534 355 474 216 z "},"β":{"ha":768,"x_min":-1,"x_max":729,"o":"m -1 -241 l 140 601 q 174 765 160 721 q 227 854 188 810 q 322 922 265 899 q 465 945 378 945 q 662 887 594 945 q 729 741 729 829 q 529 512 729 562 q 708 288 708 463 q 622 75 708 168 q 385 -18 536 -18 q 203 66 265 -18 l 151 -241 l -1 -241 m 218 155 q 349 98 262 98 q 496 158 440 98 q 551 309 551 219 q 513 416 551 380 q 390 452 475 452 l 407 552 q 541 612 509 554 q 572 731 572 669 q 458 838 572 838 q 364 807 396 838 q 320 738 332 777 q 295 620 309 699 l 218 155 z "},"γ":{"ha":600,"x_min":50,"x_max":669,"o":"m 125 -241 l 166 0 l 50 690 l 209 690 l 287 204 l 535 690 l 669 690 l 318 0 l 277 -241 l 125 -241 z "},"δ":{"ha":739,"x_min":50,"x_max":690,"o":"m 681 926 l 661 804 l 376 804 l 476 728 q 597 623 555 668 q 664 516 639 578 q 690 381 690 454 q 593 96 690 210 q 332 -19 496 -19 q 124 56 199 -19 q 50 262 50 131 q 146 532 50 433 q 370 632 241 632 l 393 632 l 186 813 l 205 926 l 681 926 m 397 547 q 259 474 308 547 q 210 267 210 401 q 346 106 210 106 q 485 185 439 106 q 531 383 531 264 q 397 547 531 547 z "},"ε":{"ha":643,"x_min":30,"x_max":624,"o":"m 409 409 l 391 302 q 274 296 309 302 q 215 263 239 290 q 191 193 191 235 q 222 121 191 146 q 304 96 253 96 q 468 218 420 96 l 604 193 q 287 -18 530 -18 q 92 36 155 -18 q 30 180 30 90 q 200 367 30 325 q 106 441 125 406 q 87 515 87 477 q 152 652 87 595 q 357 709 216 709 q 624 516 605 709 l 484 490 q 363 592 473 592 q 274 564 303 592 q 245 496 245 536 q 278 430 245 452 q 409 409 311 408 z "},"ζ":{"ha":543,"x_min":53,"x_max":597,"o":"m 161 804 l 181 926 l 597 926 l 580 823 q 318 553 418 712 q 218 255 218 393 q 241 167 218 197 q 355 132 265 138 q 462 94 440 127 q 484 16 484 61 q 396 -237 484 -84 l 267 -220 q 335 -56 335 -110 q 317 -16 335 -27 q 249 -3 298 -5 q 96 57 138 1 q 53 208 53 113 q 142 500 53 348 q 433 804 232 653 l 161 804 z "},"η":{"ha":753,"x_min":35,"x_max":690,"o":"m 567 -241 l 415 -241 l 528 431 q 534 491 534 469 q 444 585 534 585 q 320 531 374 585 q 252 391 267 478 l 187 0 l 35 0 l 151 690 l 290 690 l 270 568 q 388 681 332 652 q 509 709 444 709 q 639 667 587 709 q 690 542 690 626 q 677 414 690 494 l 567 -241 z "},"θ":{"ha":747,"x_min":75,"x_max":719,"o":"m 452 945 q 648 854 576 945 q 719 577 719 763 q 619 154 719 326 q 341 -18 519 -18 q 146 72 217 -18 q 75 347 75 163 q 175 772 75 600 q 452 945 275 945 m 245 532 l 565 532 q 568 608 568 579 q 531 777 568 722 q 439 833 494 833 q 323 763 377 833 q 245 532 269 693 m 233 429 q 226 323 226 370 q 354 93 226 93 q 553 429 510 93 l 233 429 z "},"ι":{"ha":345,"x_min":35,"x_max":310,"o":"m 195 0 l 35 0 l 151 690 l 310 690 l 195 0 z "},"κ":{"ha":701,"x_min":36,"x_max":734,"o":"m 36 0 l 151 690 l 303 690 l 254 393 l 576 690 l 734 690 l 473 450 l 644 0 l 473 0 l 351 337 l 226 229 l 188 0 l 36 0 z "},"λ":{"ha":571,"x_min":-59,"x_max":548,"o":"m -59 0 l 242 633 l 171 926 l 331 926 l 548 0 l 390 0 l 279 475 l 64 0 l -59 0 z "},"μ":{"ha":759,"x_min":-5,"x_max":725,"o":"m -5 -241 l 151 690 l 303 690 l 241 318 q 231 226 231 257 q 260 140 231 174 q 336 106 289 106 q 439 145 391 106 q 511 318 488 185 l 573 690 l 725 690 l 609 0 l 481 0 l 500 107 q 323 -18 427 -18 q 202 86 231 -18 l 147 -241 l -5 -241 z "},"ν":{"ha":621,"x_min":54,"x_max":670,"o":"m 342 0 l 200 0 l 54 690 l 220 690 l 311 207 l 536 690 l 670 690 l 342 0 z "},"ξ":{"ha":604,"x_min":34,"x_max":652,"o":"m 338 -218 q 395 -61 395 -109 q 373 -18 395 -29 q 289 -1 351 -6 q 88 64 142 9 q 34 208 34 118 q 283 495 34 429 q 137 628 137 538 q 324 804 137 748 l 145 804 l 165 926 l 652 926 l 631 804 l 545 804 q 351 757 403 804 q 300 655 300 710 q 473 541 300 541 l 529 541 l 513 421 l 457 421 q 308 407 359 421 q 227 348 257 393 q 197 250 197 304 q 217 183 197 208 q 266 151 236 159 q 371 136 296 142 q 507 101 469 126 q 545 12 545 76 q 469 -241 545 -76 l 338 -218 z "},"ο":{"ha":729,"x_min":48,"x_max":682,"o":"m 343 -18 q 195 16 267 -18 q 86 124 123 50 q 48 299 48 197 q 145 584 48 464 q 399 705 242 705 q 605 618 528 705 q 682 386 682 532 q 590 109 682 236 q 343 -18 498 -18 m 345 106 q 480 202 437 106 q 524 401 524 297 q 385 581 524 581 q 246 478 288 581 q 204 274 204 376 q 245 147 204 188 q 345 106 286 106 z "},"π":{"ha":765,"x_min":56,"x_max":792,"o":"m 56 0 l 151 568 l 68 568 l 88 690 l 792 690 l 772 568 l 689 568 l 594 0 l 442 0 l 537 568 l 302 568 l 208 0 l 56 0 z "},"ρ":{"ha":755,"x_min":-19,"x_max":710,"o":"m -19 -241 l 66 267 q 107 474 90 410 q 169 594 125 538 q 277 679 213 650 q 420 709 340 709 q 631 631 551 709 q 710 413 710 553 q 621 106 710 231 q 389 -19 531 -19 q 197 96 253 -19 l 140 -241 l -19 -241 m 413 585 q 269 492 311 585 q 228 271 228 399 q 366 106 228 106 q 507 200 462 106 q 552 422 552 294 q 413 585 552 585 z "},"ς":{"ha":673,"x_min":50,"x_max":647,"o":"m 386 -214 q 435 -58 435 -132 q 419 -16 435 -27 q 357 1 403 -4 q 196 41 258 14 q 91 135 133 68 q 50 300 50 201 q 140 585 50 460 q 396 709 231 709 q 579 640 515 709 q 647 462 644 572 l 504 435 q 387 585 502 585 q 257 510 304 585 q 211 318 211 436 q 258 187 211 227 q 435 128 305 148 q 553 87 521 115 q 586 -7 586 60 q 518 -241 586 -96 l 386 -214 z "},"σ":{"ha":751,"x_min":48,"x_max":777,"o":"m 777 690 l 756 568 l 595 568 q 686 356 686 481 q 587 88 686 195 q 334 -18 489 -18 q 122 63 195 -18 q 48 289 48 145 q 144 583 48 461 q 403 704 239 704 q 508 690 452 704 l 777 690 m 397 585 q 257 500 306 585 q 208 275 208 416 q 342 106 208 106 q 481 188 433 106 q 529 410 529 271 q 397 585 529 585 z "},"τ":{"ha":530,"x_min":32,"x_max":593,"o":"m 132 0 l 227 568 l 32 568 l 52 690 l 593 690 l 572 568 l 379 568 l 284 0 l 132 0 z "},"υ":{"ha":730,"x_min":66,"x_max":703,"o":"m 297 690 l 229 286 q 218 186 218 216 q 326 106 218 106 q 407 122 373 106 q 454 168 440 138 q 484 286 469 198 l 551 690 l 703 690 l 638 304 q 590 112 616 169 q 498 18 564 55 q 322 -18 431 -18 q 123 33 179 -18 q 66 174 66 84 q 77 286 66 221 l 145 690 l 297 690 z "},"φ":{"ha":916,"x_min":54,"x_max":868,"o":"m 348 104 l 448 705 q 521 709 488 709 q 779 622 690 709 q 868 383 868 535 q 770 104 868 222 q 473 -20 673 -13 l 435 -241 l 290 -241 l 328 -16 q 126 81 197 1 q 54 293 54 161 q 122 531 54 425 q 293 672 190 637 l 324 549 q 205 302 205 470 q 348 104 205 139 m 492 97 q 666 190 613 107 q 719 388 719 272 q 576 595 719 562 l 492 97 z "},"χ":{"ha":648,"x_min":-120,"x_max":694,"o":"m 222 263 l 76 690 l 239 690 l 348 367 l 558 690 l 694 690 l 391 239 l 555 -241 l 393 -241 l 273 143 l 21 -241 l -120 -241 l 222 263 z "},"ψ":{"ha":990,"x_min":73,"x_max":960,"o":"m 326 -241 l 363 -17 q 73 205 73 -14 q 85 320 73 245 l 148 690 l 300 690 l 237 320 q 227 216 227 257 q 261 134 227 160 q 384 105 294 107 l 481 690 l 626 690 l 528 105 q 654 124 616 107 q 711 181 692 142 q 747 320 730 220 l 808 690 l 960 690 l 899 320 q 863 155 879 202 q 808 67 848 107 q 703 7 769 28 q 508 -17 637 -14 l 471 -241 l 326 -241 z "},"ω":{"ha":977,"x_min":35,"x_max":926,"o":"m 585 532 l 547 304 q 538 204 538 254 q 620 110 538 110 q 765 382 765 110 q 688 642 765 518 l 804 709 q 926 376 926 566 q 846 87 926 192 q 625 -18 766 -18 q 523 8 562 -18 q 459 108 484 35 q 271 -18 389 -18 q 99 59 163 -18 q 35 258 35 136 q 253 709 35 505 l 353 642 q 191 250 191 461 q 221 143 191 176 q 294 110 251 110 q 366 148 345 110 q 405 304 387 186 l 443 532 l 585 532 z "},"ϊ":{"ha":345,"x_min":35,"x_max":452,"o":"m 195 0 l 35 0 l 151 690 l 310 690 l 195 0 m 148 806 q 94 827 115 806 q 73 878 73 848 q 94 931 73 908 q 148 954 115 954 q 202 933 179 954 q 225 879 225 913 q 202 825 225 845 q 148 806 180 806 m 375 806 q 320 827 342 806 q 299 878 299 849 q 320 931 299 908 q 375 954 342 954 q 429 933 406 954 q 452 879 452 913 q 430 825 452 845 q 375 806 407 806 z "},"ϋ":{"ha":730,"x_min":66,"x_max":703,"o":"m 297 690 l 229 286 q 218 186 218 216 q 326 106 218 106 q 407 122 373 106 q 454 168 440 138 q 484 286 469 198 l 551 690 l 703 690 l 638 304 q 590 112 616 169 q 498 18 564 55 q 322 -18 431 -18 q 123 33 179 -18 q 66 174 66 84 q 77 286 66 221 l 145 690 l 297 690 m 347 806 q 293 827 314 806 q 271 878 271 848 q 292 931 271 908 q 347 954 313 954 q 401 933 378 954 q 424 879 424 913 q 401 825 424 845 q 347 806 378 806 m 574 806 q 519 827 541 806 q 498 878 498 849 q 519 931 498 908 q 574 954 541 954 q 628 933 604 954 q 651 879 651 913 q 628 825 651 845 q 574 806 606 806 z "},"ό":{"ha":729,"x_min":48,"x_max":682,"o":"m 343 -16 q 195 18 267 -16 q 86 125 123 52 q 48 300 48 199 q 145 586 48 465 q 399 706 242 706 q 605 620 528 706 q 682 387 682 533 q 590 111 682 237 q 343 -16 498 -16 m 345 108 q 480 203 437 108 q 524 403 524 298 q 385 582 524 582 q 246 479 288 582 q 204 275 204 377 q 245 149 204 189 q 345 108 286 108 m 500 1053 l 597 987 l 378 743 l 319 783 l 500 1053 z "},"ύ":{"ha":730,"x_min":66,"x_max":703,"o":"m 297 690 l 229 286 q 218 186 218 216 q 326 106 218 106 q 407 122 373 106 q 454 168 440 138 q 484 286 469 198 l 551 690 l 703 690 l 638 304 q 590 112 616 169 q 498 18 564 55 q 322 -18 431 -18 q 123 33 179 -18 q 66 174 66 84 q 77 286 66 221 l 145 690 l 297 690 m 519 1053 l 617 987 l 398 743 l 339 783 l 519 1053 z "},"ώ":{"ha":977,"x_min":35,"x_max":926,"o":"m 585 532 l 547 304 q 538 204 538 254 q 620 110 538 110 q 765 382 765 110 q 688 642 765 518 l 804 709 q 926 376 926 566 q 846 87 926 192 q 625 -18 766 -18 q 523 8 562 -18 q 459 108 484 35 q 271 -18 389 -18 q 99 59 163 -18 q 35 258 35 136 q 253 709 35 505 l 353 642 q 191 250 191 461 q 221 143 191 176 q 294 110 251 110 q 366 148 345 110 q 405 304 387 186 l 443 532 l 585 532 m 647 1053 l 745 987 l 526 743 l 467 783 l 647 1053 z "},"Ё":{"ha":745,"x_min":44,"x_max":784,"o":"m 646 0 l 44 0 l 199 926 l 784 926 l 760 781 l 340 781 l 300 541 l 648 541 l 625 404 l 277 404 l 234 145 l 670 145 l 646 0 m 404 1025 q 350 1047 371 1025 q 328 1098 328 1068 q 349 1151 328 1128 q 404 1173 370 1173 q 458 1153 435 1173 q 481 1099 481 1133 q 458 1045 481 1065 q 404 1025 435 1025 m 631 1025 q 576 1047 597 1025 q 555 1098 555 1069 q 576 1151 555 1128 q 631 1173 597 1173 q 685 1153 661 1173 q 708 1099 708 1133 q 685 1045 708 1065 q 631 1025 663 1025 z "},"Ђ":{"ha":870,"x_min":66,"x_max":808,"o":"m 87 0 l 220 790 l 66 790 l 89 926 l 751 926 l 728 790 l 385 790 l 337 501 q 595 621 449 621 q 808 430 808 621 q 767 114 808 323 q 641 -167 726 -95 q 400 -241 556 -239 l 414 -117 q 506 -95 475 -111 q 563 -26 536 -78 q 613 172 589 25 q 638 386 638 319 q 528 496 638 496 q 304 302 336 496 l 253 0 l 87 0 z "},"Ѓ":{"ha":606,"x_min":45,"x_max":703,"o":"m 45 0 l 199 926 l 703 926 l 680 783 l 341 783 l 210 0 l 45 0 m 616 1221 l 661 1128 l 378 1000 l 349 1072 l 616 1221 z "},"Є":{"ha":844,"x_min":73,"x_max":863,"o":"m 610 543 l 589 420 l 248 420 q 244 365 244 387 q 295 185 244 255 q 446 115 346 115 q 682 293 605 115 l 833 262 q 689 62 791 142 q 433 -18 587 -18 q 162 97 252 -18 q 73 393 73 212 q 190 778 73 612 q 524 945 307 945 q 863 690 805 945 l 706 656 q 520 810 669 810 q 345 732 410 810 q 262 543 281 653 l 610 543 z "},"Ѕ":{"ha":764,"x_min":-18,"x_max":749,"o":"m 749 750 l 597 694 q 421 809 549 809 q 301 773 344 809 q 258 683 258 736 q 287 615 258 642 q 383 570 316 589 l 510 533 q 614 484 565 517 q 688 399 664 450 q 713 292 713 348 q 619 73 713 165 q 345 -20 525 -20 q -18 211 65 -20 l 134 264 q 355 119 189 119 q 496 163 450 119 q 542 262 542 207 q 525 318 542 294 q 481 353 507 341 q 375 388 454 366 q 210 448 264 420 q 121 531 155 477 q 87 660 87 585 q 178 867 87 787 q 428 948 270 948 q 749 750 661 948 z "},"І":{"ha":375,"x_min":44,"x_max":370,"o":"m 216 0 l 44 0 l 199 926 l 370 926 l 216 0 z "},"Ї":{"ha":375,"x_min":44,"x_max":492,"o":"m 216 0 l 44 0 l 199 926 l 370 926 l 216 0 m 187 1025 q 133 1047 155 1025 q 112 1098 112 1068 q 133 1151 112 1128 q 187 1173 154 1173 q 241 1153 218 1173 q 264 1099 264 1133 q 242 1045 264 1065 q 187 1025 219 1025 m 414 1025 q 360 1047 381 1025 q 338 1098 338 1069 q 360 1151 338 1128 q 414 1173 381 1173 q 468 1153 445 1173 q 492 1099 492 1133 q 469 1045 492 1065 q 414 1025 446 1025 z "},"Ј":{"ha":520,"x_min":-58,"x_max":526,"o":"m -58 -2 l -31 136 q 61 131 19 131 q 201 172 166 131 q 254 313 237 212 l 356 926 l 526 926 l 427 340 q 375 137 405 205 q 274 26 345 70 q 85 -17 203 -17 q -58 -2 22 -17 z "},"Љ":{"ha":1163,"x_min":-79,"x_max":1139,"o":"m 616 571 l 806 571 q 1005 547 943 571 q 1102 466 1066 522 q 1139 325 1139 410 q 1049 95 1139 189 q 765 0 960 0 l 494 0 l 435 770 l 425 770 l 66 0 l -79 0 l 370 926 l 581 926 l 616 571 m 629 436 l 658 144 l 776 144 q 920 192 877 144 q 964 315 964 241 q 806 436 964 436 l 629 436 z "},"Њ":{"ha":1308,"x_min":44,"x_max":1277,"o":"m 612 422 l 281 422 l 210 0 l 44 0 l 199 926 l 365 926 l 303 557 l 635 557 l 697 926 l 863 926 l 804 571 l 944 571 q 1143 547 1082 571 q 1240 466 1204 522 q 1277 325 1277 410 q 1188 95 1277 189 q 903 0 1099 0 l 542 0 l 612 422 m 732 144 l 914 144 q 1059 192 1015 144 q 1102 315 1102 241 q 945 436 1102 436 l 781 436 l 732 144 z "},"Ћ":{"ha":883,"x_min":66,"x_max":809,"o":"m 385 790 l 338 507 q 587 621 451 621 q 748 569 688 621 q 809 406 809 517 q 800 321 809 378 l 746 0 l 581 0 l 635 328 q 642 389 642 368 q 522 498 642 498 q 316 376 377 498 l 253 0 l 87 0 l 220 790 l 66 790 l 89 926 l 754 926 l 731 790 l 385 790 z "},"Ќ":{"ha":857,"x_min":44,"x_max":897,"o":"m 777 0 l 602 0 l 464 465 l 248 229 l 210 0 l 44 0 l 199 926 l 365 926 l 297 522 q 276 425 295 511 q 328 493 300 463 l 719 926 l 897 926 l 593 595 l 777 0 m 712 1221 l 757 1128 l 474 1000 l 446 1072 l 712 1221 z "},"Ў":{"ha":716,"x_min":45,"x_max":836,"o":"m 302 270 l 81 926 l 262 926 l 414 457 l 676 926 l 836 926 l 435 229 q 288 47 357 94 q 106 0 218 0 l 45 0 l 68 144 l 131 144 q 222 165 191 144 q 283 237 253 186 l 302 270 m 299 1198 l 389 1198 q 419 1125 389 1142 q 491 1108 450 1108 q 622 1198 592 1108 l 711 1198 q 627 1063 693 1114 q 473 1012 562 1012 q 343 1056 390 1012 q 297 1164 297 1099 q 299 1198 297 1176 z "},"Џ":{"ha":887,"x_min":45,"x_max":883,"o":"m 235 144 l 587 144 l 718 926 l 883 926 l 728 0 l 454 0 l 412 -195 l 291 -195 l 314 0 l 45 0 l 199 926 l 366 926 l 235 144 z "},"А":{"ha":804,"x_min":-53,"x_max":766,"o":"m 766 0 l 581 0 l 543 224 l 207 224 l 104 0 l -53 0 l 391 926 l 596 926 l 766 0 m 527 353 l 454 764 l 264 353 l 527 353 z "},"Б":{"ha":835,"x_min":45,"x_max":781,"o":"m 45 0 l 199 926 l 781 926 l 759 791 l 343 791 l 302 550 l 439 550 q 631 531 563 550 q 739 456 700 511 q 778 314 778 400 q 690 92 778 184 q 422 0 603 0 l 45 0 m 235 144 l 425 144 q 562 188 515 144 q 609 302 609 232 q 577 385 609 351 q 445 418 545 418 l 280 418 l 235 144 z "},"В":{"ha":848,"x_min":45,"x_max":812,"o":"m 45 0 l 199 926 l 524 926 q 668 908 611 926 q 768 833 724 890 q 812 696 812 776 q 639 476 812 531 q 783 267 783 412 q 716 85 783 171 q 456 0 650 0 l 45 0 m 301 543 l 466 543 q 611 586 575 543 q 646 676 646 629 q 490 798 646 798 l 344 798 l 301 543 m 233 136 l 422 136 q 532 149 496 136 q 592 196 568 161 q 616 282 616 231 q 591 361 616 328 q 535 405 566 394 q 448 415 503 415 l 280 415 l 233 136 z "},"Г":{"ha":606,"x_min":45,"x_max":703,"o":"m 45 0 l 199 926 l 703 926 l 680 783 l 341 783 l 210 0 l 45 0 z "},"Д":{"ha":852,"x_min":-83,"x_max":821,"o":"m 41 144 l 416 926 l 665 926 l 753 144 l 821 144 l 765 -195 l 654 -195 l 666 0 l 81 0 l 28 -195 l -83 -195 l -27 144 l 41 144 m 183 144 l 577 144 l 522 770 l 471 770 l 183 144 z "},"Е":{"ha":745,"x_min":44,"x_max":784,"o":"m 646 0 l 44 0 l 199 926 l 784 926 l 760 781 l 340 781 l 300 541 l 648 541 l 625 404 l 277 404 l 234 145 l 670 145 l 646 0 z "},"Ж":{"ha":1129,"x_min":-74,"x_max":1214,"o":"m 860 519 l 1116 0 l 931 0 l 719 435 l 659 418 l 589 0 l 430 0 l 500 418 l 446 435 l 88 0 l -74 0 l 330 491 l 105 926 l 288 926 l 482 538 l 519 528 l 585 926 l 744 926 l 677 528 l 718 538 l 1042 926 l 1214 926 l 860 519 z "},"З":{"ha":790,"x_min":1,"x_max":754,"o":"m 1 268 l 156 293 q 353 116 170 116 q 500 164 448 116 q 553 292 553 213 q 408 418 553 418 l 320 418 l 340 541 l 414 541 q 536 583 490 541 q 581 690 581 625 q 539 778 581 745 q 426 810 496 810 q 286 771 334 810 q 216 656 238 732 l 74 678 q 441 945 142 945 q 671 879 589 945 q 754 715 754 814 q 560 492 754 547 q 733 290 733 451 q 631 72 733 161 q 338 -18 528 -18 q 87 59 173 -18 q 1 268 1 136 z "},"И":{"ha":917,"x_min":45,"x_max":913,"o":"m 223 75 l 210 0 l 45 0 l 199 926 l 366 926 l 280 416 q 252 276 269 347 q 396 460 309 361 l 736 842 l 750 926 l 913 926 l 758 0 l 595 0 l 673 470 q 709 640 684 534 q 560 456 657 566 l 223 75 z "},"Й":{"ha":917,"x_min":45,"x_max":913,"o":"m 223 75 l 210 0 l 45 0 l 199 926 l 366 926 l 280 416 q 252 276 269 347 q 396 460 309 361 l 736 842 l 750 926 l 913 926 l 758 0 l 595 0 l 673 470 q 709 640 684 534 q 560 456 657 566 l 223 75 m 398 1198 l 488 1198 q 518 1125 488 1142 q 590 1108 549 1108 q 721 1198 691 1108 l 810 1198 q 726 1063 792 1114 q 572 1012 661 1012 q 443 1056 489 1012 q 396 1164 396 1099 q 398 1198 396 1176 z "},"К":{"ha":857,"x_min":44,"x_max":897,"o":"m 777 0 l 602 0 l 464 465 l 248 229 l 210 0 l 44 0 l 199 926 l 365 926 l 297 522 q 276 425 295 511 q 328 493 300 463 l 719 926 l 897 926 l 593 595 l 777 0 z "},"Л":{"ha":743,"x_min":-65,"x_max":713,"o":"m 92 0 l -65 0 l 353 926 l 564 926 l 713 0 l 526 0 l 423 770 l 411 770 l 92 0 z "},"М":{"ha":1107,"x_min":45,"x_max":1103,"o":"m 949 0 l 783 0 l 924 843 l 529 0 l 439 0 l 314 836 l 174 0 l 45 0 l 199 926 l 454 926 l 549 304 l 832 926 l 1103 926 l 949 0 z "},"Н":{"ha":897,"x_min":44,"x_max":892,"o":"m 738 0 l 572 0 l 639 401 l 277 401 l 210 0 l 44 0 l 199 926 l 365 926 l 301 547 l 663 547 l 727 926 l 892 926 l 738 0 z "},"О":{"ha":898,"x_min":71,"x_max":868,"o":"m 71 394 q 190 780 71 607 q 509 952 309 952 q 772 840 676 952 q 868 533 868 728 q 747 145 868 315 q 424 -25 625 -25 q 174 90 277 -25 q 71 394 71 205 m 246 365 q 300 172 246 229 q 430 114 353 114 q 627 262 564 114 q 690 570 690 411 q 499 813 690 813 q 309 660 372 813 q 246 365 246 507 z "},"П":{"ha":869,"x_min":45,"x_max":865,"o":"m 45 0 l 199 926 l 865 926 l 710 0 l 544 0 l 676 790 l 342 790 l 210 0 l 45 0 z "},"Р":{"ha":829,"x_min":44,"x_max":850,"o":"m 217 0 l 44 0 l 199 926 l 447 926 q 623 921 568 926 q 732 884 679 916 q 817 794 785 853 q 850 663 850 736 q 797 493 850 567 q 674 395 745 418 q 503 371 604 371 l 279 371 l 217 0 m 349 791 l 302 507 l 467 507 q 588 518 553 507 q 649 567 623 530 q 675 659 675 605 q 652 741 675 709 q 595 782 628 773 q 479 791 563 791 l 349 791 z "},"С":{"ha":821,"x_min":70,"x_max":838,"o":"m 777 254 q 410 -24 658 -24 q 164 84 259 -24 q 70 380 70 193 q 191 782 70 614 q 503 950 313 950 q 739 864 652 950 q 838 625 825 778 l 687 598 q 500 811 667 811 q 306 651 365 811 q 246 347 246 491 q 296 177 246 234 q 423 120 346 120 q 552 175 494 120 q 641 310 610 231 l 777 254 z "},"Т":{"ha":641,"x_min":73,"x_max":739,"o":"m 714 781 l 479 781 l 348 0 l 178 0 l 309 781 l 73 781 l 98 926 l 739 926 l 714 781 z "},"У":{"ha":716,"x_min":45,"x_max":836,"o":"m 302 270 l 81 926 l 262 926 l 414 457 l 676 926 l 836 926 l 435 229 q 288 47 357 94 q 106 0 218 0 l 45 0 l 68 144 l 131 144 q 222 165 191 144 q 283 237 253 186 l 302 270 z "},"Ф":{"ha":1036,"x_min":80,"x_max":1000,"o":"m 685 836 q 1000 513 1000 795 q 897 230 1000 353 q 559 85 794 106 l 540 -28 l 376 -28 l 395 90 q 80 414 80 132 q 186 700 80 577 q 522 840 292 822 l 541 954 l 705 954 l 685 836 m 501 721 q 304 619 364 701 q 244 419 244 536 q 416 211 244 248 l 501 721 m 579 206 q 836 509 836 244 q 665 716 836 681 l 579 206 z "},"Х":{"ha":782,"x_min":-50,"x_max":840,"o":"m 717 0 l 534 0 l 387 354 l 119 0 l -50 0 l 321 481 l 128 926 l 312 926 l 441 616 l 673 926 l 840 926 l 503 494 l 717 0 z "},"Ц":{"ha":913,"x_min":54,"x_max":895,"o":"m 54 0 l 208 926 l 374 926 l 243 144 l 597 144 l 728 926 l 895 926 l 764 144 l 879 144 l 823 -195 l 707 -195 l 721 0 l 54 0 z "},"Ч":{"ha":844,"x_min":109,"x_max":840,"o":"m 519 0 l 587 399 q 332 297 463 297 q 168 353 227 297 q 109 502 109 409 q 131 674 109 541 l 174 926 l 339 926 l 291 638 q 278 526 278 562 q 391 431 278 431 q 606 515 509 431 l 675 926 l 840 926 l 686 0 l 519 0 z "},"Ш":{"ha":1301,"x_min":54,"x_max":1287,"o":"m 54 0 l 208 926 l 374 926 l 243 144 l 534 144 l 665 926 l 831 926 l 700 144 l 991 144 l 1122 926 l 1287 926 l 1133 0 l 54 0 z "},"Щ":{"ha":1311,"x_min":54,"x_max":1287,"o":"m 1156 144 l 1278 144 l 1221 -195 l 1107 -195 l 1119 0 l 54 0 l 208 926 l 374 926 l 243 144 l 534 144 l 665 926 l 831 926 l 700 144 l 991 144 l 1122 926 l 1287 926 l 1156 144 z "},"Ъ":{"ha":903,"x_min":41,"x_max":878,"o":"m 143 0 l 274 783 l 41 783 l 65 926 l 464 926 l 404 571 l 545 571 q 744 547 683 571 q 841 466 805 522 q 878 325 878 410 q 788 95 878 189 q 504 0 699 0 l 143 0 m 332 144 l 515 144 q 660 192 616 144 q 703 315 703 241 q 545 436 703 436 l 382 436 l 332 144 z "},"Ы":{"ha":1183,"x_min":54,"x_max":1168,"o":"m 848 0 l 1003 926 l 1168 926 l 1014 0 l 848 0 m 54 0 l 208 926 l 374 926 l 315 571 l 456 571 q 654 547 593 571 q 752 466 715 522 q 788 325 788 410 q 699 95 788 189 q 414 0 610 0 l 54 0 m 243 144 l 426 144 q 571 193 528 144 q 614 315 614 241 q 456 436 614 436 l 292 436 l 243 144 z "},"Ь":{"ha":804,"x_min":45,"x_max":779,"o":"m 45 0 l 199 926 l 366 926 l 306 571 l 447 571 q 646 547 585 571 q 743 466 707 522 q 779 325 779 410 q 690 95 779 189 q 406 0 602 0 l 45 0 m 235 144 l 417 144 q 562 193 519 144 q 605 315 605 241 q 448 436 605 436 l 283 436 l 235 144 z "},"Э":{"ha":848,"x_min":13,"x_max":820,"o":"m 292 420 l 313 543 l 648 543 q 649 572 649 562 q 603 740 649 669 q 451 810 557 810 q 230 656 304 810 l 81 690 q 217 866 121 789 q 470 944 314 944 q 725 844 630 944 q 820 547 820 743 q 695 145 820 309 q 356 -19 570 -19 q 113 66 199 -19 q 13 262 26 151 l 171 293 q 366 115 204 115 q 549 204 478 115 q 635 420 621 292 l 292 420 z "},"Ю":{"ha":1277,"x_min":45,"x_max":1247,"o":"m 460 416 l 280 416 l 210 0 l 45 0 l 199 926 l 366 926 l 303 553 l 478 553 q 626 836 519 727 q 889 945 734 945 q 1156 830 1065 945 q 1247 532 1247 715 q 1125 146 1247 311 q 810 -18 1002 -18 q 633 31 712 -18 q 507 174 555 81 q 459 388 459 268 q 460 416 459 399 m 626 368 q 682 174 626 228 q 810 120 739 120 q 1007 263 944 120 q 1070 566 1070 407 q 878 806 1070 806 q 688 657 751 806 q 626 368 626 509 z "},"Я":{"ha":859,"x_min":-38,"x_max":854,"o":"m 597 385 l 372 385 l 130 0 l -38 0 l 227 415 q 93 621 93 479 q 136 773 93 698 q 258 887 178 849 q 431 926 338 926 l 854 926 l 699 0 l 532 0 l 597 385 m 665 791 l 445 791 q 311 748 354 791 q 269 645 269 706 q 303 553 269 591 q 420 515 337 515 l 619 515 l 665 791 z "},"а":{"ha":737,"x_min":22,"x_max":672,"o":"m 608 0 l 458 0 q 456 30 456 18 q 469 149 456 79 q 371 27 435 71 q 231 -18 307 -18 q 80 40 138 -18 q 22 181 22 97 q 126 366 22 297 q 450 434 229 434 q 516 431 478 434 q 521 481 521 463 q 483 565 521 536 q 387 593 444 593 q 228 498 278 593 l 92 541 q 394 709 178 709 q 597 650 523 709 q 672 495 672 592 q 640 277 672 454 q 605 40 605 90 q 608 0 605 22 m 503 352 q 256 305 326 342 q 187 196 187 268 q 215 129 187 155 q 291 102 243 102 q 419 163 360 102 q 503 352 478 224 z "},"б":{"ha":751,"x_min":60,"x_max":701,"o":"m 543 988 l 697 988 q 638 886 684 921 q 490 831 592 851 q 368 796 408 815 q 298 735 328 777 q 250 621 269 692 q 441 699 345 699 q 630 624 559 699 q 701 410 701 549 q 606 102 701 222 q 342 -18 511 -18 q 133 57 205 -18 q 60 281 60 133 q 93 524 60 387 q 179 746 125 662 q 291 864 232 829 q 441 918 349 899 q 515 943 496 930 q 543 988 534 956 m 406 583 q 262 500 311 583 q 213 284 213 417 q 353 111 213 111 q 494 194 446 111 q 542 409 542 277 q 406 583 542 583 z "},"в":{"ha":732,"x_min":35,"x_max":692,"o":"m 35 0 l 151 690 l 477 690 q 596 675 554 690 q 665 625 637 661 q 692 538 692 589 q 528 364 692 404 q 661 208 661 325 q 597 59 661 118 q 422 0 534 0 l 35 0 m 255 406 l 432 406 q 514 435 489 406 q 540 506 540 465 q 443 578 540 578 l 284 578 l 255 406 m 208 122 l 385 122 q 511 231 511 122 q 399 315 511 315 l 240 315 l 208 122 z "},"г":{"ha":511,"x_min":35,"x_max":570,"o":"m 570 690 l 549 568 l 282 568 l 187 0 l 35 0 l 151 690 l 570 690 z "},"д":{"ha":678,"x_min":-81,"x_max":645,"o":"m 28 120 l 283 685 l 521 685 l 583 120 l 645 120 l 598 -157 l 498 -157 l 506 0 l 64 0 l 20 -157 l -81 -157 l -34 120 l 28 120 m 153 120 l 434 120 l 400 565 l 340 565 l 153 120 z "},"е":{"ha":724,"x_min":47,"x_max":677,"o":"m 639 195 q 338 -17 544 -17 q 124 66 202 -17 q 47 288 47 150 q 145 586 47 465 q 397 707 243 707 q 606 620 535 707 q 677 381 677 532 q 675 327 677 356 l 201 327 q 196 275 196 298 q 234 150 196 197 q 340 102 271 102 q 503 231 448 102 l 639 195 m 533 425 q 397 600 533 600 q 217 425 257 600 l 533 425 z "},"ж":{"ha":890,"x_min":-74,"x_max":937,"o":"m 686 416 l 863 0 l 700 0 l 562 312 l 512 298 l 462 0 l 317 0 l 367 298 l 321 312 l 73 0 l -74 0 l 229 366 l 66 690 l 222 690 l 360 416 l 385 406 l 433 690 l 578 690 l 530 406 l 558 416 l 787 690 l 937 690 l 686 416 z "},"з":{"ha":635,"x_min":-3,"x_max":581,"o":"m 224 302 l 243 409 q 386 441 353 409 q 419 514 419 473 q 325 595 419 595 q 184 490 218 595 l 50 516 q 339 709 114 709 q 520 662 459 709 q 581 540 581 616 q 433 367 581 417 q 564 220 564 334 q 491 54 564 127 q 270 -18 417 -18 q -3 193 27 -18 l 138 218 q 266 94 153 94 q 368 129 332 94 q 405 216 405 164 q 385 271 405 250 q 332 297 365 292 q 224 302 300 302 z "},"и":{"ha":758,"x_min":35,"x_max":724,"o":"m 197 60 l 187 0 l 35 0 l 151 690 l 302 690 l 254 399 q 224 250 246 352 q 347 390 274 314 l 559 611 l 572 690 l 724 690 l 608 0 l 456 0 l 502 274 q 532 431 517 362 q 418 298 489 374 l 197 60 z "},"й":{"ha":758,"x_min":35,"x_max":724,"o":"m 197 60 l 187 0 l 35 0 l 151 690 l 302 690 l 254 399 q 224 250 246 352 q 347 390 274 314 l 559 611 l 572 690 l 724 690 l 608 0 l 456 0 l 502 274 q 532 431 517 362 q 418 298 489 374 l 197 60 m 273 987 l 362 987 q 393 914 362 931 q 465 897 424 897 q 595 987 566 897 l 685 987 q 601 852 667 903 q 446 801 535 801 q 317 845 363 801 q 271 953 271 888 q 273 987 271 965 z "},"к":{"ha":693,"x_min":32,"x_max":730,"o":"m 32 0 l 147 690 l 299 690 l 250 393 l 572 690 l 730 690 l 469 450 l 640 0 l 469 0 l 347 337 l 222 229 l 184 0 l 32 0 z "},"л":{"ha":602,"x_min":-64,"x_max":551,"o":"m -64 0 l 270 685 l 452 685 l 551 0 l 395 0 l 329 565 l 62 0 l -64 0 z "},"м":{"ha":990,"x_min":35,"x_max":956,"o":"m 35 0 l 151 690 l 380 690 l 460 115 l 741 690 l 956 690 l 840 0 l 701 0 l 796 571 l 785 571 l 505 0 l 349 0 l 264 571 l 252 571 l 157 0 l 35 0 z "},"н":{"ha":756,"x_min":35,"x_max":722,"o":"m 35 0 l 151 690 l 302 690 l 258 427 l 526 427 l 570 690 l 722 690 l 606 0 l 454 0 l 505 304 l 238 304 l 187 0 l 35 0 z "},"о":{"ha":729,"x_min":48,"x_max":682,"o":"m 343 -18 q 195 16 267 -18 q 86 124 123 50 q 48 299 48 197 q 145 584 48 464 q 399 705 242 705 q 605 618 528 705 q 682 386 682 532 q 590 109 682 236 q 343 -18 498 -18 m 345 106 q 480 202 437 106 q 524 401 524 297 q 385 581 524 581 q 246 478 288 581 q 204 274 204 376 q 245 147 204 188 q 345 106 286 106 z "},"п":{"ha":726,"x_min":35,"x_max":692,"o":"m 35 0 l 151 690 l 692 690 l 576 0 l 425 0 l 522 579 l 284 579 l 187 0 l 35 0 z "},"р":{"ha":741,"x_min":-5,"x_max":694,"o":"m 146 -241 l -5 -241 l 151 690 l 286 690 l 262 547 q 477 713 348 713 q 634 634 574 713 q 694 422 694 555 q 613 118 694 256 q 399 -20 531 -20 q 207 122 258 -20 l 146 -241 m 371 104 q 493 204 450 104 q 536 410 536 304 q 428 589 536 589 q 291 491 346 589 q 235 277 235 394 q 275 148 235 191 q 371 104 315 104 z "},"с":{"ha":664,"x_min":48,"x_max":650,"o":"m 616 205 q 323 -15 518 -15 q 125 67 201 -15 q 48 296 48 149 q 142 587 48 463 q 379 710 237 710 q 559 647 487 710 q 650 469 631 585 l 521 444 q 386 580 494 580 q 256 489 306 580 q 205 279 205 398 q 243 152 205 189 q 334 114 281 114 q 488 250 435 114 l 616 205 z "},"т":{"ha":511,"x_min":31,"x_max":576,"o":"m 124 0 l 219 568 l 31 568 l 51 690 l 576 690 l 556 568 l 371 568 l 276 0 l 124 0 z "},"у":{"ha":646,"x_min":-24,"x_max":700,"o":"m -24 -245 l -18 -113 q 73 -119 22 -119 q 153 -99 121 -119 q 210 -24 184 -79 l 236 31 l 67 690 l 230 690 l 334 215 l 562 690 l 700 690 l 346 -24 q 269 -161 297 -123 q 190 -225 241 -199 q 58 -251 139 -251 q -24 -245 19 -251 z "},"ф":{"ha":899,"x_min":50,"x_max":855,"o":"m 477 917 l 620 917 l 581 686 q 771 606 688 678 q 855 395 855 534 q 753 121 855 230 q 467 -1 651 12 l 427 -241 l 284 -241 l 325 3 q 121 98 192 20 q 50 294 50 176 q 154 567 50 456 q 439 690 258 677 l 477 917 m 423 591 q 257 490 312 568 q 201 307 201 411 q 342 108 201 149 l 423 591 m 483 98 q 649 200 595 121 q 704 380 704 278 q 564 584 704 541 l 483 98 z "},"х":{"ha":635,"x_min":-65,"x_max":660,"o":"m 590 0 l 416 0 l 294 264 l 85 0 l -65 0 l 235 366 l 73 690 l 249 690 l 345 477 l 511 690 l 660 690 l 404 379 l 590 0 z "},"ц":{"ha":745,"x_min":35,"x_max":707,"o":"m 35 0 l 151 690 l 302 690 l 208 122 l 456 122 l 551 690 l 703 690 l 608 122 l 707 122 l 661 -158 l 561 -158 l 570 0 l 35 0 z "},"ч":{"ha":693,"x_min":75,"x_max":658,"o":"m 391 0 l 437 273 q 251 212 350 212 q 122 252 168 212 q 75 353 75 292 q 95 499 75 378 l 127 690 l 279 690 l 243 475 q 234 406 234 420 q 320 336 234 336 q 452 366 393 336 l 506 690 l 658 690 l 543 0 l 391 0 z "},"ш":{"ha":1098,"x_min":42,"x_max":1057,"o":"m 42 0 l 157 690 l 309 690 l 214 122 l 436 122 l 531 690 l 683 690 l 588 122 l 810 122 l 905 690 l 1057 690 l 941 0 l 42 0 z "},"щ":{"ha":1110,"x_min":45,"x_max":1075,"o":"m 45 0 l 160 690 l 312 690 l 217 122 l 439 122 l 534 690 l 686 690 l 591 122 l 812 122 l 907 690 l 1059 690 l 964 122 l 1075 122 l 1027 -158 l 929 -158 l 937 0 l 45 0 z "},"ъ":{"ha":734,"x_min":7,"x_max":692,"o":"m 361 690 l 319 437 l 472 437 q 692 247 692 437 q 624 70 692 140 q 408 0 555 0 l 94 0 l 189 568 l 7 568 l 27 690 l 361 690 m 267 122 l 417 122 q 543 238 543 122 q 433 326 543 326 l 301 326 l 267 122 z "},"ы":{"ha":998,"x_min":42,"x_max":956,"o":"m 689 0 l 804 690 l 956 690 l 841 0 l 689 0 m 42 0 l 157 690 l 309 690 l 267 437 l 420 437 q 640 248 640 437 q 571 70 640 140 q 356 0 503 0 l 42 0 m 214 122 l 364 122 q 491 239 491 122 q 380 326 491 326 l 248 326 l 214 122 z "},"ь":{"ha":674,"x_min":35,"x_max":633,"o":"m 35 0 l 151 690 l 302 690 l 260 437 l 413 437 q 633 248 633 437 q 564 70 633 140 q 349 0 496 0 l 35 0 m 208 122 l 357 122 q 484 239 484 122 q 373 326 484 326 l 241 326 l 208 122 z "},"э":{"ha":682,"x_min":-1,"x_max":636,"o":"m 199 297 l 217 409 l 479 409 q 480 433 480 422 q 445 541 480 496 q 340 585 410 585 q 185 487 229 585 l 48 515 q 356 709 140 709 q 564 629 491 709 q 636 402 636 549 q 544 96 636 210 q 281 -18 452 -18 q 77 41 139 -18 q -1 186 16 100 l 140 213 q 284 106 165 106 q 412 156 363 106 q 467 297 460 207 l 199 297 z "},"ю":{"ha":1057,"x_min":35,"x_max":1010,"o":"m 385 302 l 237 302 l 187 0 l 35 0 l 151 690 l 302 690 l 258 424 l 400 424 q 519 630 433 551 q 727 709 605 709 q 933 620 857 709 q 1010 393 1010 532 q 917 108 1010 235 q 667 -18 825 -18 q 459 63 532 -18 q 385 302 385 145 m 673 106 q 808 202 765 106 q 851 401 851 298 q 713 585 851 585 q 573 477 614 585 q 531 275 531 370 q 571 149 531 191 q 673 106 610 106 z "},"я":{"ha":718,"x_min":-36,"x_max":684,"o":"m 417 0 l 463 271 l 298 271 l 125 0 l -36 0 l 183 304 q 82 466 82 360 q 143 620 82 551 q 349 690 205 690 l 684 690 l 569 0 l 417 0 m 481 383 l 513 578 l 345 578 q 233 459 233 578 q 317 383 233 383 l 481 383 z "},"ё":{"ha":724,"x_min":47,"x_max":677,"o":"m 639 195 q 338 -17 544 -17 q 124 66 202 -17 q 47 288 47 150 q 145 586 47 465 q 397 707 243 707 q 606 620 535 707 q 677 381 677 532 q 675 327 677 356 l 201 327 q 196 275 196 298 q 234 150 196 197 q 340 102 271 102 q 503 231 448 102 l 639 195 m 533 425 q 397 600 533 600 q 217 425 257 600 l 533 425 m 318 806 q 264 827 286 806 q 243 878 243 848 q 264 931 243 908 q 318 954 285 954 q 372 933 349 954 q 395 879 395 913 q 373 825 395 845 q 318 806 350 806 m 545 806 q 491 827 512 806 q 469 878 469 849 q 491 931 469 908 q 545 954 512 954 q 599 933 576 954 q 623 879 623 913 q 600 825 623 845 q 545 806 577 806 z "},"ђ":{"ha":726,"x_min":33,"x_max":671,"o":"m 33 0 l 161 764 l 40 764 l 57 865 l 178 865 l 191 945 l 343 945 l 330 865 l 600 865 l 583 764 l 313 764 l 277 548 q 496 677 368 677 q 671 487 671 677 q 630 171 671 425 q 516 -158 590 -84 q 307 -233 442 -233 l 313 -118 q 427 -48 395 -112 q 488 198 459 15 q 517 437 517 381 q 429 543 517 543 q 314 492 369 543 q 244 352 259 441 l 185 0 l 33 0 z "},"ѓ":{"ha":511,"x_min":35,"x_max":579,"o":"m 570 690 l 549 568 l 282 568 l 187 0 l 35 0 l 151 690 l 570 690 m 534 1008 l 579 916 l 296 787 l 268 860 l 534 1008 z "},"є":{"ha":695,"x_min":50,"x_max":678,"o":"m 490 409 l 471 297 l 209 297 q 206 258 206 272 q 244 148 206 190 q 350 105 281 105 q 515 213 467 105 l 651 186 q 347 -19 568 -19 q 128 55 206 -19 q 50 281 50 130 q 142 582 50 455 q 413 709 235 709 q 678 515 629 709 l 534 487 q 404 585 513 585 q 222 409 256 585 l 490 409 z "},"ѕ":{"ha":641,"x_min":-20,"x_max":618,"o":"m 125 203 q 288 100 165 100 q 386 125 350 100 q 421 190 421 151 q 397 236 421 219 q 315 269 373 253 q 178 317 222 295 q 102 383 133 338 q 72 486 72 428 q 140 643 72 576 q 334 709 209 709 q 618 547 536 709 l 488 505 q 338 595 442 595 q 258 573 291 595 q 226 515 226 551 q 242 472 226 489 q 306 441 258 455 q 469 385 416 409 q 553 316 522 361 q 584 214 584 272 q 509 51 584 117 q 287 -15 434 -15 q -20 168 52 -15 l 125 203 z "},"і":{"ha":345,"x_min":35,"x_max":351,"o":"m 323 770 l 164 770 l 192 935 l 351 935 l 323 770 m 195 0 l 35 0 l 151 690 l 310 690 l 195 0 z "},"ї":{"ha":345,"x_min":35,"x_max":447,"o":"m 195 0 l 35 0 l 151 690 l 310 690 l 195 0 m 142 806 q 89 827 110 806 q 67 878 67 848 q 88 931 67 908 q 142 954 109 954 q 197 933 174 954 q 220 879 220 913 q 197 825 220 845 q 142 806 174 806 m 370 806 q 315 827 336 806 q 294 878 294 849 q 315 931 294 908 q 370 954 336 954 q 424 933 400 954 q 447 879 447 913 q 424 825 447 845 q 370 806 401 806 z "},"ј":{"ha":376,"x_min":-168,"x_max":369,"o":"m 341 772 l 182 772 l 210 935 l 369 935 l 341 772 m 328 690 l 222 61 q 176 -126 201 -66 q 90 -223 151 -186 q -63 -260 29 -260 q -168 -252 -119 -260 l -159 -122 q -83 -131 -118 -131 q 18 -96 -7 -131 q 59 35 43 -60 l 168 690 l 328 690 z "},"љ":{"ha":925,"x_min":-64,"x_max":884,"o":"m 471 437 l 665 437 q 884 247 884 437 q 816 70 884 140 q 600 0 747 0 l 366 0 l 329 565 l 62 0 l -64 0 l 270 685 l 452 685 l 471 437 m 479 326 l 494 122 l 609 122 q 735 239 735 122 q 625 326 735 326 l 479 326 z "},"њ":{"ha":1078,"x_min":35,"x_max":1034,"o":"m 436 0 l 487 304 l 238 304 l 187 0 l 35 0 l 151 690 l 302 690 l 258 427 l 507 427 l 551 690 l 703 690 l 661 437 l 814 437 q 1034 247 1034 437 q 965 70 1034 140 q 750 0 897 0 l 436 0 m 608 122 l 759 122 q 885 239 885 122 q 774 326 885 326 l 643 326 l 608 122 z "},"ћ":{"ha":732,"x_min":33,"x_max":685,"o":"m 178 865 l 191 945 l 343 945 l 330 865 l 597 865 l 581 764 l 313 764 l 277 549 q 501 677 369 677 q 637 628 589 677 q 685 507 685 580 q 672 404 685 481 l 605 0 l 453 0 l 518 389 q 526 456 526 437 q 498 522 526 500 q 437 543 470 543 q 316 492 374 543 q 244 352 259 441 l 185 0 l 33 0 l 161 764 l 40 764 l 57 865 l 178 865 z "},"ќ":{"ha":693,"x_min":32,"x_max":730,"o":"m 32 0 l 147 690 l 299 690 l 250 393 l 572 690 l 730 690 l 469 450 l 640 0 l 469 0 l 347 337 l 222 229 l 184 0 l 32 0 m 604 1008 l 648 916 l 366 787 l 337 860 l 604 1008 z "},"ў":{"ha":646,"x_min":-24,"x_max":700,"o":"m -24 -245 l -18 -113 q 73 -119 22 -119 q 153 -99 121 -119 q 210 -24 184 -79 l 236 31 l 67 690 l 230 690 l 334 215 l 562 690 l 700 690 l 346 -24 q 269 -161 297 -123 q 190 -225 241 -199 q 58 -251 139 -251 q -24 -245 19 -251 m 227 987 l 316 987 q 347 914 316 931 q 418 897 378 897 q 549 987 519 897 l 639 987 q 555 852 621 903 q 400 801 489 801 q 271 845 317 801 q 224 953 224 888 q 227 987 224 965 z "},"џ":{"ha":736,"x_min":35,"x_max":702,"o":"m 35 0 l 151 690 l 302 690 l 208 122 l 455 122 l 550 690 l 702 690 l 587 0 l 376 0 l 334 -158 l 236 -158 l 248 0 l 35 0 z "},"Ґ":{"ha":633,"x_min":45,"x_max":760,"o":"m 760 1096 l 707 783 l 341 783 l 210 0 l 45 0 l 199 926 l 597 926 l 625 1096 l 760 1096 z "},"ґ":{"ha":511,"x_min":35,"x_max":593,"o":"m 454 690 l 478 831 l 593 831 l 549 568 l 282 568 l 187 0 l 35 0 l 151 690 l 454 690 z "},"Ẁ":{"ha":1208,"x_min":100,"x_max":1292,"o":"m 903 -7 l 736 -7 l 655 690 l 370 -7 l 209 -7 l 100 926 l 279 926 l 341 227 l 625 926 l 790 926 l 864 227 l 1145 926 l 1292 926 l 903 -7 m 644 1221 l 877 1072 l 844 1000 l 591 1133 l 644 1221 z "},"ẁ":{"ha":971,"x_min":62,"x_max":1015,"o":"m 699 0 l 557 0 l 505 490 l 305 0 l 165 0 l 62 690 l 219 690 l 281 213 l 481 690 l 618 690 l 668 214 l 881 690 l 1015 690 l 699 0 m 490 1008 l 722 860 l 689 787 l 436 920 l 490 1008 z "},"Ẃ":{"ha":1208,"x_min":100,"x_max":1292,"o":"m 903 -7 l 736 -7 l 655 690 l 370 -7 l 209 -7 l 100 926 l 279 926 l 341 227 l 625 926 l 790 926 l 864 227 l 1145 926 l 1292 926 l 903 -7 m 826 1221 l 871 1128 l 588 1000 l 559 1072 l 826 1221 z "},"ẃ":{"ha":971,"x_min":62,"x_max":1015,"o":"m 699 0 l 557 0 l 505 490 l 305 0 l 165 0 l 62 690 l 219 690 l 281 213 l 481 690 l 618 690 l 668 214 l 881 690 l 1015 690 l 699 0 m 696 1008 l 741 916 l 458 787 l 430 860 l 696 1008 z "},"Ẅ":{"ha":1208,"x_min":100,"x_max":1292,"o":"m 903 -7 l 736 -7 l 655 690 l 370 -7 l 209 -7 l 100 926 l 279 926 l 341 227 l 625 926 l 790 926 l 864 227 l 1145 926 l 1292 926 l 903 -7 m 614 1025 q 560 1047 581 1025 q 538 1098 538 1068 q 559 1151 538 1128 q 614 1173 581 1173 q 668 1153 645 1173 q 691 1099 691 1133 q 668 1045 691 1065 q 614 1025 646 1025 m 841 1025 q 786 1047 808 1025 q 765 1098 765 1069 q 786 1151 765 1128 q 841 1173 808 1173 q 895 1153 871 1173 q 918 1099 918 1133 q 896 1045 918 1065 q 841 1025 873 1025 z "},"ẅ":{"ha":971,"x_min":62,"x_max":1015,"o":"m 699 0 l 557 0 l 505 490 l 305 0 l 165 0 l 62 690 l 219 690 l 281 213 l 481 690 l 618 690 l 668 214 l 881 690 l 1015 690 l 699 0 m 449 806 q 395 827 416 806 q 374 878 374 848 q 395 931 374 908 q 449 954 416 954 q 503 933 480 954 q 526 879 526 913 q 504 825 526 845 q 449 806 481 806 m 676 806 q 622 827 643 806 q 600 878 600 849 q 622 931 600 908 q 676 954 643 954 q 730 933 707 954 q 753 879 753 913 q 731 825 753 845 q 676 806 708 806 z "},"Ỳ":{"ha":720,"x_min":58,"x_max":836,"o":"m 402 0 l 228 0 l 293 390 l 58 926 l 248 926 l 412 526 l 675 926 l 836 926 l 466 382 l 402 0 m 372 1221 l 604 1072 l 571 1000 l 318 1133 l 372 1221 z "},"ỳ":{"ha":633,"x_min":-39,"x_max":681,"o":"m -39 -245 l -32 -113 q 59 -119 7 -119 q 139 -99 107 -119 q 196 -24 170 -79 l 222 31 l 53 690 l 216 690 l 320 215 l 548 690 l 681 690 l 327 -24 q 251 -161 277 -123 q 174 -225 224 -199 q 43 -251 123 -251 q -39 -245 5 -251 m 290 1008 l 523 860 l 490 787 l 237 920 l 290 1008 z "},"―":{"ha":926,"x_min":-47,"x_max":972,"o":"m 951 281 l -47 281 l -26 405 l 972 405 l 951 281 z "},"‗":{"ha":694,"x_min":20,"x_max":714,"o":"m 20 -68 l 714 -68 l 714 -166 l 20 -166 l 20 -68 m 20 -231 l 714 -231 l 714 -329 l 20 -329 l 20 -231 z "},"‛":{"ha":334,"x_min":167,"x_max":339,"o":"m 208 600 l 167 786 l 192 926 l 339 926 l 312 776 l 236 776 l 260 600 l 208 600 z "},"′":{"ha":292,"x_min":66,"x_max":382,"o":"m 168 558 l 66 558 l 235 926 l 382 926 l 168 558 z "},"″":{"ha":521,"x_min":66,"x_max":638,"o":"m 168 558 l 66 558 l 235 926 l 382 926 l 168 558 m 425 558 l 323 558 l 491 926 l 638 926 l 425 558 z "},"‼":{"ha":685,"x_min":31,"x_max":684,"o":"m 187 258 l 117 258 l 140 926 l 336 926 l 187 258 m 197 0 l 31 0 l 59 172 l 226 172 l 197 0 m 534 258 l 464 258 l 487 926 l 684 926 l 534 258 m 545 0 l 378 0 l 406 172 l 573 172 l 545 0 z "},"‾":{"ha":770,"x_min":-28,"x_max":798,"o":"m -28 1267 l 798 1267 l 798 1217 l -28 1217 l -28 1267 z "},"⁄":{"ha":296,"x_min":-222,"x_max":557,"o":"m -118 0 l -222 0 l 455 926 l 557 926 l -118 0 z "},"ⁿ":{"ha":490,"x_min":68,"x_max":479,"o":"m 431 370 l 322 370 l 364 619 q 369 665 369 646 q 321 715 369 715 q 252 675 283 715 q 209 558 222 635 l 178 370 l 68 370 l 138 787 l 240 787 l 229 722 q 357 798 273 798 q 441 768 403 798 q 479 678 479 738 q 471 611 479 658 l 431 370 z "},"₤":{"ha":814,"x_min":-61,"x_max":800,"o":"m 89 309 l 106 410 l 222 410 l 223 484 l 118 484 l 135 586 l 224 586 q 239 722 227 669 q 294 836 250 775 q 406 930 338 897 q 556 963 474 963 q 793 792 731 963 l 653 731 q 539 835 627 835 q 455 803 492 835 q 407 725 417 770 q 395 586 397 680 l 576 586 l 559 484 l 392 484 q 385 410 390 451 l 547 410 l 530 309 l 362 309 q 239 155 321 203 l 422 155 q 585 183 529 155 q 666 288 641 212 l 800 214 q 660 51 750 102 q 429 0 570 0 l -61 0 l -35 156 q 89 172 50 161 q 160 219 127 183 q 210 309 193 254 l 89 309 z "},"₧":{"ha":1454,"x_min":61,"x_max":1412,"o":"m 218 0 l 61 0 l 216 926 l 401 926 q 577 921 522 926 q 686 884 633 916 q 771 794 739 853 q 804 663 804 736 q 751 493 804 567 q 628 395 699 418 q 457 371 558 371 l 279 371 l 218 0 m 350 791 l 302 507 l 430 507 q 551 518 517 507 q 612 567 586 530 q 639 659 639 605 q 615 741 639 709 q 559 782 591 773 q 442 791 526 791 l 350 791 m 949 0 q 882 -7 899 -7 q 790 20 820 -7 q 760 86 760 46 q 769 159 760 106 l 799 334 l 736 334 l 749 416 l 814 416 l 839 526 l 939 532 l 920 416 l 1013 416 l 998 334 l 906 334 l 876 157 q 871 115 871 125 q 925 80 871 80 q 964 83 938 80 l 949 0 m 1103 130 q 1201 68 1125 68 q 1275 117 1275 68 q 1214 159 1275 143 q 1093 210 1129 181 q 1057 292 1057 239 q 1101 387 1057 347 q 1226 428 1145 428 q 1412 325 1358 428 l 1318 296 q 1313 303 1317 297 q 1227 351 1285 351 q 1166 309 1166 351 q 1211 270 1166 281 q 1352 213 1313 242 q 1390 131 1390 184 q 1342 31 1390 71 q 1199 -9 1293 -9 q 1000 106 1046 -9 l 1103 130 z "},"℅":{"ha":1274,"x_min":83,"x_max":1215,"o":"m 487 614 q 277 465 417 465 q 135 522 187 465 q 83 673 83 578 q 150 867 83 785 q 317 949 216 949 q 510 785 479 949 l 414 768 q 322 857 396 857 q 233 798 267 857 q 199 662 199 739 q 286 555 199 555 q 392 646 356 555 l 487 614 m 370 0 l 267 0 l 943 926 l 1045 926 l 370 0 m 975 -18 q 821 38 876 -18 q 765 194 765 94 q 834 385 765 305 q 1013 465 903 465 q 1159 407 1103 465 q 1215 251 1215 350 q 1149 67 1215 152 q 975 -18 1084 -18 m 975 70 q 1068 132 1039 70 q 1098 262 1098 195 q 1004 377 1098 377 q 908 310 937 377 q 880 177 880 243 q 907 96 880 122 q 975 70 935 70 z "},"ℓ":{"ha":814,"x_min":210,"x_max":685,"o":"m 441 371 q 401 111 401 159 q 424 68 401 68 q 484 137 453 68 q 513 164 496 164 q 536 138 536 164 q 489 34 536 88 q 386 -20 443 -20 q 282 146 282 -20 q 288 258 282 191 q 235 217 245 217 q 218 227 226 217 q 210 248 210 236 q 233 288 210 265 q 298 360 262 317 q 411 772 341 603 q 583 941 481 941 q 657 906 629 941 q 685 816 685 872 q 441 371 685 615 m 461 486 q 570 650 530 563 q 611 804 611 736 q 584 861 611 861 q 461 486 526 861 z "},"№":{"ha":1389,"x_min":44,"x_max":1350,"o":"m 742 0 l 610 0 l 294 696 l 178 0 l 44 0 l 199 926 l 370 926 l 659 290 l 765 926 l 897 926 l 742 0 m 1123 246 q 979 298 1035 246 q 922 450 922 349 q 987 629 922 555 q 1156 704 1053 704 q 1302 644 1254 704 q 1350 506 1350 583 q 1287 323 1350 400 q 1123 246 1223 246 m 1125 340 q 1202 393 1177 340 q 1227 513 1227 447 q 1147 610 1227 610 q 1068 551 1091 610 q 1044 436 1044 492 q 1125 340 1044 340 m 1270 0 l 848 0 l 869 124 l 1290 124 l 1270 0 z "},"℮":{"ha":833,"x_min":35,"x_max":753,"o":"m 192 360 l 192 109 q 394 26 273 26 q 662 193 566 26 l 711 164 q 554 13 631 49 q 394 -23 477 -23 q 136 84 237 -23 q 35 360 35 192 q 137 637 35 531 q 394 743 238 743 q 642 647 539 743 q 753 360 745 551 l 192 360 m 596 410 l 596 612 q 393 694 512 694 q 192 611 274 694 l 192 410 l 596 410 z "},"⅛":{"ha":1222,"x_min":52,"x_max":1202,"o":"m 472 370 l 52 370 l 68 465 l 222 465 l 277 797 q 116 751 199 751 q 98 751 109 751 l 113 844 q 336 946 273 856 l 412 946 l 332 465 l 488 465 l 472 370 m 321 0 l 218 0 l 943 926 l 1044 926 l 321 0 m 851 281 q 772 401 772 325 q 832 519 772 469 q 999 570 893 570 q 1145 530 1088 570 q 1202 429 1202 491 q 1087 297 1202 342 q 1183 168 1183 253 q 1117 40 1183 93 q 945 -12 1050 -12 q 772 30 828 -12 q 716 133 716 71 q 851 281 716 240 m 1009 332 q 1099 421 1099 366 q 1070 470 1099 451 q 991 490 1041 490 q 917 471 944 490 q 890 422 890 452 q 917 373 890 393 q 1009 332 943 353 m 938 240 q 825 144 825 210 q 857 90 825 111 q 944 69 889 69 q 1037 93 1006 69 q 1067 145 1067 117 q 938 240 1067 199 z "},"⅜":{"ha":1222,"x_min":32,"x_max":1202,"o":"m 136 539 q 178 471 143 497 q 260 446 212 446 q 343 471 312 446 q 374 534 374 496 q 356 585 374 565 q 315 608 338 605 q 205 612 291 612 l 220 699 q 250 698 237 698 q 399 780 399 698 q 372 831 399 812 q 307 850 345 850 q 180 769 220 850 l 81 810 q 310 939 161 939 q 457 896 400 939 q 515 789 515 852 q 399 659 515 694 q 490 532 490 626 q 430 410 490 463 q 258 357 370 357 q 32 514 79 357 l 136 539 m 321 0 l 218 0 l 942 926 l 1044 926 l 321 0 m 851 281 q 771 401 771 324 q 832 519 771 469 q 999 570 892 570 q 1145 530 1088 570 q 1202 429 1202 491 q 1087 297 1202 342 q 1183 168 1183 253 q 1116 40 1183 93 q 944 -12 1050 -12 q 774 28 832 -12 q 716 133 716 69 q 851 281 716 240 m 1009 332 q 1099 421 1099 366 q 1070 470 1099 450 q 991 490 1041 490 q 916 471 943 490 q 889 422 889 452 q 915 373 889 393 q 1009 332 941 353 m 937 240 q 825 144 825 210 q 857 90 825 111 q 943 69 889 69 q 1037 93 1006 69 q 1067 145 1067 117 q 937 240 1067 199 z "},"⅝":{"ha":1222,"x_min":49,"x_max":1202,"o":"m 49 499 l 151 524 q 192 466 159 488 q 264 444 224 444 q 348 476 313 444 q 384 556 384 509 q 353 629 384 602 q 282 656 323 656 q 176 594 216 656 l 85 631 l 166 926 l 524 926 l 500 833 l 236 833 l 198 699 q 316 747 252 747 q 449 694 395 747 q 503 568 503 641 q 433 416 503 477 q 267 355 364 355 q 128 395 189 355 q 49 499 67 434 m 321 0 l 218 0 l 942 926 l 1044 926 l 321 0 m 851 281 q 771 401 771 325 q 832 519 771 469 q 999 570 893 570 q 1148 528 1095 570 q 1202 429 1202 487 q 1087 297 1202 342 q 1183 167 1183 253 q 1117 40 1183 93 q 944 -12 1050 -12 q 774 28 832 -12 q 716 133 716 69 q 851 281 716 240 m 1009 332 q 1099 421 1099 366 q 1070 470 1099 451 q 991 490 1041 490 q 916 471 943 490 q 889 422 889 452 q 915 373 889 393 q 1009 332 941 353 m 937 240 q 825 144 825 210 q 857 90 825 111 q 943 69 889 69 q 1037 93 1006 69 q 1067 145 1067 117 q 937 240 1067 199 z "},"⅞":{"ha":1222,"x_min":94,"x_max":1202,"o":"m 271 370 l 140 370 q 151 413 141 371 q 419 829 207 661 l 94 829 l 125 926 l 541 926 l 526 842 q 374 664 465 798 q 271 370 284 531 m 321 0 l 218 0 l 943 926 l 1044 926 l 321 0 m 852 281 q 772 401 772 324 q 832 519 772 469 q 1000 570 893 570 q 1145 530 1088 570 q 1202 429 1202 491 q 1087 297 1202 342 q 1183 168 1183 253 q 1117 40 1183 93 q 945 -12 1050 -12 q 775 28 833 -12 q 717 133 717 69 q 852 281 717 240 m 1010 332 q 1099 421 1099 366 q 1072 469 1099 449 q 992 490 1044 490 q 917 471 944 490 q 890 422 890 452 q 916 373 890 393 q 1010 332 942 353 m 938 240 q 826 144 826 210 q 858 90 826 111 q 944 69 890 69 q 1037 93 1006 69 q 1067 145 1067 117 q 938 240 1067 199 z "},"←":{"ha":1389,"x_min":54,"x_max":1335,"o":"m 334 594 l 385 594 q 253 385 330 479 l 1335 385 l 1335 316 l 253 316 q 387 106 322 247 l 334 106 q 54 338 183 278 l 54 368 q 334 594 174 416 z "},"↑":{"ha":694,"x_min":104,"x_max":591,"o":"m 104 628 q 330 908 281 789 l 361 908 q 591 627 420 779 l 591 575 q 382 709 451 640 l 382 -291 l 313 -291 l 313 709 q 104 576 219 631 l 104 628 z "},"→":{"ha":1389,"x_min":54,"x_max":1335,"o":"m 1055 594 q 1335 368 1215 416 l 1335 338 q 1054 106 1205 278 l 1002 106 q 1135 316 1066 247 l 54 316 l 54 385 l 1135 385 q 1003 594 1058 479 l 1055 594 z "},"↓":{"ha":694,"x_min":104,"x_max":591,"o":"m 104 -11 l 104 41 q 313 -92 219 -14 l 313 908 l 382 908 l 382 -92 q 591 42 451 -22 l 591 -10 q 361 -291 420 -161 l 330 -291 q 104 -11 281 -172 z "},"↔":{"ha":1389,"x_min":54,"x_max":1335,"o":"m 1335 366 l 1335 336 q 1059 107 1212 282 l 1005 107 q 1137 318 1052 224 l 252 318 q 383 107 336 224 l 329 107 q 54 336 177 282 l 54 366 q 329 595 177 420 l 383 595 q 252 385 336 479 l 1137 385 q 1005 595 1052 479 l 1059 595 q 1335 366 1212 420 z "},"↕":{"ha":694,"x_min":103,"x_max":591,"o":"m 332 992 l 362 992 q 591 716 416 869 l 591 662 q 380 794 475 709 l 380 -92 q 591 40 475 -6 l 591 -14 q 362 -290 416 -166 l 332 -290 q 103 -14 278 -166 l 103 40 q 314 -92 219 -6 l 314 794 q 103 662 219 709 l 103 716 q 332 992 278 869 z "},"↨":{"ha":694,"x_min":103,"x_max":591,"o":"m 332 992 l 362 992 q 591 716 416 869 l 591 662 q 380 794 475 709 l 380 -92 q 591 40 475 -6 l 591 -14 q 362 -290 416 -166 l 332 -290 q 103 -14 278 -166 l 103 40 q 314 -92 219 -6 l 314 794 q 103 662 219 709 l 103 716 q 332 992 278 869 m 104 -354 l 591 -354 l 591 -420 l 104 -420 l 104 -354 z "},"∟":{"ha":1360,"x_min":245,"x_max":1114,"o":"m 245 867 l 313 867 l 313 68 l 1114 68 l 1114 0 l 245 0 l 245 867 z "},"∩":{"ha":998,"x_min":130,"x_max":869,"o":"m 205 0 l 130 0 l 130 321 q 139 574 130 500 q 191 716 148 647 q 318 832 233 785 q 499 880 403 880 q 681 832 597 880 q 807 719 766 785 q 859 578 849 652 q 869 321 869 505 l 869 0 l 795 0 l 795 326 q 787 551 795 483 q 746 675 779 620 q 645 769 713 730 q 499 808 576 808 q 353 768 422 808 q 253 675 284 729 q 213 552 221 622 q 205 326 205 483 l 205 0 z "},"≡":{"ha":814,"x_min":127,"x_max":728,"o":"m 127 754 l 728 754 l 728 613 l 127 613 l 127 754 m 127 538 l 728 538 l 728 396 l 127 396 l 127 538 m 127 321 l 728 321 l 728 180 l 127 180 l 127 321 z "},"⌂":{"ha":833,"x_min":104,"x_max":730,"o":"m 104 0 l 104 430 l 416 782 l 730 430 l 730 0 l 104 0 m 159 55 l 675 55 l 675 407 l 416 696 l 159 407 l 159 55 z "},"⌐":{"ha":814,"x_min":127,"x_max":728,"o":"m 284 0 l 127 0 l 127 370 l 728 370 l 728 229 l 284 229 l 284 0 z "},"⌠":{"ha":839,"x_min":370,"x_max":662,"o":"m 469 -349 l 370 -349 l 370 879 q 431 1103 370 1027 q 568 1178 492 1178 q 638 1156 614 1178 q 662 1104 662 1134 q 645 1059 662 1077 q 602 1042 627 1042 q 564 1052 582 1042 q 535 1083 551 1059 q 504 1108 519 1108 q 483 1100 492 1108 q 473 1082 476 1095 q 469 987 469 1059 l 469 -349 z "},"⌡":{"ha":839,"x_min":177,"x_max":469,"o":"m 370 1178 l 469 1178 l 469 -50 q 408 -274 469 -199 q 271 -349 347 -349 q 201 -327 225 -349 q 177 -275 177 -305 q 194 -231 177 -248 q 236 -213 212 -213 q 276 -224 257 -213 q 304 -255 288 -231 q 335 -279 319 -279 q 356 -272 347 -279 q 366 -252 363 -267 q 370 -159 370 -231 l 370 1178 z "},"─":{"ha":984,"x_min":-16,"x_max":999,"o":"m 999 362 l -16 362 l -16 481 l 999 481 l 999 362 z "},"│":{"ha":984,"x_min":433,"x_max":551,"o":"m 433 -421 l 433 1264 l 551 1264 l 551 -421 l 433 -421 z "},"┌":{"ha":984,"x_min":433,"x_max":1000,"o":"m 1000 481 l 1000 362 l 551 362 l 551 -421 l 433 -421 l 433 481 l 1000 481 z "},"┐":{"ha":984,"x_min":-16,"x_max":551,"o":"m 432 362 l -16 362 l -16 481 l 551 481 l 551 -421 l 432 -421 l 432 362 z "},"└":{"ha":984,"x_min":433,"x_max":1000,"o":"m 433 362 l 433 1264 l 551 1264 l 551 481 l 1000 481 l 1000 362 l 433 362 z "},"┘":{"ha":984,"x_min":-16,"x_max":551,"o":"m 551 362 l -16 362 l -16 481 l 432 481 l 432 1264 l 551 1264 l 551 362 z "},"├":{"ha":984,"x_min":433,"x_max":1000,"o":"m 433 -421 l 433 1264 l 551 1264 l 551 481 l 1000 481 l 1000 362 l 551 362 l 551 -421 l 433 -421 z "},"┤":{"ha":984,"x_min":-16,"x_max":551,"o":"m 432 -421 l 432 362 l -16 362 l -16 481 l 432 481 l 432 1264 l 551 1264 l 551 -421 l 432 -421 z "},"┬":{"ha":984,"x_min":-16,"x_max":999,"o":"m 432 362 l -16 362 l -16 481 l 999 481 l 999 362 l 551 362 l 551 -421 l 432 -421 l 432 362 z "},"┴":{"ha":984,"x_min":-16,"x_max":999,"o":"m 999 362 l -16 362 l -16 481 l 432 481 l 432 1264 l 551 1264 l 551 481 l 999 481 l 999 362 z "},"┼":{"ha":984,"x_min":-16,"x_max":999,"o":"m 432 362 l -16 362 l -16 481 l 432 481 l 432 1264 l 551 1264 l 551 481 l 999 481 l 999 362 l 551 362 l 551 -421 l 432 -421 l 432 362 z "},"═":{"ha":984,"x_min":-16,"x_max":999,"o":"m 999 491 l -16 491 l -16 610 l 999 610 l 999 491 m 999 233 l -16 233 l -16 352 l 999 352 l 999 233 z "},"║":{"ha":984,"x_min":304,"x_max":681,"o":"m 562 -421 l 562 1264 l 681 1264 l 681 -421 l 562 -421 m 304 -421 l 304 1264 l 422 1264 l 422 -421 l 304 -421 z "},"╒":{"ha":984,"x_min":433,"x_max":1000,"o":"m 433 -421 l 433 610 l 1000 610 l 1000 491 l 551 491 l 551 352 l 1000 352 l 1000 233 l 551 233 l 551 -421 l 433 -421 z "},"╓":{"ha":984,"x_min":304,"x_max":1000,"o":"m 304 -421 l 304 481 l 1000 481 l 1000 362 l 681 362 l 681 -421 l 562 -421 l 562 362 l 422 362 l 422 -421 l 304 -421 z "},"╔":{"ha":984,"x_min":304,"x_max":1000,"o":"m 422 -421 l 304 -421 l 304 610 l 1000 610 l 1000 491 l 422 491 l 422 -421 m 681 233 l 681 -421 l 562 -421 l 562 352 l 1000 352 l 1000 233 l 681 233 z "},"╕":{"ha":984,"x_min":-16,"x_max":551,"o":"m 432 233 l -16 233 l -16 352 l 432 352 l 432 491 l -16 491 l -16 610 l 551 610 l 551 -421 l 432 -421 l 432 233 z "},"╖":{"ha":984,"x_min":-16,"x_max":680,"o":"m 304 -421 l 304 362 l -16 362 l -16 481 l 680 481 l 680 -421 l 562 -421 l 562 362 l 422 362 l 422 -421 l 304 -421 z "},"╗":{"ha":984,"x_min":-16,"x_max":680,"o":"m 562 -421 l 562 491 l -16 491 l -16 610 l 680 610 l 680 -421 l 562 -421 m 303 233 l -16 233 l -16 352 l 422 352 l 422 -421 l 303 -421 l 303 233 z "},"╘":{"ha":984,"x_min":433,"x_max":1000,"o":"m 433 233 l 433 1264 l 551 1264 l 551 610 l 1000 610 l 1000 491 l 551 491 l 551 352 l 1000 352 l 1000 233 l 433 233 z "},"╙":{"ha":984,"x_min":304,"x_max":1000,"o":"m 1000 362 l 304 362 l 304 1264 l 422 1264 l 422 481 l 562 481 l 562 1264 l 681 1264 l 681 481 l 1000 481 l 1000 362 z "},"╚":{"ha":984,"x_min":304,"x_max":1000,"o":"m 422 1264 l 422 352 l 999 352 l 999 233 l 304 233 l 304 1264 l 422 1264 m 681 610 l 1000 610 l 1000 491 l 562 491 l 562 1264 l 681 1264 l 681 610 z "},"╛":{"ha":984,"x_min":-16,"x_max":551,"o":"m 551 233 l -16 233 l -16 352 l 432 352 l 432 491 l -16 491 l -16 610 l 432 610 l 432 1264 l 551 1264 l 551 233 z "},"╜":{"ha":984,"x_min":-16,"x_max":680,"o":"m 680 362 l -16 362 l -16 481 l 303 481 l 303 1264 l 422 1264 l 422 481 l 562 481 l 562 1264 l 680 1264 l 680 362 z "},"╝":{"ha":984,"x_min":-16,"x_max":680,"o":"m 562 1264 l 680 1264 l 680 233 l -16 233 l -16 352 l 562 352 l 562 1264 m 303 610 l 303 1264 l 422 1264 l 422 491 l -16 491 l -16 610 l 303 610 z "},"╞":{"ha":984,"x_min":433,"x_max":1000,"o":"m 433 -421 l 433 1264 l 551 1264 l 551 610 l 1000 610 l 1000 491 l 551 491 l 551 352 l 1000 352 l 1000 233 l 551 233 l 551 -421 l 433 -421 z "},"╟":{"ha":984,"x_min":304,"x_max":1000,"o":"m 562 -421 l 562 1264 l 681 1264 l 681 481 l 1000 481 l 1000 362 l 681 362 l 681 -421 l 562 -421 m 304 -421 l 304 1264 l 422 1264 l 422 -421 l 304 -421 z "},"╠":{"ha":984,"x_min":304,"x_max":1000,"o":"m 304 -421 l 304 1264 l 422 1264 l 422 -421 l 304 -421 m 562 491 l 562 1264 l 681 1264 l 681 610 l 1000 610 l 1000 491 l 562 491 m 562 -421 l 562 352 l 1000 352 l 1000 233 l 681 233 l 681 -421 l 562 -421 z "},"╡":{"ha":984,"x_min":-16,"x_max":551,"o":"m 432 233 l -16 233 l -16 352 l 432 352 l 432 491 l -16 491 l -16 610 l 432 610 l 432 1264 l 551 1264 l 551 -421 l 432 -421 l 432 233 z "},"╢":{"ha":984,"x_min":-16,"x_max":680,"o":"m 303 -421 l 304 362 l -16 362 l -16 481 l 303 481 l 303 1264 l 422 1264 l 422 -421 l 303 -421 m 562 -421 l 562 1264 l 680 1264 l 680 -421 l 562 -421 z "},"╣":{"ha":984,"x_min":-16,"x_max":680,"o":"m 562 -421 l 562 1264 l 680 1264 l 680 -421 l 562 -421 m 422 1264 l 422 491 l -16 491 l -16 610 l 303 610 l 303 1264 l 422 1264 m 303 233 l -16 233 l -16 352 l 422 352 l 422 -421 l 303 -421 l 303 233 z "},"╤":{"ha":984,"x_min":-16,"x_max":999,"o":"m 999 491 l -16 491 l -16 610 l 999 610 l 999 491 m 432 233 l -16 233 l -16 352 l 999 352 l 999 233 l 551 233 l 551 -421 l 432 -421 l 432 233 z "},"╥":{"ha":984,"x_min":-16,"x_max":999,"o":"m 303 -421 l 303 362 l -16 362 l -16 481 l 999 481 l 999 362 l 680 362 l 680 -421 l 562 -421 l 562 362 l 422 362 l 422 -421 l 303 -421 z "},"╦":{"ha":984,"x_min":-16,"x_max":999,"o":"m 999 491 l -16 491 l -16 610 l 999 610 l 999 491 m 303 233 l -16 233 l -16 352 l 422 352 l 422 -421 l 303 -421 l 303 233 m 562 -421 l 562 352 l 999 352 l 999 233 l 680 233 l 680 -421 l 562 -421 z "},"╧":{"ha":984,"x_min":-16,"x_max":999,"o":"m 999 491 l -16 491 l -16 610 l 432 610 l 432 1264 l 551 1264 l 551 610 l 999 610 l 999 491 m 999 233 l -16 233 l -16 352 l 999 352 l 999 233 z "},"╨":{"ha":984,"x_min":-16,"x_max":999,"o":"m 999 362 l -16 362 l -16 481 l 303 481 l 303 1264 l 422 1264 l 422 481 l 562 481 l 562 1264 l 680 1264 l 680 481 l 999 481 l 999 362 z "},"╩":{"ha":984,"x_min":-16,"x_max":999,"o":"m 422 491 l -16 491 l -16 610 l 303 610 l 303 1264 l 422 1264 l 422 491 m 999 491 l 562 491 l 562 1264 l 680 1264 l 680 610 l 999 610 l 999 491 m 999 233 l -16 233 l -16 352 l 999 352 l 999 233 z "},"╪":{"ha":984,"x_min":-16,"x_max":999,"o":"m 432 233 l -16 233 l -16 352 l 432 352 l 432 491 l -16 491 l -16 610 l 432 610 l 432 1264 l 551 1264 l 551 610 l 999 610 l 999 491 l 551 491 l 551 352 l 999 352 l 999 233 l 551 233 l 551 -421 l 432 -421 l 432 233 z "},"╫":{"ha":984,"x_min":-16,"x_max":999,"o":"m 303 -421 l 303 362 l -16 362 l -16 481 l 303 481 l 303 1264 l 422 1264 l 422 481 l 562 481 l 562 1264 l 680 1264 l 680 481 l 999 481 l 999 362 l 680 362 l 680 -421 l 562 -421 l 562 362 l 422 362 l 422 -421 l 303 -421 z "},"╬":{"ha":984,"x_min":-16,"x_max":999,"o":"m 680 610 l 999 610 l 999 491 l 562 491 l 562 1264 l 680 1264 l 680 610 m 303 610 l 303 1264 l 422 1264 l 422 491 l -16 491 l -16 610 l 303 610 m 303 233 l -16 233 l -16 352 l 422 352 l 422 -421 l 303 -421 l 303 233 m 680 233 l 680 -421 l 562 -421 l 562 352 l 999 352 l 999 233 l 680 233 z "},"▀":{"ha":984,"x_min":-16,"x_max":999,"o":"m 999 421 l -16 421 l -16 1264 l 999 1264 l 999 421 z "},"▄":{"ha":984,"x_min":-16,"x_max":999,"o":"m 999 -421 l -16 -421 l -16 421 l 999 421 l 999 -421 z "},"█":{"ha":984,"x_min":-16,"x_max":999,"o":"m -16 -421 l -16 1264 l 999 1264 l 999 -421 l -16 -421 z "},"▌":{"ha":984,"x_min":-16,"x_max":492,"o":"m -16 -421 l -16 1264 l 492 1264 l 492 -421 l -16 -421 z "},"▐":{"ha":984,"x_min":492,"x_max":1000,"o":"m 492 -421 l 492 1264 l 1000 1264 l 1000 -421 l 492 -421 z "},"░":{"ha":984,"x_min":0,"x_max":900,"o":"m 0 1264 l 82 1264 l 82 1179 l 0 1179 l 0 1264 m 327 1264 l 409 1264 l 409 1179 l 327 1179 l 327 1264 m 654 1264 l 736 1264 l 736 1179 l 654 1179 l 654 1264 m 163 1095 l 245 1095 l 245 1010 l 163 1010 l 163 1095 m 490 1095 l 572 1095 l 572 1010 l 490 1010 l 490 1095 m 818 1095 l 900 1095 l 900 1010 l 818 1010 l 818 1095 m 654 926 l 736 926 l 736 842 l 654 842 l 654 926 m 327 926 l 409 926 l 409 842 l 327 842 l 327 926 m 0 926 l 82 926 l 82 842 l 0 842 l 0 926 m 818 758 l 900 758 l 900 673 l 818 673 l 818 758 m 490 758 l 572 758 l 572 673 l 490 673 l 490 758 m 163 758 l 245 758 l 245 673 l 163 673 l 163 758 m 0 588 l 82 588 l 82 503 l 0 503 l 0 588 m 327 588 l 409 588 l 409 503 l 327 503 l 327 588 m 654 588 l 736 588 l 736 503 l 654 503 l 654 588 m 818 419 l 900 419 l 900 334 l 818 334 l 818 419 m 490 419 l 572 419 l 572 334 l 490 334 l 490 419 m 163 419 l 245 419 l 245 334 l 163 334 l 163 419 m 0 250 l 82 250 l 82 165 l 0 165 l 0 250 m 327 250 l 409 250 l 409 165 l 327 165 l 327 250 m 654 250 l 736 250 l 736 165 l 654 165 l 654 250 m 163 81 l 245 81 l 245 -3 l 163 -3 l 163 81 m 490 81 l 572 81 l 572 -3 l 490 -3 l 490 81 m 818 81 l 900 81 l 900 -3 l 818 -3 l 818 81 m 654 -88 l 736 -88 l 736 -173 l 654 -173 l 654 -88 m 327 -88 l 409 -88 l 409 -173 l 327 -173 l 327 -88 m 0 -88 l 82 -88 l 82 -173 l 0 -173 l 0 -88 m 163 -257 l 245 -257 l 245 -342 l 163 -342 l 163 -257 m 490 -257 l 572 -257 l 572 -342 l 490 -342 l 490 -257 m 818 -257 l 900 -257 l 900 -342 l 818 -342 l 818 -257 z "},"▒":{"ha":984,"x_min":0,"x_max":981,"o":"m 82 1264 l 163 1264 l 163 1179 l 82 1179 l 82 1264 m 245 1264 l 327 1264 l 327 1179 l 245 1179 l 245 1264 m 409 1264 l 491 1264 l 491 1179 l 409 1179 l 409 1264 m 572 1264 l 654 1264 l 654 1179 l 572 1179 l 572 1264 m 736 1264 l 818 1264 l 818 1179 l 736 1179 l 736 1264 m 900 1264 l 981 1264 l 981 1179 l 900 1179 l 900 1264 m 0 1095 l 82 1095 l 82 1010 l 0 1010 l 0 1095 m 163 1095 l 245 1095 l 245 1010 l 163 1010 l 163 1095 m 327 1095 l 409 1095 l 409 1010 l 327 1010 l 327 1095 m 491 1095 l 572 1095 l 572 1010 l 491 1010 l 491 1095 m 654 1095 l 736 1095 l 736 1010 l 654 1010 l 654 1095 m 818 1095 l 900 1095 l 900 1010 l 818 1010 l 818 1095 m 82 926 l 163 926 l 163 842 l 82 842 l 82 926 m 245 926 l 327 926 l 327 842 l 245 842 l 245 926 m 409 926 l 491 926 l 491 842 l 409 842 l 409 926 m 572 926 l 654 926 l 654 842 l 572 842 l 572 926 m 736 926 l 818 926 l 818 842 l 736 842 l 736 926 m 900 926 l 981 926 l 981 842 l 900 842 l 900 926 m 163 757 l 245 757 l 245 673 l 163 673 l 163 757 m 327 757 l 409 757 l 409 673 l 327 673 l 327 757 m 491 757 l 572 757 l 572 673 l 491 673 l 491 757 m 654 757 l 736 757 l 736 673 l 654 673 l 654 757 m 818 757 l 900 757 l 900 673 l 818 673 l 818 757 m 0 757 l 82 757 l 82 673 l 0 673 l 0 757 m 82 588 l 163 588 l 163 503 l 82 503 l 82 588 m 245 588 l 327 588 l 327 503 l 245 503 l 245 588 m 409 588 l 491 588 l 491 503 l 409 503 l 409 588 m 572 588 l 654 588 l 654 503 l 572 503 l 572 588 m 736 588 l 818 588 l 818 503 l 736 503 l 736 588 m 900 588 l 981 588 l 981 503 l 900 503 l 900 588 m 0 419 l 82 419 l 82 334 l 0 334 l 0 419 m 327 419 l 409 419 l 409 334 l 327 334 l 327 419 m 491 419 l 572 419 l 572 334 l 491 334 l 491 419 m 654 419 l 736 419 l 736 334 l 654 334 l 654 419 m 818 419 l 900 419 l 900 334 l 818 334 l 818 419 m 163 419 l 245 419 l 245 334 l 163 334 l 163 419 m 900 250 l 981 250 l 981 165 l 900 165 l 900 250 m 736 250 l 818 250 l 818 165 l 736 165 l 736 250 m 572 250 l 654 250 l 654 165 l 572 165 l 572 250 m 409 250 l 491 250 l 491 165 l 409 165 l 409 250 m 245 250 l 327 250 l 327 165 l 245 165 l 245 250 m 82 250 l 163 250 l 163 165 l 82 165 l 82 250 m 0 81 l 82 81 l 82 -3 l 0 -3 l 0 81 m 163 81 l 245 81 l 245 -3 l 163 -3 l 163 81 m 327 81 l 409 81 l 409 -3 l 327 -3 l 327 81 m 491 81 l 572 81 l 572 -3 l 491 -3 l 491 81 m 654 81 l 736 81 l 736 -3 l 654 -3 l 654 81 m 818 81 l 900 81 l 900 -3 l 818 -3 l 818 81 m 900 -88 l 981 -88 l 981 -173 l 900 -173 l 900 -88 m 736 -88 l 818 -88 l 818 -173 l 736 -173 l 736 -88 m 572 -88 l 654 -88 l 654 -173 l 572 -173 l 572 -88 m 409 -88 l 491 -88 l 491 -173 l 409 -173 l 409 -88 m 245 -88 l 327 -88 l 327 -173 l 245 -173 l 245 -88 m 82 -88 l 163 -88 l 163 -173 l 82 -173 l 82 -88 m 0 -257 l 82 -257 l 82 -342 l 0 -342 l 0 -257 m 163 -257 l 245 -257 l 245 -342 l 163 -342 l 163 -257 m 327 -257 l 409 -257 l 409 -342 l 327 -342 l 327 -257 m 491 -257 l 572 -257 l 572 -342 l 491 -342 l 491 -257 m 654 -258 l 736 -257 l 736 -342 l 654 -342 l 654 -258 m 818 -257 l 900 -257 l 900 -342 l 818 -342 l 818 -257 z "}}}
